<?xml version="1.0" standalone="no"?>
<!DOCTYPE svg PUBLIC "-//W3C//DTD SVG 1.1//EN" "http://www.w3.org/Graphics/SVG/1.1/DTD/svg11.dtd" >
<svg>
<metadata>
Created by FontForge 20090914 at Mon Jan  4 18:22:10 2010
 By apache
Copyright 2009 Stray, created using www.fontcapture.com
</metadata>
<defs>
<font id="Sam'sSharpieMarker" horiz-adv-x="1274" >
  <font-face 
    font-family="Sam's Sharpie Marker"
    font-weight="500"
    font-stretch="normal"
    units-per-em="2048"
    panose-1="2 0 6 3 0 0 0 0 0 0"
    ascent="1317"
    descent="-731"
    x-height="716"
    cap-height="1245"
    bbox="28.8947 -749.657 2171.84 1337.17"
    underline-thickness="50"
    underline-position="-100"
    unicode-range="U+0020-U+20AC"
  />
<missing-glyph horiz-adv-x="748" 
d="M68 0v1317h544v-1317h-544zM136 68h408v1181h-408v-1181z" />
    <glyph glyph-name=".notdef" horiz-adv-x="748" 
d="M68 0v1317h544v-1317h-544zM136 68h408v1181h-408v-1181z" />
    <glyph glyph-name=".null" horiz-adv-x="0" 
 />
    <glyph glyph-name="nonmarkingreturn" horiz-adv-x="682" 
 />
    <glyph glyph-name="space" unicode=" " horiz-adv-x="500" 
 />
    <glyph glyph-name="exclam" unicode="!" horiz-adv-x="1205" 
d="M270 -328q85 35 189.5 36.5t137.5 -32.5q11 -10 17.5 -37t5.5 -55q-2 -39 5.5 -50.5t28.5 -3.5q11 3 17.5 4t8.5 -7t1 -21.5t-6 -39.5q-14 -69 -41.5 -103.5t-82 -49t-157.5 -14.5q-108 0 -154.5 9.5t-90.5 41.5q-29 21 -54.5 54t-31.5 58q-28 113 207 210zM379 1240
q26 39 42 47q24 13 117 6q18 -2 64 -6q319 -28 380 -46q45 -13 54 -40q3 -7 4 -17q4 -24 16 -51.5t27 -43.5q37 -41 13 -176.5t-120 -428.5q-45 -135 -81 -263t-43 -172q-6 -44 -22.5 -90.5t-32.5 -65.5l-17 -20t-17 -11t-19.5 -5.5t-30.5 2.5t-42 8l-63 16
q-61 15 -114.5 22t-66.5 1q-14 -5 -37 4.5t-43 29.5q-44 42 -48 32q-1 -19 -39 32q-49 64 -51 90q0 12 13 32t32 35q45 39 45 126q0 35 8 75.5t19 60.5q37 71 60.5 214t21 279t-30.5 189q-28 50 -27.5 70.5t29.5 64.5zM812 942q3 17 4 25.5t-1 16.5t-6 11t-16 5.5t-24 2.5
h-38q-37 0 -67.5 -5.5t-34.5 -12.5q-12 -18 -26 -140.5t-22.5 -261.5t-11.5 -256.5t8 -126.5q5 -6 16 19q12 26 23 70q15 57 28 77t32 12t25 3.5t2 48.5q-3 27 -0.5 53.5t8.5 36.5q11 18 46.5 166t54.5 256z" />
    <glyph glyph-name="quotedbl" unicode="&#x22;" horiz-adv-x="1258" 
d="M872 1032l19.5 41.5t16 30.5t13.5 23t13 15.5t13.5 10t15 4.5t18 1.5t22.5 -1.5q20 -2 30.5 -3.5t23 -8.5t19 -14t18 -26t20.5 -38l26 -57q21 -45 17 -75q-5 -45 -80 -205l-41 -86l-55 -115.5t-40.5 -79t-31.5 -54t-25.5 -30t-25.5 -17t-28 -6.5q-29 -5 -51.5 -2.5
t-25.5 11.5q-8 20 -25 10q-7 -4 -22.5 16t-31.5 52q-32 67 -17 77q2 1 4 1q10 0 13 5.5t-2 14.5q-19 32 200 505zM222 1177q20 46 39.5 68.5t33.5 17.5q31 -12 73 -12q29 0 52.5 -32t47.5 -103q4 -11 20 -49q7 -17 -6.5 -68.5t-43.5 -122.5q-65 -155 -96 -260
q-15 -54 -30 -76.5t-30 -15.5q-13 5 -30.5 -3.5t-29.5 -25.5q-24 -32 -53 -24t-29 47q0 12 -9 24t-22 18q-13 5 -27 35t-20 65q-11 66 21.5 170.5t138.5 346.5z" />
    <glyph glyph-name="numbersign" unicode="#" horiz-adv-x="1653" 
d="M388 1002l32 71l105 -39q58 -21 85 -45t38.5 -65t13.5 -121q1 -36 7 -60.5t14 -24.5t13 -14.5t4 -35.5q-1 -14 1.5 -22t8.5 -14.5t22.5 -10t37.5 -6t59 -5.5l132 -9l-13 82q-6 37 -1 79t19 74q25 58 31 54q1 0 1 -2q1 -15 32 15q6 6 12 14q47 54 63 45q9 -5 -1 -32
q-6 -15 -0.5 -24.5t19.5 -9.5t23.5 7t9.5 16q0 28 36 23q42 -5 69 -40q6 -8 10 -17q11 -23 23.5 -39.5t20.5 -16.5q16 0 19 -22.5t-7.5 -52.5t-29.5 -50q-50 -50 -39.5 -87.5t79.5 -56.5q66 -18 119 -76q44 -49 29 -70q-7 -9 -25 -9q-13 0 -26 -16.5t-19 -38.5
q-8 -34 -30.5 -47t-87.5 -22l-65.5 -9.5t-44.5 -9t-29.5 -10t-15 -13.5t-8 -18.5t-1.5 -26.5q0 -34 17 -46.5t77 -21.5q85 -13 155 -33.5t107.5 -42.5t31.5 -39q-5 -13 0 -22.5t18 -9.5q30 -1 -9 -24q-16 -9 -27.5 -28.5t-11.5 -38.5q0 -18 -12 -28t-47 -15.5t-89.5 -5
t-146.5 5.5l-44 1.5t-30 -2.5t-22 -6t-15.5 -15t-14 -23.5t-15.5 -36.5q-67 -166 -84 -185q-11 -14 -29 0q-1 1 -3 2q-13 11 -21 26.5t-8 28.5q0 19 -10 27t-22 2t-18 -24q-5 -14 -18 -12t-39 19q-28 17 -39 42t-11 71q0 33 -7.5 63t-18.5 39q-22 17 -147 44.5t-135 17.5
q-7 -7 -45 -171q-21 -91 -38.5 -129.5t-39.5 -42.5q-17 -4 -27.5 -0.5t-9.5 11.5q3 19 -13 70q-10 30 -24 38.5t-44 0.5q-31 -7 -38 -0.5t0 36.5q8 29 3.5 36t-25.5 -1q-20 -8 -29 6t-15 58q-3 31 0.5 64.5t12.5 49.5q11 20 8 33t-23 23q-18 11 -29.5 59t-9.5 93.5t19 48.5
q16 3 92 9q67 6 102 32q24 17 -4 21q-7 1 -15 1q-41 0 -27.5 35t-55.5 98q-29 27 -45.5 52.5t-10.5 35.5t3.5 20.5t-12.5 16.5q-24 14 14 51q44 43 102 54q50 9 50 -5q1 -1 -1 -3q-5 -9 -1.5 -14t13.5 -5q67 0 73 290q0 34 33 106zM881 351q-11 11 -176 21q-143 9 -138 -2
l2 -1q16 -8 15 -21t-20 -40q-30 -42 -36 -68t16.5 -44.5t71 -27.5t135.5 -15q53 -4 69.5 10t39.5 81q13 40 19 71t2 36z" />
    <glyph glyph-name="dollar" unicode="$" horiz-adv-x="1466" 
d="M725 1256q20 39 40 41.5t33 -32.5q5 -13 22 -23t35 -10t40 -9.5t34.5 -22t66.5 -29t116 -25.5q193 -30 193 -69q0 -10 -14 -19q-10 -7 -24 -24.5t-24 -36.5q-11 -20 -34.5 -33t-51.5 -14q-122 -5 -142 -13q-22 -8 -21 -39q0 -8 2 -37q5 -55 21.5 -73.5t85.5 -41.5
q104 -35 167.5 -84t112.5 -132q53 -91 52.5 -139t-55.5 -99q-24 -23 -49.5 -60.5t-38 -67.5t-30.5 -51t-31 -21t-40.5 -14.5t-52.5 -34.5q-14 -10 -20.5 -15t-14.5 -15t-10.5 -14.5t-6 -19t-3.5 -23.5t1 -33t2.5 -42t5.5 -56q20 -230 18 -263q-3 -34 -23 -37q-6 -1 -44 2
q-30 2 -52 -3t-22 -14t-10 -15.5t-23.5 -6.5t-23.5 7.5t-10 17t-10 13.5t-24 -1q-33 -13 -34 25t-34 106q-21 44 -25 44t6 -87q6 -45 19.5 -87t27.5 -56q36 -37 22 -71t-64 -31q-32 2 -48 -8t-24 -36l-13 -49l-48 56q-20 24 -39.5 38.5t-28 12t-14.5 7t-7 26.5q-2 39 -7 167
q-4 100 -37.5 151t-84.5 33q-29 -10 -85 -10q-29 0 -39.5 -7.5t-4.5 -23.5q13 -36 -23 -43q-43 -8 -94 27q-10 7 -18 15q-24 22 -47 38.5t-31 16.5q-15 0 -17.5 20t6.5 49t26 51q37 49 31 76t-53 27q-24 0 -40 6.5t-16 15.5q0 61 262 81q45 4 67.5 5.5t53 6t42.5 6.5t30 9.5
t22.5 11.5t12 17.5t7.5 22v29.5t-2 36l-6 46q-19 141 -27 149t-150 30t-162 36q-8 5 -11 34.5t1.5 64.5t2.5 64t-10 33q-5 3 3.5 19.5t28.5 42t47 54.5l99 104l-14 145q-10 116 -1 130q5 9 28 1q19 -7 37 -1t30 23q18 24 37.5 25.5t76.5 -17.5q36 -12 73.5 -30.5t53.5 -32.5
q26 -23 32.5 -22t6.5 27q0 38 24 82zM768 838q0 15 -10.5 25.5t-25.5 10.5t-22.5 -7.5t-4.5 -19.5q11 -31 36 -35q23 -4 26 20q1 3 1 6zM1092 382q-11 18 -58 30q-34 9 -35 5t26 -35q29 -32 58 -30q22 1 13 23q-2 3 -4 7zM701 297q0 15 -7 31t-16 21q-22 14 -21 -6
q1 -18 22 -50q10 -16 14.5 -19.5t6 1.5t1.5 22zM701 203q0 10 -6 16.5t-15 6.5q-22 0 -35 -23q-6 -9 0 -15.5t21 -6.5t25 6.5t10 15.5z" />
    <glyph glyph-name="percent" unicode="%" horiz-adv-x="1373" 
d="M1073 150q10 11 27 20t30 9q109 2 166 -94t45 -262q-10 -141 -22 -154q-5 -6 -45.5 -10t-92.5 -5h-51.5t-37 3.5t-28 7.5t-22.5 16t-23 24l-27 37q-26 37 -44.5 73t-18.5 51q0 32 49.5 129.5t94.5 154.5zM75 1044q32 33 94.5 44t146.5 -2q65 -10 102 -72.5t53 -186.5
q9 -77 5 -107t-27 -49l-84 -74q-28 -26 -45 -29.5t-42 11.5q-42 26 -85.5 25.5t-53.5 -27.5q-9 -22 -12 3q-1 5 -1 10q-1 17 -12 45t-27 51q-26 40 -42 96.5t-15 100.5t20 51q17 6 18.5 15.5t-10.5 24.5q-24 28 17 70zM146 1043q0 10 -22 10q-10 0 -16.5 -6.5t-6.5 -17
t6.5 -13t16.5 2.5q22 14 22 24zM1009 1200q11 9 45 15.5t69 6.5q67 -1 79 -21t-15 -85q-17 -41 17 -41q26 0 38 -31t5.5 -74t-30.5 -74q-45 -55 -104 -149q-24 -39 -54.5 -70t-49.5 -35q-12 -3 -20.5 -8t-11 -9.5t0.5 -8.5q6 -6 -6 -33.5t-34.5 -61t-38 -64.5t-15.5 -42
q0 -12 -10 -28t-23.5 -27t-23.5 -29t-10 -32q0 -13 -13 -40t-31.5 -50.5t-31.5 -50t-13 -40.5t-20 -55t-48 -86.5t-47.5 -85t-20.5 -51.5q-1 -28 -43 -117q-18 -37 -30.5 -75t-13.5 -55q0 -34 -17.5 -37t-46.5 26q-15 15 -32 15t-46 -15q-78 -40 -104.5 -21t-25.5 112
q0 16 -5 27t-12 11q-26 0 -1.5 93.5t77 208.5t97.5 168q94 111 147 194.5t158 286.5q250 483 315 538zM696 164q17 17 25 32t2 20.5t-17.5 -6t-22.5 -32.5q-19 -37 -17 -39t30 25z" />
    <glyph glyph-name="ampersand" unicode="&#x26;" horiz-adv-x="737" 
d="M372.5 1155.5q11.5 50.5 64.5 50.5q34 0 46 -17.5t20 -78.5q14 -96 7 -275q-5 -138 3 -162q7 -20 35 -28l12 -3q32 -8 45.5 -25t17.5 -56q6 -57 -18.5 -83.5t-112.5 -60.5q-91 -35 -181 -103.5t-90 -102.5q0 -62 113 11q12 7 25 17q25 17 51 29.5t38 12.5t28 10.5
t27 25.5q16 22 41.5 26.5t52 -6.5t51.5 -36t39 -58q9 -23 13.5 -33.5t6 -24t0 -19.5t-10 -17.5t-18 -20l-29.5 -25.5t-29.5 -26t-20 -27t-15 -31.5t-10 -48t-9 -66.5t-9.5 -97q-12 -132 -25 -189.5t-34 -73.5q-43 -32 -72.5 -27.5t-79.5 50.5l-24 23.5t-15 21.5t-8.5 22.5
t-0.5 31.5t4 43t10 62t10.5 72t4 53.5t-3.5 36t-11 21t-19 8t-28 -3.5q-18 -5 -52.5 -2t-66.5 12q-113 31 -115 139q-2 119 124 272q81 100 200 188q23 17 23.5 31t-19.5 51q-17 31 -20 87.5t6 168.5q17 200 28.5 250.5z" />
    <glyph glyph-name="quotesingle" unicode="'" horiz-adv-x="903" 
d="M211 1274q22 5 49 4.5t40 -7.5q33 -15 190.5 -54.5t186.5 -39.5q13 0 35.5 -15t42.5 -37l49 -52l-87 -97q-37 -41 -72.5 -75.5t-50.5 -43.5q-80 -50 -133 -101t-71 -94q-26 -65 -79 -65q-22 0 -44.5 -11.5t-31.5 -28.5q-17 -30 -23 -18q-1 2 -1 6q0 12 -14 23.5t-34 18.5
q-30 9 -37 26.5t-2 64.5q4 32 3 54.5t-6 22.5q-12 0 -43 19q-19 12 -18 43t23 121q35 144 54 233q11 51 27 73t47 30zM496.5 1087q-8.5 9 -79.5 28q-21 5 -30 7.5t-20.5 1.5t-15 -4t-10 -15.5t-9.5 -24.5l-10 -40l-35 -133q-5 -17 -2.5 -28t11.5 -11q17 0 113 105t87.5 114z
" />
    <glyph glyph-name="parenleft" unicode="(" horiz-adv-x="550" 
d="M255 1223q21 16 30.5 21.5t23 2.5t24.5 -13t36 -37q51 -54 36 -101q-6 -21 -3.5 -34.5t12 -13.5t12 -10.5t-3.5 -25.5q-7 -20 -14 -22t-16 13q-16 26 -59 -59q-62 -118 -101 -275q-20 -80 -20 -126q0 -24 -6.5 -44.5t-15.5 -26.5q-13 -8 -14.5 -68.5t6 -135.5t22 -150
t31.5 -108q18 -34 64.5 -88.5t93.5 -96.5q101 -90 123 -175q17 -67 -29 -83q-29 -10 -76 5q-17 6 -40 1.5t-37 -15.5q-18 -16 -31 -17t-26 12q-10 10 -26 13.5t-30 -0.5q-31 -12 -18 26q6 14 0 37t-19 38q-13 16 -31 50.5t-30 67.5l-60 167q-30 80 -33 323.5t24 395.5
q37 205 92.5 358t108.5 194z" />
    <glyph glyph-name="parenright" unicode=")" horiz-adv-x="579" 
d="M105 1263q19 23 32.5 28t33 -4.5t60.5 -40.5q76 -59 117.5 -115t103.5 -184q84 -175 95.5 -366t-50.5 -356q-16 -41 11 -24q27 16 24 -9q-4 -35 -67 -159q-27 -54 -47 -108t-20 -73q0 -42 -34 -57t-68 13q-13 11 -36 14.5t-43 -3.5q-33 -9 -64 -5.5t-50 18.5t-12 34
q4 12 0 23t-14 14q-10 4 -13 16.5t1.5 27.5t12.5 29t19.5 23t22.5 7q26 -5 57.5 41t82.5 166q86 203 43 203q-8 0 -20 -15t-20 -35q-8 -22 -10 10q-3 37 4 134q3 57 4.5 82.5t-0.5 60.5t-4.5 49.5t-14.5 47t-23.5 55l-36.5 72.5q-36 71 -69.5 121t-44.5 50t-21.5 26
t-14.5 64q-9 91 18 91q11 0 27.5 10t27.5 24zM323 457q5 12 4 24.5t-6 18.5q-7 7 -10 -10q-2 -8 -1 -19q1 -26 6 -25q3 1 7 11z" />
    <glyph glyph-name="asterisk" unicode="*" horiz-adv-x="954" 
d="M541 1187q21 37 35 46t30 -5q15 -12 29 -11.5t32 15.5q22 17 28 12t6 -40t9.5 -43t45.5 -2l54 10l-43 -114q-19 -49 -27.5 -77.5t-12.5 -53t4 -41.5t20.5 -32t38.5 -37q29 -24 48 -47t19 -33t11.5 -24.5t27.5 -26.5q16 -11 22 -17t6 -19t-6 -27t-21 -46
q-31 -63 -60.5 -73.5t-79.5 23.5q-45 30 -94 46q-35 11 -40 1.5t4 -65.5q13 -79 -12 -79q-11 0 -18.5 -13t-7.5 -32q0 -45 -45 -45q-18 0 -31 6.5t-13 15.5t-16.5 31t-39.5 46q-56 56 -56 123q0 64 -38 86t-130 11q-29 -3 -44 -3.5t-27.5 0.5t-18.5 8t-10 16t-8 27
q-6 24 -20.5 41t-27.5 17q-14 0 -24 13.5t-10 31.5t6 31.5t14 13.5q9 0 18 13.5t14.5 33.5t15.5 29t20 3t17 -2.5t7 13.5q0 11 10 14.5t23 -1.5q46 -18 49 40q2 36 -14 94q-25 90 -0.5 116.5t91.5 -19.5q26 -19 51.5 -29t34.5 -5q21 13 35 -10q20 -32 55 -18.5t64 63.5z" />
    <glyph glyph-name="plus" unicode="+" horiz-adv-x="1097" 
d="M486 872q46 8 67 -3.5t28 -53t-3 -119.5q-13 -144 13 -144q11 0 18.5 -10.5t7.5 -25.5q0 -22 14.5 -26.5t58.5 4.5q74 15 135 15q33 0 44 7t4 26q-5 13 -1 22.5t15 9.5q10 0 21.5 -10t16.5 -23.5t18 -23.5t26 -10q31 0 29 -19q-3 -24 -49 -55q-33 -21 -37 -36.5t13 -52.5
q30 -68 -2 -93t-153 -26q-154 -2 -221.5 -45.5t-81.5 -151.5q-6 -44 -17 -76t-19.5 -32t-34 13.5t-52.5 32.5q-42 30 -54 56.5t-12 90.5q0 54 -7 77t-24 23q-13 0 -47 24.5t-68 57.5q-48 46 -63 74t-7 55q13 49 13 89q0 23 10 29t35 -2q19 -5 32.5 -1.5t13.5 13.5
q0 15 25 20t56.5 -1t46.5 -21q54 -55 80 68q4 19 7 42q14 112 37.5 158t67.5 54z" />
    <glyph glyph-name="comma" unicode="," horiz-adv-x="649" 
d="M485 -277q66 62 65 40q0 -13 -29 -57q-36 -56 -93 -92.5t-90 -24.5q-26 10 -31.5 23t10 25t48.5 19q26 6 61.5 25.5t58.5 41.5zM319 247q17 13 35.5 16.5t26.5 -4.5q27 -26 40 -131.5t-4 -151.5q-32 -84 -13 -90q8 -3 25 3q17 7 25.5 -1t8.5 -31q0 -22 -47 -78
t-103.5 -104.5t-80.5 -50.5q-133 -12 -153 -7q-19 4 -20 28q0 6 2 36q3 57 34.5 103t66.5 46q13 0 36.5 24.5t45.5 59.5q30 51 39 90t3.5 103.5t1 92.5t31.5 47z" />
    <glyph glyph-name="hyphen" unicode="-" horiz-adv-x="904" 
d="M681 326q-6 9 4 16t28.5 7t32.5 -7t14 -16t-10 -15.5t-23.5 -6.5t-27 6.5t-18.5 15.5zM602 633q84 30 99 27q12 -4 21 -29q6 -15 18.5 -21t28.5 0q34 13 36 -12q3 -28 -33 -60q-8 -8 -17 -14q-32 -22 -36.5 -34.5t13.5 -30.5q30 -31 27 -46t-42 -26q-19 -4 -35 0.5
t-21 15.5q-6 16 -77.5 19t-149 -7t-99 -27.5t-57 -21t-72.5 6t-70.5 26.5t-54.5 41.5t-21 50.5q0 30 82 56t223 40q66 7 135 20t102 26z" />
    <glyph glyph-name="period" unicode="." horiz-adv-x="541" 
d="M116 214q26 27 54.5 47t41.5 20q21 0 77 -49.5t97.5 -102t26.5 -58.5q-28 -11 6 -36q29 -21 17 -24q-4 -1 -13 -1q-19 0 -19 -7t19 -31q24 -31 17 -31q-5 -1 -23 6q-36 14 -77 -63q-17 -32 -32.5 -55t-21.5 -23q-13 -1 -72 -9q-37 -5 -55 8.5t-42 62.5q-16 32 -31.5 85.5
t-20.5 93.5q-9 66 0 95t51 72z" />
    <glyph glyph-name="slash" unicode="/" horiz-adv-x="868" 
d="M573 1197q10 17 30.5 26t37 4t16.5 -21q0 -9 16.5 -30t38.5 -40q32 -27 39.5 -47.5t-4.5 -50.5q-21 -51 7 -80q16 -18 13.5 -21t-26.5 5q-18 7 -28.5 2.5t-10.5 -19.5q0 -12 8 -24t19 -15q27 -9 9 -39q-11 -18 -19 -17.5t-22 19.5q-15 20 -15 6q0 -8 5 -29
q5 -22 -10.5 -92t-41.5 -146q-98 -279 -163 -506t-57 -266q7 -41 -7 -40q-3 0 -5 2q-13 8 -12 -11q1 -10 6 -28q13 -40 -11.5 -65.5t-56.5 -5.5q-9 6 -42 10.5t-70 4.5q-58 0 -76 9.5t-23 42.5q-3 22 -14.5 40.5t-24.5 23.5q-21 8 -20 22t23 56q15 27 30.5 46t22.5 19
q19 0 45 65t49 170q24 111 39 136q20 31 46 111t26 112q1 38 68 249q28 87 48 170.5t20 113.5q0 72 40 85q16 6 32.5 18.5t24.5 24.5z" />
    <glyph glyph-name="zero" unicode="0" horiz-adv-x="1096" 
d="M453 1281q63 17 96.5 5.5t77.5 -64.5q94 -111 153.5 -320.5t74.5 -480.5q10 -196 21 -227q9 -24 33 -26h13q22 0 37.5 -6.5t15.5 -15.5t-10.5 -16t-24 -7t-23.5 -6t-10 -14q0 -29 39.5 -49.5t73.5 -9.5q43 14 46 -5q3 -18 -32 -39q-12 -7 -26 -13q-23 -9 -56 -15.5
t-54 -6.5q-35 0 -46 -20t-21 -100q-6 -48 -24 -123t-36 -129q-48 -139 -35 -162q7 -12 33 32q2 3 3 6q33 59 60.5 151t28.5 146q0 26 8 45t18 19q19 0 19.5 -71t-16 -161.5t-40.5 -140.5q-24 -47 -47.5 -70.5t-53.5 -27.5q-24 -3 -51.5 -15t-43.5 -27q-38 -33 -96.5 -17
t-144.5 84l-156 122q-50 39 -83.5 124t-33.5 173q0 30 -15.5 67.5t-41.5 67.5q-50 61 -53 100t42 62q18 10 33.5 37.5t19.5 57.5q36 251 60 375t61 241q23 75 46 135.5t32 71.5q8 10 12.5 24t2.5 22q-5 17 16.5 68.5t51.5 98t46 50.5zM492 772q-39 73 -48 73
q-17 0 -30.5 -40t-16.5 -98q-5 -81 -19 -129q-9 -29 -4.5 -36t26.5 2q24 9 27 4t-11 -32q-9 -18 -16.5 -57t-9.5 -76q-4 -91 -7 -125q-6 -72 9.5 -92t76.5 -20h84l-12 276q-6 149 -17.5 229.5t-31.5 120.5zM523 -123q0 66 -15 77.5t-80 -5.5q-33 -9 -37.5 -59t21.5 -119
q17 -44 26 -47t41 27q44 40 44 126z" />
    <glyph glyph-name="one" unicode="1" horiz-adv-x="1119" 
d="M579 1190q13 35 23.5 54.5t22.5 33t29 16t37 0.5t53 -11q31 -9 36 -21.5t-8 -46.5q-22 -54 1 -54q9 0 15.5 7.5t6.5 17.5q0 14 7 14t24 -14q12 -10 26 -12.5t20 3.5q13 12 13 -12q0 -37 -29 -189q-12 -61 -20 -139t-8 -125q1 -115 -26 -115q-26 0 -43 -27.5t-23 -78.5
q-16 -146 -20 -378q-1 -82 3 -62q15 65 27 51q19 -24 17 -220l-1 -222l131 -41q115 -36 129 -77q10 -28 -41 -42q-3 -1 -5 -2q-19 -5 -32 -14t-13 -18q0 -12 9 -16.5t22.5 0.5t27.5 19q22 22 66 -12q14 -10 19 -14t10 -10.5t4.5 -8.5t-5 -8t-10 -9.5l-19.5 -12.5
q-34 -22 -55 -27.5t-80 -8.5q-29 -1 -31 -6t19 -21q23 -17 9 -17q-10 0 -43 8q-72 16 -283.5 11.5t-246.5 -22.5q-51 -28 -133 -5t-127 77q-53 62 -54 94t48 66q35 24 36 31q0 4 -12 6h-14q-17 1 -26.5 10t-5.5 21q7 20 148 21t210 -19q15 -5 31 -1t22 13q6 10 16.5 112
t19.5 234l35 497q15 185 -5 218q-14 23 -56 0q-28 -16 -43.5 -13t-34.5 28q-25 33 -28 62t15 70t66 116q35 54 73 125.5t54 115.5zM698 -243q5 12 4.5 25t-6.5 18q-7 8 -10 -9q-2 -9 -1 -20q1 -26 7 -25q3 1 6 11z" />
    <glyph glyph-name="two" unicode="2" horiz-adv-x="1347" 
d="M698 1234q112 57 158 68.5t122 2.5q159 -20 220.5 -76.5t63.5 -184.5q2 -79 11 -74q1 1 2 4q15 35 30 28q17 -8 10 -51q-1 -5 -2 -11q-16 -66 -51.5 -134t-73.5 -105q-45 -43 -21 -58q11 -6 -23 -60.5t-108 -147.5l-177 -213q-151 -176 -240 -295t-77 -131
q13 -14 124.5 -14.5t180.5 12.5q41 7 69 21t28 26q0 24 51.5 30.5t113.5 -7t88 -39.5l47 -47l-50 -19q-20 -8 -30.5 -20t-5.5 -21q6 -8 19.5 -11t24.5 2q15 6 21 -1.5t3 -27.5l-9 -53q-3 -23 -84.5 -46.5t-138.5 -19.5q-81 6 -296 -63.5t-348 -144.5q-49 -28 -75 -39
t-52.5 -9t-46.5 16.5t-53 47.5q-33 32 -59.5 67t-31.5 51q-7 23 9.5 92.5t42.5 132t43 68.5q27 9 13 -32q-10 -27 -7 -27q8 0 168 206l133 171q231 296 314 416.5t83 156.5q0 12 19.5 51t46.5 81q65 103 80 152q10 33 -2.5 40.5t-76.5 7.5q-53 0 -95 -15.5t-98 -55.5
q-41 -29 -70.5 -55t-29.5 -33t-31 -29.5t-75 -47.5l-45 -25.5t-31.5 -14.5t-23.5 -7.5t-18.5 3.5t-20.5 9l-24 18q-27 20 -43.5 49t-18.5 60q-3 40 21 74t105 104q55 47 142 104.5t156 92.5z" />
    <glyph glyph-name="three" unicode="3" horiz-adv-x="1231" 
d="M362 -344q-27 10 8 13h5q32 2 32 -7q0 -2 -2 -4q-6 -5 -18.5 -6t-24.5 4zM60 -299q-6 6 10 10q19 6 56 6q34 0 58 -4.5t24 -11.5q0 -15 -66.5 -15t-81.5 15zM901 1260q9 10 25.5 4.5t32.5 -17.5t27.5 -30t11.5 -33q0 -19 10.5 -32.5t24.5 -13.5q19 0 23.5 -11t-3.5 -38
q-14 -46 -104.5 -206t-125.5 -200q-39 -45 -9 -82.5t148 -91.5q124 -56 181.5 -127.5t57.5 -168.5v-143q0 -26 -10.5 -66t-25.5 -68q-23 -45 -107.5 -135t-176 -169t-131.5 -95q-29 -12 -44 -26.5t-9 -25t3.5 -13t-12.5 3.5t-41.5 0t-65.5 -20q-36 -15 -77.5 -21t-67.5 0
q-25 5 -66.5 -1t-75.5 -21l-46 -19.5t-33 -9t-26.5 -2.5t-24 10.5t-28 19l-36.5 33.5q-46 42 -61 65.5t-3.5 36t53.5 18.5l63 10l-54 18q-30 10 -30 16q1 8 86 31q145 39 156 27q7 -8 -20 -38q-28 -31 -25.5 -38.5t40.5 -14.5q30 -6 68.5 9.5t62 40t12.5 41.5
q-6 10 9.5 20.5t44.5 16t46.5 15t15.5 17.5t27.5 42t73.5 73t76 74.5t32 45t16.5 38.5t39.5 60q57 74 55 128.5t-62 82.5q-66 31 -223 43q-133 10 -135 -11q0 -2 1 -4q21 -33 -6 -31q-37 2 -96 49q-22 17 -39 36q-138 156 -3 212q29 11 45 25t10.5 22.5t13.5 34t51 53.5
q46 40 121 158t75 149.5t-130 -20.5q-60 -24 -134 -62l-176 -89l-64 68q-49 52 -55 88.5t29 72.5t124 85q41 23 61.5 33.5t51.5 22t48.5 15.5t59 8t76 4.5t106.5 2.5q105 1 184 6t83 9zM1086.5 383.5q4.5 4.5 -4 19t-25.5 30.5q-29 29 -30.5 27.5t19.5 -37.5q12 -20 24 -32
t16.5 -7.5zM653 -252q7 8 -10 11q-8 1 -19 1q-26 -2 -25 -7q1 -3 11 -7q12 -4 25 -3.5t18 5.5zM507 -547q18 7 -6 10q-9 1 -22 1q-38 0 -35 -7q1 -2 7 -4q28 -11 56 0z" />
    <glyph glyph-name="four" unicode="4" horiz-adv-x="1275" 
d="M711 1238q18 30 25.5 31t26.5 -26q11 -15 33 -26t41 -11q30 0 38 -18t7 -88q-1 -46 6 -78.5t18 -35.5q27 -9 25 -87t-32 -135q-14 -27 -24 -69.5t-10 -75.5q0 -32 -9.5 -95t-22.5 -119q-33 -138 -15 -156q11 -11 42 6q16 7 35 10.5t30 -0.5t23 7t18 32q10 28 27.5 36
t59.5 4q71 -7 71 -40q0 -16 15.5 -25t41.5 -9q56 0 63 -40q4 -20 -3 -26.5t-24 0.5q-13 5 -25 -2t-18.5 -21t-9.5 -30t2 -31.5t17 -24.5q19 -13 19.5 -19.5t-15.5 -13.5q-12 -4 -20.5 -16.5t-8.5 -24.5q0 -31 -37.5 -42.5t-75.5 8.5q-17 10 -58 17t-81 7q-69 1 -71 9
q-1 4 17 12q1 0 2 1q30 13 30 17q-1 4 -24 4q-15 1 -33.5 -12t-28.5 -32q-14 -27 -16 -68t9 -69.5t29 -24.5q11 3 16 -4t1 -19t6 -35.5t29 -43.5q31 -35 32.5 -50.5t-23.5 -54.5q-23 -35 -23.5 -47.5t20.5 -20.5q25 -9 32 -29t-6 -36.5t-39 -16.5q-20 0 -29.5 -6.5
t-3.5 -15.5q19 -32 -11 -38q-34 -6 -76 23q-12 9 -21 19q-68 75 -85.5 119t-0.5 91q16 41 21 109.5t-2.5 120.5t-23.5 52q-28 0 6 24q22 15 13 15q-7 1 -35 -7q-57 -16 -68 -33q-5 -7 -51 -30t-107 -48l-171 -71q-13 -6 -60 31t-88.5 83t-41.5 63q0 20 33 84
q13 25 19.5 47.5t2 27.5t12.5 23.5t46 38.5q99 70 274 506q46 115 111.5 253.5t65.5 158t45 76t47 22.5q0 -28 15 -8q4 6 10 17zM691 286.5q5 30.5 4 98t-7 133.5l-15 158l-105 -172q-121 -199 -123 -243q5 -23 30 -25q25 0 26 -4.5t-20 -20.5q-24 -18 4 -17q16 0 53 6
q90 13 116 13q11 0 21.5 21.5t15.5 52zM387 417q22 37 10 44q-2 1 -4 1q-15 0 -32.5 -36t-7.5 -46q2 -2 7 2.5t12 13.5t15 21z" />
    <glyph glyph-name="five" unicode="5" horiz-adv-x="1293" 
d="M157 1206q17 33 64 43q41 9 48 -13q1 -4 1 -7q0 -9 77.5 -14.5t194.5 -4.5q112 0 196 -3.5t89 -9.5q6 -6 -2.5 -23t-26.5 -38q-31 -34 -31.5 -44.5t26.5 -30.5q39 -28 38 -43t-42 -15q-19 0 -32 -6.5t-13 -15.5q0 -10 -50.5 -16.5t-130.5 -6.5h-180v-146q0 -59 -7 -106
t-16 -53q-45 -28 41 -55q35 -12 97 -24q57 -12 107 -30t63 -32q13 -13 33 -19t34 0q32 9 69.5 5.5t66 -19.5t21.5 -33q-6 -16 -2 -22.5t16 -1.5q18 6 44.5 -2t43 -22.5t9.5 -26.5q-4 -7 20.5 -37.5t63.5 -65.5q90 -81 146 -189q48 -91 21 -110q-6 -4 -14 -4q-9 0 -15.5 -19
t-6.5 -44q0 -59 -55 -147.5t-136.5 -166.5t-154.5 -108l-169 -70q-30 -13 -73.5 -22.5t-72.5 -9.5q-31 0 -68 -8.5t-61 -21.5q-37 -20 -64.5 -16.5t-93.5 36.5q-42 21 -80.5 50t-50.5 49q-20 34 -14 45.5t54 29.5q28 11 48 23.5t20 20t13.5 13t32 5.5t32 7t13.5 17t-12.5 13
t-30.5 -3q-43 -14 -56 22q-11 30 10 40q28 14 213 21h1h1h1h1h1h1h1h1h1h2q113 4 179.5 22t117.5 59t112 125q44 61 49.5 83t-15.5 54q-41 64 -137.5 121.5t-172.5 63.5q-57 6 -107 -6t-127 -50l-136 -65l-78 77q-25 25 -37 40t-22.5 32t-14 42.5t-6 53.5t-4.5 84
q-7 174 -32 406q-14 118 -12 184t18.5 90t54.5 24q12 0 28 13.5t26 31.5zM602 -342q7 8 -10 11q-8 1 -20 0q-26 -1 -24 -6q1 -3 11 -7q12 -5 24.5 -4t18.5 6zM479 -367q16 7 -9 10q-12 2 -31 2q-40 0 -39 -6q0 -3 11 -6q39 -11 68 0zM428 -419q0 11 -6 17t-16 6
q-21 0 -34 -23q-6 -9 0 -15.5t21 -6.5t25 6.5t10 15.5zM676 1251q37 25 42 20q3 -3 3 -20q0 -9 -11 -15.5t-28 -6.5q-18 0 -23.5 1.5t-1.5 6t19 14.5z" />
    <glyph glyph-name="six" unicode="6" horiz-adv-x="1068" 
d="M494 1224q88 77 106 66q12 -8 4 -61q-5 -31 1 -56.5t20 -37.5q24 -19 25 -39.5t-20 -57t-80 -114.5q-101 -135 -180 -255q-32 -49 -62 -80.5t-38 -25.5q-13 8 -12 -5q0 -8 5 -20q10 -27 1 -27q-4 0 -14 6q-25 16 -36 -14q-13 -36 11 -77q1 -1 2 -3q18 -28 20 -28.5
t-8 31.5q-1 1 -1 2q-10 30 -4 31q3 0 14 -11q20 -20 10.5 -81t-56.5 -215q-25 -79 -24.5 -192t25.5 -173q28 -68 50 -67q18 0 18 44t65 143t143.5 180t113.5 81q14 0 26.5 5t15.5 11q13 29 94.5 63t137.5 34q50 0 65.5 -8.5t15.5 -37.5q0 -19 10 -36.5t24 -22.5
q28 -11 33 -43q5 -28 -17 -32q-3 -1 -5 -1q-10 0 -16.5 -5.5t-6.5 -15.5q0 -9 10.5 -11.5t24 2.5t23.5 0.5t10 -15.5t-14 -22.5t-32 -16.5q-46 -13 -34 -45.5t12 -42.5t23 3q28 18 25 -9q-6 -52 -93 -183q-27 -40 -57 -79q-13 -17 -23 -38t-10 -32q0 -32 -86 -113.5
t-160 -119.5q-83 -42 -151 -42.5t-156 39.5q-86 40 -149.5 104t-87.5 137q-13 40 -14.5 166.5t6.5 259.5t23.5 242.5t32.5 120.5q8 5 14 24t6 41t6 40t14 21q17 6 84 157.5t100 256.5q35 113 73 177.5t104 122.5zM777 -116q-10 44 -21 50q-14 8 -76 -25l-48 -27
q-49 -27 -100 -76.5t-78 -94t-12 -58.5q7 -7 14 -4.5t10 13t25 14.5t51 -1q38 -5 80.5 14t71 52.5t28.5 67.5q0 17 7.5 33.5t17.5 23.5q25 16 9 -39q-11 -39 -4 -39q4 0 14 10q12 11 15 35t-4 51zM857.5 -238q11.5 20 16 38t0 22.5t-16 -6.5t-22.5 -31.5t-15.5 -38.5
t0 -22.5t15.5 7t22.5 31.5z" />
    <glyph glyph-name="seven" unicode="7" 
d="M1100 55q-6 10 -3 16.5t13 6.5t17 -6.5t7 -16.5q0 -22 -10.5 -22t-23.5 22zM1027 1290q31 31 50 28q13 -2 1 -22q-6 -9 -5.5 -23t6.5 -24q9 -14 16 -13.5t17 15.5q22 36 42 14q25 -26 15 -84q-1 -2 -1 -4q-11 -55 -6 -56q4 -1 23 23q1 1 3 4q15 18 29 24.5t21 1.5
t5.5 -20.5t-14.5 -35.5q-15 -24 -14.5 -38t16.5 -30q15 -15 11 -29t-29 -35q-36 -29 -231.5 -320.5t-214.5 -343.5q-8 -23 -0.5 -32t36.5 -9q20 0 43.5 8t34.5 19q24 22 27 6q0 -16 14 2q3 4 6 9q9 14 25 24.5t31.5 12.5t22.5 -2.5t1 -13.5q-5 -8 1.5 -14t21.5 -6t25 -6.5
t10 -16t11 -16t28 -6.5q40 0 74 -21q22 -15 21.5 -25t-26 -35.5t-38.5 -26.5t-39 20q-28 23 -31 13q-2 -8 5 -49q14 -81 -5.5 -131t-67.5 -53q-346 -27 -400 -39q-48 -10 -61 -34q-3 -5 -10 -23q-23 -59 -60 -194q-25 -91 -62 -175.5t-61 -105.5q-14 -12 -28 -51
q-9 -22 -29.5 -32.5t-38 -3t-17.5 28.5q0 14 -12 26.5t-29 17.5q-40 13 -46 87q-3 50 13 106t70 181q16 37 19 39q1 1 1 -3q0 -7 -6 -47q-5 -35 0 -34q8 1 46 79q19 36 29.5 59.5t17 42.5t7 29.5t-4.5 17.5t-14 10t-26 4q-48 3 -110 71.5t-75 130.5q-7 36 1.5 66t37.5 65
l22 27.5t19 16.5t19 9.5t25.5 0.5t34 -4t49.5 -11q64 -14 105 -20t71 -4.5t45.5 14.5t22 34.5t6.5 56.5q0 15 17.5 50.5t42.5 71t44 75.5t21.5 61t18.5 60.5t36 72.5q48 83 23 98q-31 19 -182.5 -1t-272.5 -60l-73.5 -22.5t-52 -9t-40 2.5t-30.5 20t-28.5 35t-31.5 56
q-22 42 -27 58.5t-0.5 29t25.5 36.5q57 63 228 83l271 29l152 17.5t107 15.5t77 16t52 20t42.5 26t38.5 37zM829 1119q12 12 -16 17q-53 9 -118 -7q-24 -6 -35 -14q-15 -9 -18.5 -14t3 -7t26.5 -3q122 -7 158 28z" />
    <glyph glyph-name="eight" unicode="8" horiz-adv-x="1256" 
d="M730 -665q79 14 84 17q4 2 5 -7q1 -4 1 -12q0 -15 -28 -26.5t-59.5 -12.5t-52.5 9q-25 16 27 28q10 2 23 4zM168 967q37 47 79 58q31 8 31 -17q-1 -13 -49 -59.5t-81 -66.5q-28 -17 -26 4q3 26 46 81zM536 1094q54 12 101.5 -2.5t47.5 -43.5q0 -9 9 -15.5t22.5 -6.5
t25.5 -8t17 -21q4 -10 9 -13t11 1t15 17q16 22 22.5 21t15.5 -27q6 -15 16 -23t17 -3.5t24 3.5t33 -7q21 -8 26.5 -26t-1 -53.5t-2 -49.5t22.5 -14q13 0 23 -10.5t10 -24t7 -23.5t17 -10q12 0 15.5 -9.5t-2 -38t-20 -74l-41.5 -124.5q-14 -42 -20.5 -60t-11.5 -42t-5 -32.5
t3.5 -26.5t9 -29l17.5 -35q42 -82 101 -161q75 -102 106.5 -182.5t42.5 -198.5q4 -50 5 -74.5t0.5 -47.5t-9 -38t-18 -29t-30.5 -37q-30 -34 -104.5 -74t-142 -61t-79.5 -5q-6 8 -42.5 9.5t-76.5 -2.5t-73 -12.5t-33 -16.5q0 -9 -14 -15t-32 -6q-12 0 -21 3t-12.5 7.5
t-0.5 10.5q7 10 -27 27q-60 29 -121 33q-19 1 -29 -3q-12 -4 -34.5 7t-44.5 31q-52 49 -68 24t-48 -3q-23 17 -13 21q16 0 -19 34q-6 5 -12 11q-52 45 -70 45q-9 0 -12 27.5t-0.5 69t8 86.5t15.5 86t20 61q14 27 38 60.5t43 54.5q20 20 34 41t14 29t29.5 35t71.5 57
q58 41 79 69t18 59q-1 22 -15 42.5t-30 25.5q-17 5 -29 16.5t-12 22.5q-1 31 -59 80.5t-128 78.5q-62 26 -88.5 74t-13.5 112q10 49 48 65.5t70 -15.5q36 -36 9 -45q-21 -7 -10 -33q15 -27 39 -30q11 0 13.5 6t-4.5 16q-12 22 16.5 75.5t92.5 127.5q66 77 114.5 110.5
t113.5 48.5zM617 935q0 10 -27 16.5t-66 6.5q-71 0 -131 -45t-82 -115q-5 -18 4.5 -44.5t29.5 -53t47.5 -54.5t57 -48.5t57.5 -35.5t50 -15.5t34 12.5q26 30 71 150.5t45 158.5q0 30 -17.5 41.5t-54.5 6.5q-8 -2 -13 3.5t-5 15.5zM828 62q-20 40 -39 51.5t-45 -0.5t-71 -53
q-67 -61 -119 -95q-22 -14 -38.5 -41t-19.5 -50q-5 -58 -24.5 -87.5t12.5 -49.5q26 -17 -5 -20q-8 -1 -20 -1q-38 -1 -40 -6q-2 -3 11 -11l13 -8q41 -24 194 2q97 16 134.5 33.5t69.5 60.5q41 54 38 118t-51 157zM436 -213q0 21 -16 20q-21 -1 -34 -29q-2 -4 -3 -7
q-19 -50 -10 -51q7 0 30 18q13 12 23 26.5t10 22.5zM145 -267q25 24 1 38q-9 6 -20.5 2.5t-18.5 -13.5q-15 -26 1 -37.5t37 10.5z" />
    <glyph glyph-name="nine" unicode="9" horiz-adv-x="1070" 
d="M372 1205q21 8 75.5 13t109.5 4q188 -2 302 -129t163 -388q19 -97 17.5 -176t-24.5 -255q-33 -247 -111 -524t-142 -374q-48 -71 -72.5 -70.5t-35.5 72.5l-9 57l-31 -63l-32 -64l-28 52q-18 34 -26 31q-3 -1 -3 -7q-1 -12 -7 -20t-15 -8q-55 0 -14 184q16 73 49 181
q34 115 59.5 229.5t27.5 161.5q5 113 23 212q14 78 6 86q-6 6 -31 -5q-18 -7 -76.5 -14.5t-124.5 -9.5q-141 -5 -196 25t-54 112q1 32 -6 48.5t-20 13.5q-12 -2 -20.5 2t-8.5 12.5t-11.5 13.5t-28.5 4q-31 -3 -42 34t0.5 99.5t43.5 131.5q44 96 136.5 200t156.5 128z
M614 834q0 35 -59 28q-66 -9 -118 -51q-26 -21 -34 -43q-15 -36 15 -41q33 -6 81 31q22 17 47 29.5t37 12.5t21.5 10t9.5 24z" />
    <glyph glyph-name="colon" unicode=":" horiz-adv-x="736" 
d="M211 -299.5q61 31.5 134 19t128 -63.5q38 -35 47.5 -65t5.5 -107q-2 -49 -8.5 -87.5t-13 -45t-46.5 -14.5t-89 -13q-47 -4 -68 -5t-43 6.5t-35.5 19.5t-39.5 40q-58 64 -78 142t14 111q31 31 92 62.5zM207 1183q44 27 81 34.5t88 -0.5q66 -10 129 -53.5t63 -79.5
q0 -25 36 -92q26 -49 32.5 -161.5t-14.5 -147.5q-5 -9 -26 -13t-43 0q-55 10 -78 -32q-24 -44 -69.5 -38.5t-133.5 61.5q-57 36 -88.5 74t-55.5 101q-43 111 -39 128q2 7 -3 12t-15 5q-28 0 9 63q43 74 103 122q12 11 24 17z" />
    <glyph glyph-name="semicolon" unicode=";" horiz-adv-x="556" 
d="M212 78l21.5 24.5t17.5 12t17 3.5t20.5 -10.5t26 -21l36.5 -35.5q29 -28 40.5 -41.5t18.5 -37t5.5 -46t-6.5 -72.5q-15 -126 -46 -234q-25 -87 -87 -209.5t-81 -122.5q-25 0 -80 56t-55 82q0 15 13 41t32 48t43 74t39 103q23 76 25.5 121t-13.5 111q-17 70 -14.5 97.5
t27.5 56.5zM175 1171q48 54 74 67t71 4q64 -13 94 -52t30 -110q0 -72 11 -103q5 -12 -10 -43t-41 -62q-31 -37 -47 -49.5t-33.5 -12t-54.5 13.5q-31 10 -52.5 24.5t-21.5 24.5t-10 24.5t-23 24.5q-14 10 -28 38t-20 57q-8 43 3.5 72.5t57.5 81.5z" />
    <glyph glyph-name="less" unicode="&#x3c;" horiz-adv-x="1286" 
d="M774 1148q27 30 41 18q14 -13 -6 -45q-4 -8 -11 -16q-30 -36 -15 -35q19 2 67 53l4 4l55 59l78 -86q41 -46 55 -73.5t3 -45.5q-19 -34 -200 -260q-75 -93 -137 -177.5t-73 -110.5q-12 -25 -26 -43.5t-22.5 -18.5t-31 -17.5t-46.5 -43.5l-56 -61l59 -46q58 -46 251 -158
q80 -46 136.5 -84t56.5 -45.5t12 -13t29 -5.5q42 -1 84 -37.5t78 -102.5l17 -32.5t9 -23t4 -17.5t-6 -15t-12.5 -17.5l-22.5 -21.5q-52 -51 -67.5 -26t-49.5 -23q-18 -24 -27 -30t-19.5 -2t-34.5 25q-125 104 -176 72q-39 -24 -54 -17.5t-6 43.5q10 37 -13 59t-106 54
q-76 30 -177.5 98.5t-176.5 141.5q-81 79 -94 75q-7 -1 21 -36q18 -22 18 -33t-20 -23q-54 -34 -78 -7.5t-27 124.5q-4 109 20 154t90 53q61 8 76 22q6 7 19 7.5t27 -4.5q23 -9 87 48.5t114.5 129t41.5 96.5q-6 16 0 25t23 9q15 0 25.5 9t10.5 22t15.5 41t38 55t38.5 55.5
t18 42.5q21 203 69 258z" />
    <glyph glyph-name="equal" unicode="=" horiz-adv-x="1069" 
d="M924 336q0 10 6.5 17t15.5 7q23 0 23 -10t-23 -24q-9 -5 -15.5 -2.5t-6.5 12.5zM421 512q179 20 312 18q30 -1 44 -1t32 -2t24.5 -2.5t15.5 -5.5t11 -8t5.5 -12t3.5 -16t1 -23q5 -67 13 -100q4 -20 -38 -39.5t-114.5 -34.5t-166.5 -26.5t-194 -14.5t-197 1
q-61 4 -92 46.5t-16 100.5q8 34 41 54t104.5 34.5t210.5 30.5zM544 1052q100 17 134 10q137 -27 144 -47q2 -5 -2 -11q-15 -25 -17 -94t-35.5 -70.5t-56 -15t-134.5 -18.5q-47 -2 -99.5 -15.5t-81.5 -31.5q-68 -40 -96 -41q-16 -1 20 23q24 15 -19 19q-21 2 -61 2
q-106 0 -149 28.5t-28 88.5q10 41 55 68t142.5 51.5t283.5 53.5z" />
    <glyph glyph-name="greater" unicode="&#x3e;" horiz-adv-x="1279" 
d="M363 1211q83 6 128 -30t191.5 -135t227.5 -161q34 -26 64 -44t38 -18q22 0 94.5 -64t72.5 -83q0 -9 -13.5 -24t-31.5 -27q-45 -28 -45 -95q0 -40 -45 -99t-183 -200q-208 -210 -213 -204q7 15 2 18t-24 -4q-15 -7 -22 -21t-1 -28q7 -19 -18.5 -59.5t-61 -69t-50.5 -18.5
q-10 6 -12.5 4t3.5 -13q9 -15 -5 -44.5t-37 -49.5t-37 -11q-10 6 -13 3t3 -13t-5 -40t-32 -62q-50 -78 -73 -117q-9 -15 -14 -20.5t-17.5 -4.5t-26.5 8.5t-46 26.5q-67 40 -85.5 69t-16.5 91q2 30 14.5 45t40.5 19q22 3 41 16.5t25 29.5q22 57 219 260q59 61 108 124.5
t169 236.5l119 171l-73 69q-30 28 -98 72t-132 77q-95 49 -134 59.5t-64 -4.5q-23 -14 -31.5 -13t-8.5 18q0 12 7.5 28t17.5 26q13 13 8 42t-29 81q-30 66 -32 88.5t21 48.5q14 15 48 28.5t68 16.5z" />
    <glyph glyph-name="question" unicode="?" horiz-adv-x="1049" 
d="M568 -689q13 22 35 22q9 0 15 -6t6 -16t-10 -16.5t-25 -6.5t-21 6.5t0 16.5zM314 -505q-8 28 7 34q17 8 114 3q47 -2 75.5 -8t46 -16.5t20 -30t-4.5 -45t-26 -65.5q-21 -46 -43.5 -62t-71.5 -21q-51 -6 -71 3t-40 46q-14 26 -17.5 51t4.5 37q8 13 10 34t-3 40zM534 1250
q34 24 52 24q43 1 130 -78.5t158.5 -180t75.5 -154.5q4 -64 -38 -155t-103 -148q-61 -58 -210 -167q-279 -205 -264 -331l3 -25.5t8 -16.5t12.5 -10.5t24.5 -4t36.5 -1t54.5 2.5q56 2 103 -3.5t61 -16.5q27 -21 32 -8v3q1 14 20 -14l8 -12q15 -26 23.5 -67t6 -71.5
t-15.5 -30.5q-7 0 -9 -9t2 -21q6 -16 -29 -36t-95.5 -37.5t-125.5 -24.5q-76 -8 -158 27t-111 89q-24 45 -75 110q-31 39 -41 80.5t-10 132.5q0 115 25.5 190t86.5 142q152 164 314 304q89 76 138 145.5t29 89.5q-5 6 -48 10t-97 4q-67 0 -97 -6t-56 -23t-74 -63
q-110 -106 -105 -66q2 15 21 49q20 38 17 40q-3 1 -25 -18q-40 -33 -73 -16.5t-33 69.5q0 59 35.5 125t90.5 109q41 32 80.5 37.5t160.5 -4.5q160 -13 166 4q1 3 -2 8q-7 12 -26 16t-39 -2q-30 -8 -32 -6t11 12z" />
    <glyph glyph-name="at" unicode="@" horiz-adv-x="1728" 
d="M905 1153q34 33 83 31.5t156 -39.5q49 -17 91.5 -25.5t56.5 -3.5q13 4 18 0.5t-2 -13.5q-6 -9 16 -30t59 -40q105 -55 106 -41q0 9 -29 43l-43 52l50 -43q20 -17 32 -33t7.5 -20.5t0 -17t14.5 -24.5t13.5 -25.5t-1.5 -19.5q-6 -6 6.5 -23t36.5 -35q111 -89 120.5 -259.5
t-85.5 -405.5q-9 -23 -29 -51.5t-40 -46.5q-41 -37 -47 -64q-2 -10 6 -10q9 1 28 17q25 21 26 12q0 -4 -5 -18t-38 -45.5t-73 -62t-66 -57.5t-21 -35q6 -11 -5 -10q-7 0 -19 4q-15 6 -24.5 3t-9.5 -14q0 -16 -33 -38t-79.5 -38t-82.5 -17q-17 0 -25.5 -0.5t-15 -2t-7.5 -3
t2.5 -6t9.5 -9l18 -13.5q19 -14 30 -33.5t8 -32.5q-2 -13 6 -23t21 -10q22 0 30.5 -16.5t1 -36.5t-29.5 -28q-33 -13 -20 -64q9 -34 1.5 -41t-45.5 1q-24 4 -51 -1t-41 -16q-87 -73 -333 4q-139 44 -270.5 111t-194.5 127q-59 55 -85.5 131.5t1.5 110.5q26 31 10 93
q-11 42 -17 42q-5 1 -14 -23q-15 -41 -36 -22q-24 23 -23 81q0 18 4 35q14 71 36 69q14 -1 23 -38q4 -16 7 6t3 72q4 286 173 465q41 44 71 82t30 46q0 22 74.5 109t93.5 87q28 0 131.5 52.5t103.5 66.5q0 5 -7 5.5t-19 -2.5t-25 -10q-35 -17 -35.5 -14.5t31.5 29.5q3 3 8 7
q53 45 95 33q18 -5 39.5 1t37.5 22zM1200 881q-31 24 -80 44.5t-86 25.5q-65 9 -126 -10t-61 -49q0 -9 -10 -12t-23.5 2t-23.5 2t-10 -11.5t-10.5 -14.5t-23.5 -6t-23.5 -10t-10.5 -23.5t-4.5 -22.5t-10.5 -8q-25 6 -60.5 -17t-35.5 -44q0 -12 -19.5 -34.5t-46.5 -41
t-61.5 -56.5t-55.5 -72q-46 -76 -65 -186q-15 -89 11 -89q18 0 1 -20q-2 -3 -6 -7q-12 -12 -19.5 -67t-7.5 -134q0 -51 0.5 -73.5t4 -51.5t6.5 -38.5t15.5 -29t23 -30.5l35.5 -36q88 -88 214 -128t218 -9q37 12 66.5 25.5t33.5 20.5q4 5 -18.5 21t-63.5 39.5t-92 48.5
q-92 45 -143 75.5t-87 65.5t-51 70t-26 90q-15 76 -9 113t47 118q86 172 179 248.5t186 51.5q42 -11 78 -93.5t35 -166.5q0 -74 41 -167t81 -108q26 -9 71.5 27t89 98t63.5 123q54 161 18 316.5t-148 240.5zM1581 269q7 19 10.5 35t4 24.5t-2.5 8.5q-11 0 -32 -59t-12 -68
q3 -4 13 13q9 17 19 46z" />
    <glyph glyph-name="A" unicode="A" horiz-adv-x="1386" 
d="M146 -476q-13 33 21 19q29 -11 31 -18.5t-19 -21.5q-9 -5 -18.5 1t-14.5 20zM41 -455q0 16 9.5 26t24.5 10q13 0 23.5 -2.5t10.5 -6.5q0 -9 -34 -36q-21 -16 -27.5 -14.5t-6.5 23.5zM605 1155q21 34 46 54t47 20q46 0 105 -63t100 -156q18 -41 37 -69t28.5 -28t15 -12
t3.5 -29q-6 -56 2.5 -75.5t37.5 -19.5q24 0 26 -4t-16 -16q-19 -13 -17.5 -40t24.5 -107q14 -48 22 -69.5t20 -36.5t24 -17.5t38 -2.5q66 0 95 -45q11 -19 28 -32t29 -13q30 0 29 -16q-2 -17 -33 -28q-10 -4 -21 -6q-23 -3 -36 -15.5t-13 -32.5q0 -17 -11.5 -37.5
t-26.5 -31.5q-9 -7 -14 -13t-7 -19t-0.5 -27.5t7.5 -45.5t15 -65l24 -93q26 -97 55 -188t45 -120q21 -42 30.5 -86t3 -73t-26.5 -30q-24 -1 7 -27q3 -2 7 -5q40 -30 11.5 -40t-99.5 9q-42 12 -61 33t-34 72q-36 124 -57 309q-7 63 -29 126.5t-45 90.5q-13 15 -20.5 41.5
t-5.5 48.5q4 35 -5.5 44.5t-47.5 9.5q-23 -1 -56 -7.5t-64.5 -16t-58.5 -20.5t-42 -21.5t-11 -17.5q6 -9 -6 -9q-7 0 -19 5q-28 10 -109.5 -37.5t-161.5 -121.5q-25 -23 -49.5 -40.5t-31.5 -17.5q-17 0 -51 -69.5t-48 -133.5q-10 -46 -43 -66q-27 -17 -34 7q-2 6 -2 14
q0 10 -13.5 13t-31.5 -2q-26 -8 -36 -1t-10 32q0 19 -6.5 36.5t-15.5 23.5q-18 11 -8.5 70t32.5 85q8 8 9.5 33t-3.5 50q-7 38 4 63.5t52 63.5q50 47 123 188t132 304l89 237q48 124 68.5 191.5t65.5 140.5zM776 753q-23 44 -34.5 57t-21 5t-22.5 -42q-21 -52 -102 -240.5
t-81 -194t89 -3.5q76 2 70 13l-2 2q-9 5 19 19q30 16 82 33l123 39l-42 120q-41 119 -78 192zM1164 -2q-13 56 -29 97.5t-27 44.5q-21 7 4 -118q30 -146 70 -226l35 -68l-12 68q-11 68 -41 202z" />
    <glyph glyph-name="B" unicode="B" horiz-adv-x="1872" 
d="M948 958q0 9 16.5 16t38.5 7t42.5 -7t26.5 -16q8 -13 -19 -19q-15 -4 -36 -4q-29 0 -49 7t-20 16zM248 -689q0 22 10 22t24 -22q6 -10 3 -16.5t-13 -6.5t-17 6.5t-7 16.5zM496 -578q0 10 6.5 17t16.5 7q23 0 23 -10t-23 -24q-10 -6 -16.5 -3t-6.5 13zM636 1181
q132 22 359.5 21.5t292.5 -22.5q70 -23 147 -78t77 -81q0 -10 11 -30t26 -36q26 -29 26 -42t-26 -42q-15 -17 -26 -36.5t-11 -29.5q0 -26 -59 -64.5t-101 -41.5q-18 -1 -71 -21t-109 -47l-136 -66l255 -99q262 -103 438 -223q131 -89 110 -122q-2 -4 -7 -7q-9 -5 -12 -23
t2 -37q6 -20 -2.5 -46t-27.5 -46q-18 -19 -27 -35.5t-5 -19.5q8 -6 -29 -28q-73 -44 -148 -66q-20 -6 -31 -6q-24 0 -172.5 -65.5t-373.5 -175.5q-65 -32 -80 -7q-10 15 -34.5 11.5t-50.5 -15t-43.5 -30.5t-12.5 -34q8 -23 3 -23q-5 1 -30 21q-23 19 -42 20t-53 -14
q-23 -11 -59.5 -18.5t-63.5 -7.5q-30 0 -48 -9t-18 -23q0 -13 -21 -27t-51 -21q-60 -13 -78.5 -18.5t-70.5 -23.5t-95 20q-36 32 -51 77.5t6 58.5q8 6 10.5 19t-2.5 27q-6 14 2 28t27 21q17 7 31 25.5t16 36.5q6 46 30 204q24 162 38 383t9 368q-1 25 -1.5 38.5t-3 25.5
t-5.5 16.5t-9.5 6.5t-14 1t-20.5 -5q-37 -9 -38.5 -6.5t20.5 20.5q4 3 10 8q55 45 5 58q-27 8 -88 9q-26 0 -39 1t-26 4t-17.5 6.5t-9 13t-5.5 19.5t-2 30q-2 47 13.5 68.5t76.5 57.5q104 61 259 119t257 75zM1137 1015q-43 4 -167 19q-95 11 -88 0q1 -2 6 -4q28 -12 15 -22
q-11 -8 -60 -23q-87 -27 -198 -50q-148 -32 -205 -76q-32 -24 -9 -39q24 -17 12 -20q-14 0 -2 -20q2 -4 6 -8q9 -12 20 -45t18 -68.5t15.5 -59.5t13.5 -24q13 0 232 124.5t344 202.5q153 95 61 111q-6 1 -14 2zM1277 239q-47 17 -101 28.5t-82 10.5q-38 -2 -40 -5
q-2 -2 14 -5l49 -10q37 -6 100.5 -25t113.5 -39q124 -48 136 -48q13 1 -19 19q-61 34 -171 74zM1275 185q-81 23 -232 40t-163 4q-6 -6 -64 -11t-135 -7q-41 -1 -59 -1t-46 -3.5t-38 -4t-28 -10.5t-22 -14.5t-14.5 -23.5t-12 -29.5t-7.5 -42t-8 -51.5t-6 -66
q-26 -243 -21 -280q3 -30 23 -30q8 0 30 5q199 47 475.5 168.5t435.5 232.5q24 17 34 25t13 16.5t-3 14t-21 15.5q-41 27 -131 53z" />
    <glyph glyph-name="C" unicode="C" horiz-adv-x="1176" 
d="M826 1162q76 31 121 19.5t66 -67.5q27 -73 7 -111q-8 -15 -10 -30.5t3 -21.5q8 -8 -77 -106.5t-177.5 -192t-102.5 -87.5q-12 8 -45 -27.5t-51 -75.5q-14 -34 -56 -102q-18 -29 -27 -57t-4 -40q4 -12 -3.5 -32.5t-20.5 -35.5q-33 -38 -72.5 -116.5t-46.5 -122.5
q-33 -190 -27 -228q4 -28 32 -37q3 -2 8 -3q38 -10 138.5 24t198 88t128.5 95q19 25 102 30.5t146 -15.5q26 -8 47.5 -28t32 -43.5t10 -48t-14.5 -42.5q-18 -22 -18.5 -32t15.5 -20q25 -14 6 -33q-27 -27 -238 -133l-106 -53t-77.5 -34.5t-63.5 -24t-62 -12.5t-74.5 -9.5
t-99.5 -6.5q-78 -5 -140 -12t-70 -13q-17 -10 -48 19.5t-60.5 82.5t-42.5 103q-38 152 -8 300t145 375q73 144 119.5 216.5t208.5 295.5q58 80 100 144.5t42 74.5q0 27 64 98.5t103 87.5zM650 -543q39 30 21 32q-20 3 -80 -31q-56 -32 -21 -33q14 -1 37.5 8.5t42.5 23.5z
" />
    <glyph glyph-name="D" unicode="D" horiz-adv-x="1722" 
d="M1127 -127q6 10 17.5 17t21.5 7q21 0 0 -28q-2 -3 -4 -5q-25 -31 -40 -23q-11 5 5 32zM678 1181q289 68 495 37t346 -164q72 -69 98 -112.5t45 -130.5q36 -169 29 -273t-62 -183q-44 -64 -118 -148.5t-134.5 -141.5t-69.5 -48q-7 7 -2.5 22.5t18.5 32.5q8 11 0 6
q-19 -10 -88 -68q-146 -124 -239.5 -191t-186.5 -115q-75 -38 -99 -62.5t-33 -73.5q-7 -32 -17 -54.5t-18.5 -22.5t-14.5 -21.5t-6 -51.5v-30t-4 -20t-8.5 -13.5t-17 -6.5t-25 -3.5t-38.5 -0.5q-39 0 -69 8t-34 20q-4 11 -15.5 15.5t-22.5 -0.5q-13 -5 -29.5 2t-28.5 22
t-29.5 25t-32.5 10q-18 0 -22.5 12t4.5 39q16 51 13 123q-2 57 13 69t48 -22q27 -27 27 -2q0 10 23.5 31t57 41t53 40.5t13.5 29.5q-5 9 4.5 30.5t28.5 41.5q37 39 38 84.5t-35 66.5q-17 11 -19.5 100t7.5 329l17 411l-66 -15q-65 -14 -138 -36q-31 -9 -66.5 -11t-55.5 4
q-40 12 -37 -2q1 -3 2 -5q8 -13 -5.5 -26t-34 -16.5t-37.5 4.5q-9 5 -23.5 26.5t-27.5 47.5q-19 37 -19 62t17 67q8 21 17 33t21.5 23t40.5 20t62 18.5t98 24.5zM1332 846q-26 28 -67 36t-156 6q-76 0 -122.5 -3.5t-81 -10t-51 -20.5t-24 -32.5t-7.5 -48.5q-1 -75 -55 -457
q-22 -157 -35.5 -273t-10 -120t38.5 14t79 47q121 79 253.5 219.5t211.5 270.5t60 182q-8 20 -9.5 49t3.5 49q6 22 -1.5 47t-25.5 45z" />
    <glyph glyph-name="E" unicode="E" horiz-adv-x="1197" 
d="M918 1248q73 24 99 21t86 -39q27 -17 39.5 -26.5t19 -24.5t6 -31t-5.5 -48q-23 -140 -131 -141q-20 -1 -40 -7t-29 -15t-87.5 -41t-182.5 -68l-248 -87l-16 -144q-15 -145 -7.5 -152.5t192.5 29.5q222 45 329 5t85 -160q-14 -72 -22 -82t-317 -74l-105.5 -22t-84.5 -20
t-68.5 -19.5t-51 -21.5t-40 -24t-27.5 -30t-20 -35.5t-12 -45t-10 -55t-7 -67.5q-1 -18 -5 -47q-2 -26 -3.5 -37t-1 -28t0 -23t6 -16t9.5 -12t17.5 -7t23 -5t32.5 -1t40 -0.5t52 1.5q43 1 68 1q108 2 296 -33.5t216 -63.5q9 -9 -7 -104l-16 -94l-205 3q-84 1 -208 -9
t-212 -25q-214 -37 -222 -13q-3 9 -13 16t-20 7q-37 0 -59.5 50t-20.5 122.5t29 132.5q21 47 27 48q3 1 4 -7q1 -7 2 -25q1 -15 4 -25.5t7.5 -14.5t10.5 -1q8 5 17.5 63t15.5 136q15 187 29 249q7 35 2.5 48.5t-25.5 13.5q-18 0 -24 24q-9 40 3 290q4 100 5.5 149.5t1.5 93
t-6 64.5t-13 37t-23 38q-50 69 -36 125q7 27 45.5 70t79 71t51.5 17q5 -5 18 -3.5t24 9.5q30 19 97 22q51 1 248.5 44.5t293.5 73.5z" />
    <glyph glyph-name="F" unicode="F" horiz-adv-x="1371" 
d="M33 1026q13 22 22 22t23 -22q5 -10 -1.5 -16.5t-21.5 -6.5t-21.5 6.5t-0.5 16.5zM935 1203q63 22 195 17.5t157 -30.5q10 -10 19 -38t11.5 -56.5t8.5 -53.5t12 -31t-0.5 -23t-22.5 -33q-20 -23 -55 -32.5t-101 -9.5q-109 0 -300 -36.5t-256 -69.5q-40 -20 -51.5 -43
t-11.5 -86q0 -97 -12 -230q-5 -54 -3 -102t10 -59q11 -17 72.5 -13.5t227.5 31.5l281 46l48 -56q27 -31 41 -91.5t9.5 -116t-26.5 -73.5q-11 -9 -88.5 -22.5t-175.5 -22.5q-154 -15 -241.5 -29t-234.5 -46q-58 -13 -64 -70.5t42 -124.5q19 -26 36 -68t23 -78q9 -52 5 -68
t-26 -16q-16 0 -26.5 -6.5t-10.5 -16.5t-17 -16.5t-42.5 -6.5t-51 -11t-37.5 -27q-56 -74 -68 60q-7 74 -2 215q5 161 -0.5 217t-32.5 102q-41 69 -29 142t68 94q22 9 38.5 21.5t16.5 21.5q0 10 8 15t20 2q13 -2 22 17t12 57q4 58 0 60q-2 2 -6 -6q-5 -7 -17 -32
q-16 -32 -23 -17q-8 20 -16 186q-4 68 -7.5 110t-8.5 67.5t-11.5 34.5t-15.5 7q-33 -7 -74 35t-40 83q0 67 18 108t48 41q16 0 43.5 12t49.5 29q54 42 212 56q137 11 258 32.5t193 47.5zM478 331q10 72 -3 125q-9 34 -17 14q-7 -18 -20 -86q-14 -71 -13 -98.5t16 -27.5
q11 0 22 21t15 52z" />
    <glyph glyph-name="G" unicode="G" horiz-adv-x="1727" 
d="M543 1044q122 127 181 176t79 41q16 -6 27 -16.5t11 -19t18.5 -21.5t44.5 -22q54 -20 83.5 -73t17.5 -113q-7 -38 -21.5 -45t-64.5 0q-38 6 -62.5 -2.5t-59.5 -37.5t-113 -106q-94 -93 -146 -166.5t-108 -190.5q-78 -164 -93.5 -211t-29.5 -166q-9 -81 11.5 -150
t55.5 -69q8 0 32.5 -13t49.5 -31q62 -44 161 -37q98 7 161 24.5t63 38.5q0 10 16 36t41 54q68 82 47 95q-13 8 -59 -1q-89 -18 -173 30t-121 138q-14 35 -7.5 55t44.5 55q34 32 77 46t131 20q150 11 308 46q357 78 418 26q34 -29 84 -101q46 -67 50 -183t-35 -253
q-36 -124 -73 -298q-17 -77 -28.5 -112.5t-24.5 -50.5t-35 -19q-21 -4 -40 -0.5t-24 11.5q-15 23 -35 17t-20 -33q0 -35 -22 -33q-25 2 -51 44q-12 19 -27.5 32.5t-25.5 13.5q-84 0 5 304q10 34 5 34t-46 -36q-65 -56 -124.5 -89t-96.5 -33q-48 0 -94 -25q-19 -10 -44 -12.5
t-41 3.5q-48 20 -55 1q-2 -5 0 -12q1 -3 -5 -6t-17 -5.5t-24 -3.5q-41 -2 -112 -14t-71 -16q0 -5 -136 -10q-87 -4 -123 4.5t-73 40.5q-56 48 -81 97t-57 173t-35 233t23 217.5t89.5 222.5t160 236t239.5 271zM344 387q0 35 -10 26q-12 -10 -33 -71q-18 -55 -14 -55
q3 0 23 27q15 18 24.5 39.5t9.5 33.5z" />
    <glyph glyph-name="H" unicode="H" horiz-adv-x="1395" 
d="M1077 -289q0 43 7 43q5 1 15 -15q25 -38 22 -95q-2 -40 -20 -37h-2q-10 4 -17 11t-7 14q2 17 2 79zM902 1234q6 17 19 28.5t27 11.5q34 0 81.5 -45t47.5 -77q0 -15 10 -30.5t23 -20.5q14 -5 24 -19.5t10 -29.5t-1.5 -20.5t-5.5 -2.5t-12 15t-16 -16q-10 -35 -18 -120
q-14 -164 -28 -234q-10 -50 -1.5 -59.5t59.5 -6.5q28 2 61 -5.5t48 -19.5q27 -20 27 -24.5t-29 -5.5q-37 -1 -34 -20q2 -23 50 -48q17 -8 36 -14q76 -26 84 -53q5 -16 -20 -22q-11 -2 -28 -2q-24 0 -41.5 -7t-17.5 -17t-13 -13t-32 3q-25 8 -32.5 4t-0.5 -22q6 -13 -1 -26.5
t-22.5 -20t-29.5 -0.5t-19 20q-12 30 -52.5 33.5t-58.5 -24.5q-7 -12 -4.5 -15.5t12.5 3.5q31 19 36 -2q6 -23 -22 -50q-5 -5 -11 -9q-29 -20 -38.5 -49.5t-9.5 -101.5q0 -49 7.5 -87.5t18 -45t19 -62t11.5 -130.5l5 -176l-73 -6q-42 -4 -67.5 7t-52.5 45q-23 29 -30.5 58
t-7.5 85t8 196l16 281l-102 -15q-103 -16 -233 -67q-69 -27 -63 -36q1 -2 7 -2q22 -3 -8 -13l-26 -7q-28 -6 -58.5 -5.5t-47.5 8.5q-53 26 -79.5 -5.5t-38.5 -134.5q-10 -88 -4 -119t38 -63q48 -49 24 -72q-10 -10 -12.5 -36.5t2.5 -55.5q8 -40 4 -51t-24 -4q-14 5 -33 3
t-31 -10q-14 -8 -32.5 -8t-33.5 8q-22 12 -27.5 79t-3.5 286q3 294 16.5 653t27.5 491q5 46 10 74t13 43t18 15t25 -15.5t33 -44t44 -74.5q23 -42 36.5 -100t10.5 -100t-21 -42q-8 0 -18.5 -48t-16.5 -115q-15 -164 -27 -207q-8 -27 5 -32q16 -7 120 5q138 16 254 51
q47 14 100.5 20.5t78.5 1.5q26 -5 49 -2t29 12.5t14 107t12.5 224.5t12.5 221.5t14 99.5q16 11 31 50zM77 28q4 12 3.5 25t-5.5 18q-8 7 -11 -10q-1 -8 -1 -19q2 -26 7 -25q3 1 7 11z" />
    <glyph glyph-name="I" unicode="I" horiz-adv-x="1532" 
d="M1001 1196q177 52 184 49q5 -2 -25 -25q-3 -3 -6 -5q-30 -24 -23 -29q8 -5 96 1q89 5 118 -12t11 -66q-6 -15 4.5 -27t34.5 -18l50 -14l-53 -46q-22 -19 -43.5 -32.5t-29.5 -13.5q-6 0 -7.5 -6t1.5 -16t9 -22q24 -44 24 -56q0 -6 -72.5 -9.5t-174.5 -3.5q-247 0 -264 -27
q-14 -23 -21 -507t7 -520q8 -23 91 -28t134 15q29 11 17 18q-8 5 -44 13q-68 16 101 18q146 1 208.5 -11t62.5 -43q0 -12 13.5 -24t34.5 -18q22 -5 33 -19.5t8 -33.5q-5 -40 14 -84t-8 -53q-12 -4 -16 -12.5t1 -17.5q9 -13 -95 -15q-31 -1 -68 0q-197 5 -342 -5.5
t-150 -30.5q-7 -25 -21 -86q-12 -54 -45 -60t-59 42q-13 25 -31 32t-48 -1q-24 -5 -40 -2.5t-16 11.5q0 17 -73 -3q-74 -20 -98 -44q-19 -19 -117 -14.5t-147 27.5q-61 28 -81 95t15 127q24 41 107 65.5t293 54.5q28 4 39.5 31.5t21.5 118.5q22 204 32 482.5t-2 341.5
q-10 51 -19 61q-17 19 -91 9q-34 -4 -175 -29q-82 -14 -113.5 17.5t-67.5 45.5q-21 8 -36 45.5t-14 76t19 49.5q11 7 22.5 22t17.5 30q10 30 134.5 62t224.5 30q36 -1 64 4t32 12.5t42.5 10.5t87.5 0q92 -6 91 2q0 4 -17 12q-25 13 -27 16q-1 3 5 3q8 0 39 -4q25 -3 95 9.5
t141 33.5zM1176 888q10 15 -17 17q-34 3 -106 -17q-31 -9 -33 -12q-1 -2 7 -3q10 -2 53 -3q34 -1 62.5 4.5t33.5 13.5z" />
    <glyph glyph-name="J" unicode="J" horiz-adv-x="1450" 
d="M1177.5 1265q10.5 11 79.5 -4.5t88 -32.5q20 -20 -7 -52q-16 -20 -12 -28t35 -12q17 -3 31.5 -15.5t21.5 -28t5.5 -31t-13.5 -23.5q-16 -10 -207 -25q-77 -6 -148 -16t-91 -18t-38 -9.5t-24 4.5q-15 15 -14 -4q3 -36 54 -152q120 -269 202.5 -622t82.5 -594q0 -57 -2 -90
t-11 -63.5t-21 -45.5t-39 -29t-58.5 -21.5t-85.5 -17.5q-91 -16 -140.5 -12t-152.5 35q-156 47 -240 90q-24 12 -43 20.5t-30.5 12.5t-11.5 1q0 -9 -44.5 33.5t-101 103.5t-85.5 100q-58 76 -81.5 184t10.5 141q13 14 22.5 31t9.5 30q1 44 60 92q51 42 82 34q15 -4 15 -24
q0 -14 13.5 -27.5t31.5 -18.5q25 -6 35.5 -23.5t10.5 -52.5q0 -66 65 -155.5t140 -125.5q77 -38 189 -72q39 -11 65 -15.5t46.5 -1t30.5 16.5t17.5 36t6 58l-3.5 83q-9 128 -79.5 356t-154.5 413.5t-128 202.5q-13 5 -52.5 -2.5t-83.5 -22.5q-72 -25 -155 -27t-145 17.5
t-78 55.5q-17 42 -15.5 79.5t22.5 63.5t53 26q54 0 181.5 32.5t503.5 91.5t386.5 70zM1071 1100l73 9h-79q-135 0 -223 -30q-34 -11 -4 -34q21 -16 65 -29q30 -9 37 -5t-2 27t-2 27t39 -6q49 -14 38 6q0 1 -1 2q-4 7 2 13.5t21 12t36 7.5z" />
    <glyph glyph-name="K" unicode="K" horiz-adv-x="1397" 
d="M46 1240q25 30 75.5 31.5t86.5 -26.5q34 -27 59.5 -159.5t40.5 -348.5q15 -230 22 -230q17 0 105 103.5t155 203.5q44 66 106 146t107 130q67 74 97.5 93.5t65.5 10.5q61 -15 84.5 -49.5t27.5 -114.5q1 -47 -6 -73.5t-29.5 -55t-81.5 -85.5q-121 -118 -236 -218
q-48 -41 -81.5 -78.5t-33.5 -48.5t-10.5 -27.5t-23.5 -28.5q-51 -42 -21.5 -88.5t163.5 -132.5q232 -148 332 -201.5t169 -64.5q56 -9 80 -26t46 -63q16 -32 21 -61.5t-4 -42.5q-7 -12 -11 -32.5t-2 -35.5q4 -21 -22.5 -39.5t-63.5 -27t-76 -6t-58 19.5q-16 14 -35.5 24.5
t-30.5 10.5q-12 0 -16.5 5t0.5 13q5 9 -61.5 49t-144 77t-98.5 37q-23 0 -54 31q-25 25 -139 72t-202 69l-59 15l5 -257q4 -258 2 -344q-1 -26 -1 -37t-4 -23t-7 -14.5t-14 -4.5t-20.5 0t-32.5 6q-77 15 -86 -14q-9 -26 -37 30q-39 79 -48 160q-1 9 -2 17q-3 79 14 350
q37 580 -11 1043q-17 164 -17 227.5t16 83.5zM242 -52q11 40 0 68q-7 16 -10 -9q-1 -12 -1 -31q0 -40 5 -39q3 1 6 11z" />
    <glyph glyph-name="L" unicode="L" horiz-adv-x="1263" 
d="M207 1190q50 9 70 13q19 3 61.5 -46t41.5 -73q-1 -25 -34 -295.5t-33 -323.5q0 -22 -6.5 -50t-15.5 -46q-23 -43 5 -91q16 -27 16.5 -40t-14.5 -18q-25 -9 -5 -98t16.5 -106t14.5 -93q13 -52 26.5 -61.5t61.5 0.5q70 15 254 25q76 4 147.5 14t96.5 19q60 22 121 22
q43 0 44 7q0 5 -17 17q-25 18 4 19q13 0 41 -2q79 -7 79 -41q0 -13 9.5 -30.5t22.5 -27.5q31 -25 12 -55q-8 -13 -12.5 -41t-2.5 -53.5t0.5 -44t-4.5 -18.5q-61 0 -397 -81t-429 -118q-78 -31 -129.5 -44t-61.5 -3q-9 8 -30 14t-43 6q-23 0 -38.5 7.5t-26.5 28.5t-16 53
t-6 86t2.5 121.5t11.5 166.5q25 338 32 349.5t22 406.5q5 133 10.5 216.5t13 146t19.5 94.5t27 47.5t39 20.5z" />
    <glyph glyph-name="M" unicode="M" horiz-adv-x="1645" 
d="M67 1201q22 24 54 33.5t88 7.5q68 -1 96 -16.5t72 -74.5q27 -37 97.5 -164.5t141.5 -270l126 -244t60.5 -101.5t26 21t44.5 51q53 67 86.5 205.5t38.5 309.5q6 231 12 253q5 16 19 6l13 -11q20 -16 26.5 -14.5t6.5 21.5q0 15 15.5 24.5t41.5 9.5q63 0 122.5 -101
t104.5 -283t66 -413q21 -225 76.5 -503t93.5 -348q47 -85 -12 -144q-18 -19 -44 -21t-82 11q-87 19 -113 44.5t-32 96.5q-14 152 -33 275.5t-69 374.5q-44 228 -46 244q-4 26 -14 -14q-29 -110 -54 -382q0 -3 -1 -6q-8 -91 -15.5 -148t-17.5 -100t-24.5 -66.5t-33 -37
t-46.5 -22.5q-32 -10 -85 17t-99 75.5t-62 94.5q-25 76 -31 126q-8 56 -66.5 180t-89.5 149q-15 13 -25.5 30t-10.5 30t-12.5 30.5t-29.5 29.5q-18 12 -34.5 35.5t-23.5 45.5q-36 111 -45 -43q-6 -99 -1 -297q12 -406 32 -449q10 -19 24 4q18 27 13 -42q-1 -16 -3 -37
q-6 -47 -4 -109.5t10 -104.5q13 -68 7 -93.5t-42 -58.5q-49 -46 -69 -49t-47 31q-11 14 -29 24t-31 10q-23 0 -45 37.5t-33.5 94.5t-6.5 110q3 39 -0.5 70.5t-12.5 37.5t-15 57t-5 119q1 162 -24 399q-10 99 -19 265t-11 303q-4 140 -1.5 218t10 107t26.5 50z" />
    <glyph glyph-name="N" unicode="N" horiz-adv-x="1479" 
d="M980 191q0 38 7 35q2 -1 5 -7q11 -28 0 -56q-8 -18 -11 6q-1 8 -1 22zM132 1172q32 39 46 51t26 10t33 -21q27 -24 38 -25t25 20q9 14 13.5 17.5t6 -2t1.5 -23.5q0 -35 27 -86.5t55 -69.5q11 -7 23.5 -33.5t18.5 -57.5q16 -73 83 -220q27 -61 52 -130t32 -107
q8 -36 34.5 -102.5t55 -120.5t50 -102.5t21.5 -60.5q0 -11 9 -25.5t21 -21.5q13 -8 29.5 -28t28.5 -42q27 -53 46.5 -45.5t32.5 77.5q8 44 19 59.5t29 9.5q14 -6 23.5 -0.5t9.5 18.5q0 12 10 29t23.5 28t24 32t10.5 38q0 18 7.5 43.5t19.5 44.5q16 27 16 41.5t-16 30.5
t-21.5 14.5t-5.5 -22.5q0 -14 -13.5 -36t-32.5 -39q-35 -32 -41 -19q-9 18 29 201q5 20 10 46q43 201 69 401q9 69 15.5 110.5t16 76.5t18 51.5t23.5 28.5t31.5 15t43.5 3q64 0 94 -35.5t30 -111.5q0 -41 6 -46t31 16q27 21 29 12q3 -9 -9 -61l-34 -169q-19 -90 -66 -225
q-20 -56 -30.5 -103t-6.5 -59t0.5 -42t-13.5 -61q-51 -171 -70.5 -278t-23.5 -241q-2 -81 -8.5 -139.5t-13.5 -58.5t-12 -7.5t-5 -17.5t10.5 -14t23.5 1q15 6 24.5 1t9.5 -19q0 -12 -10 -29t-24 -28q-14 -12 -24 -31.5t-10 -36.5q0 -34 -34 -52t-63 1q-27 17 -43 17
q-22 1 -87.5 56t-65.5 73q0 10 -10.5 29t-24.5 34q-15 16 -37.5 62.5t-40.5 97.5q-32 91 -23 92q3 0 13 -13q37 -50 34 -25q-5 42 -88 183q-3 6 -7 11q-82 138 -106 135q-3 0 -5 -3q-14 -21 -65 65l-16 29l-64 120l-19 -439q-19 -439 -53 -511q-15 -31 -20.5 -58.5
t0.5 -36.5q8 -12 -10.5 -30t-46 -27.5t-41.5 -1.5q-7 5 -9.5 24.5t1.5 43.5q6 30 0 43t-26 13q-15 0 -25.5 -6.5t-10.5 -15.5q0 -29 -27 -23q-33 7 -58 47q-2 4 -4 7q-19 35 -19 115t17 298q28 357 37 515t14 192q9 62 -16 217t-52 200q-24 40 -24.5 70.5t21.5 69.5t80 108z
M206 501q1 61 -4.5 101t-15.5 40q-23 0 -24 -4q-8 -39 -7 -119t11 -80q7 0 15 -11.5t13 -28.5q3 -13 7 7q4 28 5 95zM344 462q0 9 -7 15.5t-17 6.5t-13 -6.5t3 -15.5q14 -23 24 -23t10 23zM337 309q11 40 0 68q-7 17 -10 -9q-1 -12 -1 -31q0 -40 6 -39q2 1 5 11zM1021 10
q0 10 -6.5 16.5t-16.5 6.5t-16 -6.5t-6 -16.5t6 -16t16 -6t16.5 6t6.5 16z" />
    <glyph glyph-name="O" unicode="O" horiz-adv-x="1418" 
d="M735 1226q71 28 217.5 -20t236.5 -129q55 -50 111.5 -182t70.5 -242q16 -135 17 -340q1 -144 -11 -200t-71 -175q-120 -244 -271.5 -364t-310.5 -99q-119 16 -260 98t-249 195t-138 213q-18 60 -30 134.5t-15 142.5t0 124.5t14.5 89t29.5 29.5q11 -2 26 22.5t25 62.5
q24 90 37.5 112.5t27.5 83.5q9 37 5.5 46.5t-24.5 1.5q-18 -6 -22.5 -0.5t2.5 25.5q6 17 20.5 24t31.5 1q38 -12 145 112q44 51 87 87t59 36q21 -1 20 -6q-1 -6 -34 -24q-60 -33 -87.5 -87t-25.5 -137q2 -80 10 -88q7 -6 40 16q1 1 5 3q34 22 58 57t28 68q3 23 22 32
q14 7 14 -9q0 -11 10 -20t26 -12q24 -4 11 -33q-10 -22 -47 -73q-67 -91 -110 -193t-59.5 -198t-9 -188.5t37.5 -167.5t86 -131t131 -81q87 -30 137.5 -14t133.5 100q97 96 159 208t84 227q15 84 10.5 134t-36.5 150q-21 64 -49.5 125t-49.5 83q-39 44 -126.5 95.5
t-122.5 51.5q-12 0 -36.5 17t-46.5 41l-54 57l56 44q46 36 37 44q-1 1 -3 1q-15 1 6 12z" />
    <glyph glyph-name="P" unicode="P" horiz-adv-x="1709" 
d="M682 1172q17 12 37 18t29 0q19 -10 -8 -25q-5 -3 -11 -5q-73 -29 -71 -13q1 8 24 25zM1036 1232q26 17 135 8.5t206 -35.5q38 -11 92 -48.5t106 -90.5q7 -6 19 -19l28.5 -27t21 -23.5l16.5 -20.5t10 -22t7 -22.5t1.5 -27t-1.5 -31.5t-7 -40t-9 -49l-13 -61l-9 -43
q-19 -88 -90.5 -182.5t-151.5 -136.5q-59 -30 -124 -87q-27 -23 -66 -43.5t-66 -26.5q-34 -7 -47.5 -18t-7 -27t-29 -47.5t-115.5 -79.5q-156 -96 -167 -111q-4 -6 3.5 -83t21.5 -179q18 -123 22 -173.5t-1.5 -80t-24.5 -66.5q-17 -31 -35.5 -52t-29 -20.5t-47 26.5
t-77.5 62l-99 87l29 171q24 142 8 214t-89 140q-36 34 -45.5 58t0.5 53.5t46 85.5q37 54 42.5 84t-8.5 89q-21 91 -46 253q-10 67 -18.5 101t-22.5 49t-31 9.5t-48 -28.5q-42 -32 -104.5 -32t-74.5 32q-5 14 -23 24t-38 10q-26 0 -34.5 7.5t-1.5 25.5q5 13 2 25t-12 15
q-24 7 9 69q35 64 77 93q6 4 11 6q52 25 108 36.5t205 66.5t185 35q15 -8 68.5 -5t112 11.5t105 21t46.5 22.5q0 6 18.5 8.5t43.5 0.5q33 -4 32 0q0 2 -13 5q-25 8 -27.5 14.5t16.5 19.5zM1316 1161q-42 18 -129 22q-41 0 -38 -7q9 -8 110.5 -21.5t56.5 6.5zM1352 920
q-29 28 -166 30.5t-275.5 -20t-172.5 -56.5q-13 -13 -13 -80t13 -210q25 -265 34 -274q36 -36 329 239q171 160 229.5 246.5t21.5 124.5zM896 229q6 4 -5 6q-4 1 -10 1q-10 0 -25.5 -11.5t-28.5 -28.5q-22 -29 -19 -29t34 23z" />
    <glyph glyph-name="Q" unicode="Q" horiz-adv-x="1447" 
d="M527 1240q11 30 42.5 32.5t58 -20t26.5 -55.5q0 -24 72 -112.5t157 -172.5t119 -97q13 -5 27.5 -28t20.5 -48q15 -63 57 -167q42 -103 62.5 -160.5t30.5 -107t8 -81t-14 -75.5q-11 -44 -38 -108t-55 -113l-65 -118l108 -102q44 -42 83 -72.5t48 -30.5t32.5 -25t45.5 -59
q63 -94 64 -108q-2 -11 -29 -11q-36 0 -23 -43q8 -24 -0.5 -36t-37.5 -19q-32 -8 -77.5 25t-157.5 143l-55.5 55.5t-46 42l-38.5 33.5t-33 20.5t-30 12.5t-28.5 1t-30 -6t-33.5 -16.5t-39.5 -22.5l-46.5 -32q-149 -100 -276.5 -129.5t-188.5 21.5q-63 52 -115.5 141.5
t-53.5 146.5q-3 79 -31 260q-22 147 -13.5 272t47.5 200q33 63 33 84.5t56.5 145.5t56.5 136.5t67 112.5q28 41 52.5 88t30.5 70q6 27 27 48t49 31q26 9 48 24.5t27 28.5zM645 847q-70 43 -81 43q-32 0 -110.5 -109.5t-139.5 -240.5q-63 -133 -81 -201.5t-25 -199.5
q-12 -199 14 -225q11 -11 18.5 -32t7.5 -41t8 -41.5t19 -33.5q31 -30 116 -24t146 43q120 74 36 104q-14 6 -43 37.5t-56 72.5q-44 64 -50 90.5t11 65.5q18 38 34.5 46t60.5 -1q29 -6 70 -32t72.5 -58.5t58 -54.5t34.5 -22q17 0 44.5 59t49 136t21.5 125q1 116 -5 174.5
t-24 98.5t-59 88q-32 37 -75 76.5t-72 56.5zM1128 -385q-27 34 -35 34q-2 0 -2 -4.5t2 -12.5t5 -17q5 -13 15.5 -23.5t19.5 -10.5q20 0 -1 29q-2 3 -4 5z" />
    <glyph glyph-name="R" unicode="R" horiz-adv-x="1987" 
d="M656 1255q0 8 16.5 13.5t40 5.5t40 -6t16.5 -14.5t-14 -11t-35 3.5q-27 7 -35 2.5t-2 -22.5q6 -16 43.5 -23.5t119.5 -7.5q151 0 169 -31q10 -16 23.5 -18t37.5 11q43 22 144 3q119 -23 127 -17q6 5 -14 29q-27 31 -14 32q12 0 95 -34q75 -30 143.5 -89.5t68.5 -93.5
q0 -12 6 -20.5t13.5 -8.5t19.5 -14.5t21 -35.5q13 -29 6 -60.5t-40 -92.5q-60 -111 -106 -173t-109 -117t-185 -138q-97 -66 -166 -119.5t-69 -62t38 -25t92 -31.5q130 -36 182 -57q21 -9 62 -15.5t78.5 -6.5t75 -6t53.5 -14q40 -20 146 -58q47 -17 92 -50t67.5 -65.5
t7.5 -47.5q-6 -6 0.5 -17.5t21.5 -22.5q25 -17 24 -37t-30 -86q-36 -83 -83.5 -102.5t-120.5 17.5q-63 33 -135 48q-29 6 -80.5 37t-92 67t-88 69t-71.5 41q-25 10 -38.5 24t-8.5 27q6 15 -22 22q-34 10 -147 13q-56 1 -91.5 1.5t-55 -3t-27 -9.5t-7.5 -17q0 -14 -7.5 -24
t-17.5 -10t-13.5 -9.5t1.5 -23t0.5 -26t-15.5 -17.5q-16 -6 -16 -12t17 -18q12 -8 30.5 -53.5t33.5 -101.5q17 -68 21 -94.5t-1.5 -41t-26.5 -32.5q-17 -13 -34 -35.5t-23 -38.5q-16 -42 -41 -35t-65 64q-21 29 -44.5 48.5t-37.5 19.5t-20 6t-1.5 14t-1.5 22.5t-20 25.5
q-26 22 -21.5 101t34.5 111q9 9 15 30.5t6 43.5q0 31 -14 40q-21 12 -148 12h-39q-84 0 -134.5 2.5t-82.5 9t-44 17t-12 28.5q0 11 -13 23.5t-30 16.5q-19 5 -35 28t-24 56q-9 44 -1 69.5t44 60.5q47 48 129.5 81t103.5 13q7 -7 46.5 4t88.5 33q75 35 98.5 58t32.5 70
q6 30 3 70.5t-13 67.5t-13.5 51.5t2.5 32.5q10 17 -2.5 89t-35.5 137t-38 65q-12 0 -47 -13.5t-70.5 -31.5t-70.5 -31.5t-47 -13.5q-24 0 -66 43.5t-42 69.5q0 8 -13 21t-32 23q-24 13 -33.5 22.5t-7.5 24.5t15.5 33t42.5 50q40 42 93.5 61t210.5 46q100 17 171.5 35
t71.5 26zM1306 950q-32 20 -116.5 32.5t-93.5 -1.5q-5 -8 -37.5 -17.5t-73 -15.5t-76.5 -18.5t-45.5 -23.5t-20.5 -72t-18 -136q-15 -180 -26 -198q-16 -25 18 -14q70 24 231 138q106 76 172 138q85 81 104 123t-18 65zM1062 405q23 29 17 30q-9 1 -118 -50q-48 -22 -93 -51
t-62 -49q-49 -54 -10 -62q46 -10 165 48q155 76 138 95q-5 5 -25 5q-24 0 -26.5 6.5t14.5 27.5zM882 396q0 35 -33 2l-13 -15q-18 -22 -16.5 -25.5t24.5 4.5q16 6 27 16t11 18zM588 249q0 18 -44 5q-33 -10 -59 -30q-32 -25 -24 -25q6 0 54 17q73 24 73 33zM1231 20
q-98 41 -108 31q-4 -4 17 -17q20 -12 55 -29q41 -18 72.5 -27.5t36.5 -4.5q3 3 -6 10.5t-26.5 17.5t-40.5 19z" />
    <glyph glyph-name="S" unicode="S" horiz-adv-x="1750" 
d="M311 -351q14 23 24 23t10 -23q0 -10 -6.5 -16t-17 -6t-13.5 6t3 16zM832 1249q325 47 325 -9q0 -13 14 -26.5t33 -19.5q46 -15 33.5 -49t-12.5 -56q0 -10 -12.5 -13t-31.5 2q-44 11 -79 -43q-22 -34 -49.5 -44t-98.5 -10q-47 0 -112 -12.5t-111 -30.5q-59 -22 -146.5 -72
t-152 -97t-64.5 -62q0 -8 51.5 -14t124.5 -6q182 0 407 -64t437 -176q23 -12 50 -21.5t40 -9.5q36 0 97 -69.5t100 -155.5q42 -92 44.5 -177.5t-33.5 -190.5q-20 -58 -70.5 -132t-101.5 -123t-72 -41q-13 5 -29 -1.5t-28.5 -22t-29.5 -25t-31 -9.5q-13 0 -22 -5.5t-9 -12.5
q0 -29 -90.5 -65.5t-236 -67t-296.5 -44.5q-98 -9 -151 -3.5t-115 31.5q-43 17 -73.5 38t-30.5 32.5t-16 30.5t-38 33t-36.5 36t-12.5 37q7 52 96 76.5t287 28.5q75 1 118.5 3t90.5 9t74 15t67.5 27.5t74.5 41l92 60.5q137 92 176 181t-13 190q-64 125 -226.5 187.5
t-440.5 68.5q-98 3 -182 -0.5t-105 -10.5q-30 -10 -56.5 2t-70.5 55q-30 30 -60 72.5t-39 70.5q-24 67 -41 110q-10 26 -7 31t22 -6q20 -12 19 -8q0 4 -15 19q-37 40 -26 58q6 12 31 2q14 -5 24 0t10 16t32 50.5t76 82.5q100 96 294.5 191.5t332.5 116.5zM790 1057
q7 8 -10 11q-8 1 -20 1q-26 -2 -24 -7q1 -3 11 -7q12 -5 24.5 -4t18.5 6z" />
    <glyph glyph-name="T" unicode="T" horiz-adv-x="1760" 
d="M1541 1230q52 21 76.5 16.5t55.5 -38.5q39 -42 14 -58t-21 -58.5t33 -66.5q67 -56 -13 -65q-18 -2 -44 -2q-82 0 -303 -34t-311 -60q-45 -14 -62.5 -28.5t-11.5 -33.5q17 -58 4.5 -270.5t-39.5 -313.5q-14 -54 -5.5 -134t53.5 -322q12 -61 21 -151t10 -158q0 -55 0.5 -87
t-5 -50.5t-13.5 -25.5t-24 -11q-32 -8 -77 12t-80.5 56.5t-41.5 71.5q-11 61 -14 411q-8 925 -64 925q-14 0 -19 6.5t1 15.5q13 21 1 21q-13 0 -67 -24q-24 -11 -37 -23.5t-8 -20.5q14 -23 -39 -39q-98 -29 -296 -15q-46 3 -91 9q-7 1 -11.5 11.5t-4.5 24.5t-9.5 24
t-22.5 10q-25 0 -37.5 19.5t-7.5 47.5t27 50q17 17 75 42.5t124 44.5q113 34 261 68.5l549 122.5q248 54 299 68.5t51 -10.5q0 -10 7 -17t16 -7q10 0 12 7.5t-4 18.5q-7 12 -3 16t19 -2q13 -4 35.5 -2.5t41.5 8.5zM1033 1003q-32 21 -60 21t-41 -21q-7 -12 17 -18
q17 -4 43 -4q54 0 54 8q0 5 -13 14z" />
    <glyph glyph-name="U" unicode="U" horiz-adv-x="1198" 
d="M925 1232q0 17 10 29.5t23 12.5q15 0 24.5 -10t9.5 -25t6 -21.5t15 -0.5q28 18 47 -48q16 -55 20 -155q5 -135 26 -270q30 -188 49 -409t11 -282q-5 -32 -21.5 -85.5t-34.5 -93.5q-45 -101 -75 -191q-29 -88 -59 -125.5t-130 -111.5q-63 -46 -106 -74t-85 -48.5t-73 -27
t-69.5 -3t-74.5 15t-87 34.5q-72 32 -110.5 63.5t-67 82.5t-63.5 151q-30 83 -40.5 183t-15.5 345q-9 395 -20 603q-3 60 -4 93t2 64.5t8 45.5t19 27.5t29.5 20t44 15.5t51 1t48.5 -37q28 -31 37 -69t8 -121q-4 -224 -5 -356.5t1.5 -256t8.5 -187.5t20 -130.5t31 -108.5
t46 -100q25 -49 44.5 -63.5t58.5 -11.5q75 6 175 74t160 154l74 106l-2 377q-2 393 21 374q12 -9 26 -130q6 -56 16.5 -96t18.5 -40t10 10.5t-3 24t-1 23.5t15 10t15.5 43.5t2 110.5t-9 139.5t-18 139.5t-24.5 102q-26 72 -32 67v-3q-1 -16 -25 11q-4 5 -9 12q-30 41 -33 17
q0 -1 -1 -3q0 -23 -12 -21q-16 2 -28 31q-6 17 -6 33q0 29 11 36.5t45 1.5q32 -6 44.5 0.5t12.5 30.5zM955 -382q12 29 5 28q-9 0 -49 -44q-32 -36 -22 -36q4 0 18 5q15 6 29 19.5t19 27.5zM711 -589q35 26 25 33q-1 1 -4 1q-24 1 -68 -32q-35 -26 -25 -32q2 -1 5 -2
q23 -1 67 32z" />
    <glyph glyph-name="V" unicode="V" horiz-adv-x="1166" 
d="M880 1219q14 13 49 22.5t73 9.5q62 0 75.5 -10t13.5 -57q0 -29 6.5 -48.5t15.5 -19.5t16 -10t7 -23.5t-6 -24t-14 -10.5q-9 0 -18 -48t-14 -115q-11 -164 -36 -273q-10 -46 -21.5 -201t-16.5 -330q-14 -421 -19.5 -500t-9.5 -150q-2 -42 -19 -66t-64 -52l-80 -47l-66 72
q-50 56 -84 132t-26 116q4 22 -22.5 113t-45.5 119q-16 23 -44 124q-12 42 -40.5 111t-56.5 123q-39 75 -48 107t6 42q26 16 13 42.5t-47 26.5q-13 0 -36 37.5t-44 92.5q-48 129 -100 231l-57.5 115.5l-42.5 92.5t-29.5 72.5t-15 54t-2 39.5t11.5 26t23 16t35 8
q22 2 35.5 -1t32.5 -24t38 -54l57 -101q42 -78 85 -169t61 -143q64 -174 141 -353.5t119 -253.5q42 -73 54 -78q10 -4 25 22q1 3 4 9q11 20 15.5 43.5t0.5 35.5q-9 20 17.5 199t47.5 245q12 36 21 111q8 58 -6 55q-15 -4 -29 -67q-4 -15 -6 -31q-12 -75 -29 -93q-7 -7 -9 8
v11q0 44 27.5 135.5t40.5 91.5q7 0 10.5 60t0.5 145q-4 116 1.5 167t24.5 70zM468 448q-13 35 -24 34q-8 -1 -8 -20q0 -21 23 -34q15 -9 13 5q0 6 -4 15z" />
    <glyph glyph-name="W" unicode="W" horiz-adv-x="1473" 
d="M1289 1273q0 15 10 15t37.5 -15t35.5 -35t2 -59t2 -57.5t35 -29.5q31 -12 32 -16q0 -4 -25 -5q-24 0 -38.5 -17t-25 -65t-17 -123.5t-12.5 -203.5q-13 -302 -26.5 -539t-20.5 -456q-5 -164 -31 -242t-84 -101q-15 -6 -67 30t-98.5 82t-46.5 64q0 10 -31 76.5t-74 149.5
q-80 152 -101 170q-16 14 -33 -8q-1 -2 -2 -3q-12 -17 -21 -50t-9 -62q0 -51 -19.5 -141t-44.5 -160.5t-40 -70.5q-11 0 -32 -18t-40 -43l-45 -61l-75 76q-30 30 -53.5 60t-25.5 40q-4 25 -39 205.5t-49 259.5l-21 124q-8 45 -35 214.5t-71 390.5q-51 259 -58.5 394
t27.5 170q27 27 60.5 30t62 -14.5t50 -53.5t26.5 -82q9 -79 55 -372t73 -508q12 -88 25.5 -157t21.5 -77q23 -25 46 46q18 53 29 143q22 184 35 219t43 42q13 3 55 4q43 2 78.5 -6.5t52.5 -24.5q38 -33 131 -185t93 -180q0 -11 9 -19t22 -8t21 12.5t16.5 49.5t16 95.5
t17.5 158.5q8 79 35 512l27 434l65 -13q64 -12 64 14z" />
    <glyph glyph-name="X" unicode="X" horiz-adv-x="1270" 
d="M1075 1273q56 24 57 19q1 -2 -9 -20q-8 -13 -4 -17t19 2q59 22 87 -36q30 -62 4 -154q-13 -47 -40 -86q-22 -33 -37.5 -64t-15.5 -41q0 -11 -35 -67.5t-85 -125.5q-119 -167 -192.5 -290t-98.5 -161q-14 -21 -11 -45t25 -69q31 -59 85 -140.5t92 -125.5l46.5 -54
t29.5 -38.5t17.5 -28.5t3 -21.5t-5.5 -22t-16 -24.5q-18 -29 -20 -46.5t12 -31.5q15 -15 13 -20.5t-23 -5.5q-15 0 -28 -8t-17 -19q-5 -15 -43 1.5t-74 47t-36 48.5q0 16 -46.5 88t-97 137.5t-62.5 65.5q-28 0 -67.5 -49t-30.5 -73q6 -13 1.5 -27t-16.5 -21q-27 -17 -11 9
q13 22 5 26q-15 0 -47 -73t-54.5 -152t-12.5 -94q5 -8 4.5 -34.5t-6.5 -55.5q-9 -42 -21.5 -53.5t-41.5 -3.5q-20 5 -41 2t-33 -12q-29 -24 -51.5 -7.5t-55.5 85.5q-11 23 -16 32.5t-6.5 28t0.5 27.5t13 36.5t22 48l38 70.5q37 71 71 117t47 43.5t28.5 7t25.5 26.5l78 130
l54 90l-53 -45l-53 -45l37 67q38 68 64 104q21 29 -43.5 137t-276.5 403q-49 67 -69.5 114t-20.5 92q0 56 11.5 71t60.5 23q45 8 77.5 -9t70.5 -67.5t100 -160.5q75 -133 136 -212t68 -102q10 -31 64 -9q58 23 94 76q4 5 7 10q33 57 27 56q-4 0 -23 -15q-37 -30 -36 -7
q0 19 28 61q54 79 150 272t123 276q39 120 87 139z" />
    <glyph glyph-name="Y" unicode="Y" horiz-adv-x="1236" 
d="M375 509q0 10 6.5 12.5t16.5 -3.5q22 -14 22 -36q0 -10 -6 -12.5t-16 3.5q-23 13 -23 36zM903 1179q56 89 87 95q15 -6 17 -25q0 -10 10 -13.5t23.5 1.5t24 2t10.5 -13q0 -27 34.5 -57.5t64.5 -30.5t32 -10q3 -15 -45 -110l-5 -10q-53 -106 -112.5 -259t-108.5 -310
q-21 -69 -48 -130t-44 -75q-16 -16 -27.5 -36t-11.5 -34t-5 -29t-12 -22t-13 -26.5t-7 -40.5q-7 -96 -7 -270.5t7 -250.5q5 -57 -3.5 -113.5t-25.5 -89t-36 -26.5q-9 3 -18 20t-12 38q-6 35 -15 37t-49 -25q-39 -26 -52.5 -25.5t-33.5 28.5q-32 45 -40 169.5t5 381.5
q6 125 5 222t-9 107q-15 21 -11.5 63.5t23.5 74.5q8 13 -2.5 41.5t-36.5 62.5q-57 74 -126 132q-34 29 -34 19q0 -7 -39.5 35t-93 105t-89.5 111q-29 38 -39 64.5t1 33.5q10 6 13 16t-2 19q-13 21 5 21q23 0 52 -28q19 -18 21 -15q1 1 -7 15q-15 27 15 29q38 1 96 -36
q42 -28 184.5 -198.5t142.5 -194.5q0 -13 22.5 -23t46 -8t24.5 16q2 27 9 70q8 43 98.5 230t146.5 275zM901 493q16 46 24 81.5t3 40.5q-7 8 -26 -29q-35 -67 -46 -135q-3 -20 -1 -30q4 -22 26 22q10 20 20 50zM831 299q12 12 16 22.5t-1 15.5q-13 12 -27.5 -3t-14.5 -38
q0 -19 20 -3q4 3 7 6z" />
    <glyph glyph-name="Z" unicode="Z" horiz-adv-x="1666" 
d="M1524 123q0 10 6 16.5t16 6.5t16.5 -6.5t6.5 -16.5t-6.5 -16.5t-16.5 -6.5t-16 6.5t-6 16.5zM1023 874q-27 11 8 14h5q32 2 31 -8q0 -1 -1 -3q-6 -6 -19 -6.5t-24 3.5zM62 1224q20 25 127.5 17t165.5 -38q17 -9 35.5 -11t28.5 4t25.5 3t27.5 -13t73.5 -26.5t134 -29
t124 -28t49.5 -24.5q-3 -15 87 -17t187 7.5t112 24.5q36 36 89 18t114 -85q34 -38 58 -79.5t24 -63.5q0 -21 -33 -89.5t-80 -144.5q-149 -241 -100 -241q12 0 37 15q47 27 56 2q4 -10 24 -14t44 1q47 9 46 -5q0 -4 -3 -10q-7 -10 -4.5 -18t11.5 -8q11 0 17.5 -9t6.5 -22
t10 -30.5t24 -28.5t24 -32.5t10 -39.5q0 -31 -9 -35q-13 -6 -104 23q-8 2 -27 8q-17 5 -29 1.5t-12 -13.5t11.5 -17.5t27.5 -7.5q38 0 15 -22q-14 -15 -81 -7.5t-250 44.5q-39 8 -57 -2.5t-44 -56.5q-39 -71 -171 -253q-54 -74 -89.5 -131t-31.5 -62q10 -9 209.5 -9t235.5 9
q34 9 76 28q48 21 148.5 -10.5t147.5 -82.5q56 -61 56 -101q0 -21 -20 -21q-8 0 -18.5 -20t-17.5 -49q-5 -19 -7 -28t-8.5 -18.5t-11.5 -11.5t-20.5 -3.5t-29 0t-43.5 5.5q-42 5 -79.5 15.5t-46.5 19.5t-28 15.5t-36 6.5t-25.5 7t-3 16t-0.5 16t-19.5 7t-27.5 -6.5
t-19 -14.5t-30.5 -9.5t-56.5 4.5q-91 19 -143 2q-28 -9 -18 -24q5 -8 -19 -14q-24 -7 -66 -7q-75 -1 -75 -7q0 -4 34 -18l57 -24l-68 -21q-28 -9 -104.5 -19.5t-158.5 -15.5q-52 -4 -79 -5.5t-54 -1t-38 2t-22.5 8t-16.5 13.5t-12 20q-12 22 -28 33t-30 5q-13 -5 -34.5 12.5
t-41.5 51.5q-33 54 -34.5 74t26.5 68q15 27 43.5 58.5t52 48.5t66.5 59.5t79 84.5l81 96l65.5 76l52 59t39.5 42t29.5 28t20.5 15.5t13.5 5t7.5 -5.5q16 -27 42 22q23 42 10 45q-1 1 -2 0q-69 -11 -156.5 4t-120.5 44q-52 46 -70 46q-23 0 -27.5 37.5t10.5 95.5l21 76
l234 -15l233 -16l45 63q39 56 112 199t73 164t-172 46.5t-380 35.5q-184 9 -137 -5q41 -12 245 -39q101 -14 91 -34q-1 -2 -3 -4q-18 -18 -214.5 5t-264.5 51l-56 23l56 17q27 8 27 12q0 6 -74 7q-65 2 -112.5 18.5t-70.5 43.5t-21.5 63.5t31.5 75.5zM945 137q18 23 27.5 42
t5.5 23q-5 5 -28 -14t-49.5 -49t-39.5 -54q-14 -25 -1 -23q22 3 63 48q12 13 22 27zM779 -58q0 23 -10 23t-24 -23q-6 -9 -3 -15.5t13 -6.5t17 6.5t7 15.5zM404 -274q12 34 3 36q-8 1 -23 -23q-7 -10 -8 -20.5t3.5 -15t11.5 2t13 20.5z" />
    <glyph glyph-name="bracketleft" unicode="[" horiz-adv-x="965" 
d="M670 1011q68 16 69 6q0 -4 -5 -12q-14 -22 -63 -31q-41 -8 -41 9q0 7 12 15.5t28 12.5zM415 1214q84 24 126 30t69.5 -3t57.5 -38q58 -55 53.5 -104t-69.5 -63q-28 -6 -47.5 -19t-19.5 -25.5t-19.5 -25.5t-48.5 -19.5t-45 -17t-10 -18.5q5 -10 3 -15.5t-11 -5.5
t-18.5 -84.5t-15.5 -203t-18.5 -225.5t-24.5 -139q-17 -44 -17.5 -62t15.5 -24q27 -9 13 -152q-4 -44 -5 -67t-0.5 -43t7 -30.5t14.5 -18.5t25 -18q22 -14 84.5 -29t126.5 -22t119.5 -21t67.5 -26q31 -31 61 -48q13 -7 24 -38.5t15 -68.5l8 -90h-355q-189 0 -278.5 -7
t-104.5 -22q-31 -31 -47.5 -26t-16.5 44q0 42 -48 49q-27 4 -39 20.5t-15 54.5q-6 66 19 230.5t41 164.5q22 0 54 264q4 39 0 145t-14 216q-25 266 -22.5 305.5t6 79t-13.5 78.5q-10 24 -2.5 32t39.5 8q22 0 46 8t35 19q27 27 55.5 32.5t140.5 38.5z" />
    <glyph glyph-name="backslash" unicode="\" horiz-adv-x="1145" 
d="M98 1204l43 47l76 -73q31 -30 81.5 -108t90.5 -157l174 -339q77 -146 131 -274q22 -52 45.5 -87t33.5 -31q12 4 44.5 -39.5t65.5 -102.5t58.5 -119.5t25.5 -86.5q0 -24 13.5 -55.5t31.5 -50.5q29 -32 34.5 -67t-14.5 -55t-56 -11q-32 8 -43 2.5t-11 -29.5q0 -23 -10 -22
q-11 2 -58 47q-29 28 -48.5 52t-19.5 31q0 8 -13 26.5t-32 36.5q-18 19 -31.5 46t-13.5 46t-12.5 57.5t-29.5 72.5q-41 83 -71 173q-12 38 -35 87.5t-44 82.5l-140 236q-232 405 -271 490q-43 91 -29 128q6 15 34 46zM493 437q0 22 -22 36q-11 6 -17 3.5t-6 -12.5
q0 -23 23 -36q10 -6 16 -3.5t6 12.5z" />
    <glyph glyph-name="bracketright" unicode="]" horiz-adv-x="781" 
d="M529 1233q14 24 36.5 16.5t44.5 -43.5q12 -18 29 -31.5t28 -13.5q12 0 20.5 -16.5t8.5 -38.5t6.5 -43t15.5 -26q24 -14 21 -105t-31 -211q-31 -129 -43.5 -344.5t7.5 -253.5q15 -28 33 -121.5t29 -194.5t15.5 -188t-6.5 -103q-5 -9 -36 -22.5t-68 -22.5l-220 -54
q-59 -15 -98 -17.5t-45 7.5q-6 8 -26 10.5t-42 -3.5q-52 -13 -103.5 21.5t-55.5 84.5q-3 50 -16 102q-7 32 5.5 48.5t63.5 38.5q81 35 174 50q63 10 81 27t34 81q23 94 39 110q7 7 12 33t5 54q0 51 8 52q5 1 16 -16q16 -23 16 -3q-1 12 -7 45q-15 76 -19.5 265.5
t-33.5 217.5q-22 21 -21 9q0 -8 8 -35q13 -46 -2 -42q-3 1 -5 3q-10 6 -20.5 2t-15.5 -16q-5 -11 -6 39q-1 58 5 156l12 224l-58 -15q-25 -6 -41 -4t-16 12t-7 16.5t-17 6.5t-12 -8.5t5 -20.5q9 -14 6 -15q-4 0 -26 18q-15 12 -32.5 17t-27.5 -1q-23 -15 -57.5 1.5
t-34.5 41.5q0 12 8.5 24t19.5 17q21 8 -2 12q-5 1 -13 2q-26 1 -26 9q1 9 44 49q38 35 84 48.5t158 22.5q74 6 130.5 16.5t61.5 18.5zM599 332q9 62 0 113q-5 26 -8 -6q-1 -20 -1 -56q0 -73 5 -67q2 2 4 16z" />
    <glyph glyph-name="asciicircum" unicode="^" horiz-adv-x="1100" 
d="M437 1257q15 17 30.5 28t24.5 11q40 0 106.5 -49.5t125.5 -123.5q35 -44 86 -99.5t85 -86.5q82 -74 100 -143.5t-32 -114.5q-29 -27 -84.5 -33.5t-230.5 -4.5q-111 1 -221 -6t-153 -18q-73 -19 -97.5 -15t-61.5 39q-36 34 -49.5 75.5t-1.5 75t46 43.5q59 18 102 65.5
t109 168.5q83 148 116 188zM611 935q-36 41 -65.5 43.5t-44.5 -34.5q-6 -15 -8.5 -22t-1.5 -14.5t4 -10t14.5 -5t23.5 -2.5h37q63 0 66 8q3 6 -25 37z" />
    <glyph glyph-name="underscore" unicode="_" horiz-adv-x="1934" 
d="M103 -304q29 20 188.5 27t635.5 9q544 4 657 -3q140 -9 192 -45q27 -20 68 -79q8 -13 11 -17q57 -83 47.5 -146.5t-84.5 -102.5q-58 -31 -311 -34t-876 18q-96 4 -162 7t-126.5 7.5t-98 9t-70.5 12.5t-51 16.5t-33 22.5t-22.5 28.5t-12.5 35.5q-17 59 -22.5 91.5t0 59.5
t21.5 43.5t49 39.5z" />
    <glyph glyph-name="grave" unicode="`" horiz-adv-x="676" 
d="M164 1183l-14 60l65 -58q64 -58 98 -74q38 -17 68.5 -35t45 -31t9.5 -19q-5 -5 24.5 -40t76.5 -81q137 -135 102 -135q-8 0 -24 6q-14 6 -24 2t-10 -15q0 -10 -7.5 -13t-16.5 3q-15 10 -16 -15q0 -19 7 -62q15 -93 -11 -93q-23 0 -173.5 120t-211.5 187q-74 81 -112 151
q-19 35 -3 27q2 0 3 -1q20 -13 20 4q1 11 -6 39q-13 49 0 49q4 0 10 -3q25 -16 70 -25q29 -5 34.5 4t-4.5 48z" />
    <glyph glyph-name="a" unicode="a" horiz-adv-x="1294" 
d="M457 621q36 19 74.5 28t63.5 4q44 -10 79.5 -46t26.5 -62q-3 -8 16.5 -37t50 -61t62 -89t46.5 -104q36 -122 76 -172t117 -71q52 -14 95 -49.5t67.5 -80.5t31.5 -97.5t-12 -100.5q-16 -42 -34 -50.5t-76 -1.5q-76 10 -208 92.5t-183 151.5l-49 65l-77 -67
q-57 -51 -122.5 -83.5t-80.5 -18.5q-2 2 6.5 11t25.5 21.5t39 26.5q81 49 81 53.5t-136 0.5q-56 -2 -95.5 2.5t-39.5 13.5q0 8 -13.5 14t-34 6t-53.5 19.5t-61.5 48t-54 44.5t-34.5 11q-17 -11 -20 20q-6 54 24 138q9 26 21 46q44 78 173 204.5t208 169.5zM482 388.5
q0 5.5 -20 5.5q-24 0 -92 -68.5t-68 -91.5q0 -19 56 29q16 14 34 32q90 88 90 93.5zM459 247q21 34 33 60.5t8 29.5q-7 8 -39.5 -21.5t-62 -67.5t-29.5 -53q0 -39 28 -22q27 16 62 74z" />
    <glyph glyph-name="b" unicode="b" horiz-adv-x="1144" 
d="M133 1190q27 42 69 54t82 -8t62 -66q13 -27 31 -53t30 -35q16 -12 27 -161t11 -302t-14 -176q-13 -20 -1 -29q18 -14 176 -54h1h1l1 -1h1h1h1l1 -1h1h1h1l1 -1q107 -26 157.5 -53t115.5 -91q104 -101 165 -151q36 -30 48.5 -54t9.5 -58t-23 -100q-14 -48 -56 -112.5
t-87.5 -110.5t-69.5 -46q-14 0 -27.5 -9.5t-18.5 -21.5q-24 -66 -311 -93q-94 -9 -136 -23t-72 -47q-45 -47 -89 -53q-30 -5 -28 19q0 6 3 14q6 15 0.5 24.5t-20.5 9.5q-14 0 -24 11t-11 28q-1 20 -6 21q-3 0 -8 -10q-8 -22 -21.5 -27t-19 7t0.5 35q14 43 -27 53
q-21 5 -26 12q-12 19 3 160q6 59 38 330q10 84 16 277t4 379q-2 298 4 385.5t32 127.5zM719 9q-37 37 -95.5 38t-105 -30.5t-52.5 -80.5q-2 -26 -14 -43.5t-25.5 -17.5t-23 -6.5t-9.5 -16.5q0 -16 27 -20.5t70 3.5t86 26q71 30 117.5 78.5t24.5 69.5z" />
    <glyph glyph-name="c" unicode="c" horiz-adv-x="1074" 
d="M331 938q167 101 306 -39q46 -45 56.5 -65.5t-7.5 -31.5q-30 -18 -6 -33q32 -21 21.5 -41t-59.5 -32q-136 -33 -217 -135.5t-81 -241.5q0 -90 33.5 -120.5t133.5 -30.5q48 0 85 18.5t95 71.5q40 38 79.5 64.5t54.5 26.5q44 0 97.5 -30t53.5 -54q0 -12 7.5 -20.5
t17.5 -8.5t14 -13.5t-0.5 -32t-2 -31.5t10.5 -13q27 0 20 -42q-9 -50 -49 -88q-52 -49 -80 -83q-20 -24 -107 -57.5t-168 -50.5t-87 0t-29.5 24.5t-44.5 1t-21 -23.5q0 -31 -76 -15q-90 19 -162 71q-15 11 -26 21q-31 30 -53 58t-22 37q0 22 -49 142q-35 83 -38.5 125.5
t15.5 152.5q30 174 108 316t177 203zM118 157q0 22 -22 56q-17 25 -22 16q-1 -1 -1 -4q0 -23 23 -57q17 -20 22 -11z" />
    <glyph glyph-name="d" unicode="d" horiz-adv-x="1051" 
d="M623 1205q0 28 13.5 37t54.5 9q29 0 48.5 -7t19.5 -18q0 -24 29 -1q32 26 71 -57q53 -110 68 -280l2 -32q4 -67 29 -214q33 -192 42 -429q5 -133 -9 -119q-10 15 -13 -54q-1 -48 2 -126q4 -86 12 -154t16 -78t8 -26t-9 -29q-20 -32 3.5 -46.5t-5.5 -62.5
q-17 -27 -30 -31.5t-31 10.5t-29.5 13.5t-23 -20.5t-19.5 -20t-18 14q-15 24 -110.5 20t-199.5 -31q-37 -10 -83.5 -14.5t-74.5 -1.5q-67 9 -102 10q-15 1 -39 14.5t-44.5 32.5t-41.5 32t-31 13t-29 12.5t-36 29.5q-27 27 -31.5 60.5t7.5 129.5q21 176 103 316t206 212
q63 37 100 44.5t110 -2.5l113 -15l-12 97q-11 97 -25 278q-7 74 -21 161.5t-27 136.5q-37 133 -9 155q10 7 26 -3q5 -3 10 0.5t7.5 12.5t2.5 21zM626 99q-27 14 -40 18.5t-32 -1.5t-36 -20t-55 -48q-73 -66 -114.5 -129.5t-41.5 -109.5q0 -29 19 -36.5t90 -6.5
q89 1 156 28.5t83 69.5q23 60 13.5 138.5t-42.5 96.5zM233 -108.5q7 25.5 11.5 48t5.5 34.5t-1 14q-14 0 -34 -64.5t-15 -91.5q5 -20 19 17q7 17 14 42.5zM140 -186q14 13 5 42q-5 16 -11 15.5t-16 -17.5q-15 -23 -3 -41q10 -15 25 1z" />
    <glyph glyph-name="e" unicode="e" 
d="M605 994q63 27 115.5 28.5t169.5 -19.5q103 -19 142.5 -56.5t27.5 -103.5q-12 -61 22 -74q17 -7 25.5 -27t4 -37.5t-20.5 -17.5q-9 0 -16 -19t-7 -44q0 -29 -20 -67t-44.5 -59.5t-37.5 -8.5q-4 4 3 16t20 23q31 27 34 64q2 27 -18 27q-7 0 -24.5 -20t-36.5 -48.5
t-46.5 -52t-48.5 -29.5q-20 -5 -42.5 -17.5t-33 -25t-58 -26t-103.5 -19.5q-113 -13 -163.5 -51.5t-63.5 -122.5q-12 -73 24 -102q25 -20 75.5 -22t109.5 12.5t116.5 38.5t103 58t63.5 69q13 25 40 61t51 59q35 36 54.5 42t45.5 -11q17 -11 25.5 -26.5t2.5 -24.5q-4 -8 0 -7
q6 0 24 15q33 27 58 14t25 -57q0 -19 7.5 -32t17.5 -13q25 0 10.5 -62t-17.5 -96q0 -14 -26.5 -55t-63.5 -85q-48 -58 -115.5 -107.5t-142.5 -83t-151 -51.5t-148 -16.5t-127 25.5q-33 14 -75.5 24.5t-66.5 10.5q-29 0 -78.5 25t-83.5 55t-22 41q5 6 23 -3t38.5 -28t43 -32
t34.5 -13q18 0 -9 23q-10 9 -25 18q-89 60 -142.5 139t-53.5 154q0 89 45 224.5t104 224.5q64 96 202.5 220t223.5 161zM910 565q0 14 -26 7q-21 -6 -30 -20q-8 -14 5 -13q6 0 16 4q35 13 35 22zM820 -113q0 10 -23 10q-9 0 -15.5 -6.5t-6.5 -16.5t6.5 -13t15.5 3
q23 13 23 23z" />
    <glyph glyph-name="f" unicode="f" horiz-adv-x="1092" 
d="M464 1215q36 25 79 42t68 17q34 0 77 -21t73.5 -50.5t30.5 -52.5q0 -14 11 -30.5t28 -27.5q27 -17 27 -20q1 -1 -10 2q-5 1 -16 5q-24 8 -27 -0.5t11 -46.5q21 -55 8 -67.5t-64 14.5q-50 26 -105.5 0t-124.5 -109q-35 -42 -48.5 -78.5t-11.5 -84.5q2 -60 38.5 -146
t84.5 -147q28 -35 91 -49.5t110 3.5q54 19 108.5 4.5t63.5 -50.5q4 -16 20.5 -28.5t33.5 -12.5q20 0 31 -12t11 -34q0 -27 -9 -34t-36 2q-41 13 -43 -11q-2 -21 30 -53q23 -23 21.5 -30t-28.5 -14q-41 -10 -124 -4l-84 7l18 -83q13 -60 13 -175t-12 -225q-9 -83 -56 -153.5
t-125 -115.5q-99 -58 -116 -55q-13 2 -13 31q0 14 15.5 31t35.5 25l51 21l-50 1q-21 0 -48 -16t-46 -40q-29 -37 -55 -34q-22 2 -12 29q3 8 8 17q6 10 -0.5 29.5t-21.5 36.5q-16 18 -27.5 59.5t-13.5 85.5q-3 64 8 96t52 74q66 69 79 184q11 101 -27 146q-24 28 -60 18
q-19 -5 -28 -15.5t-3 -19.5q7 -11 4 -13t-15 5q-11 7 -32 4t-42 -14q-41 -22 -98.5 0t-106.5 80q-61 71 -17 124t184 79l84 16l-35 67q-44 87 -71.5 214.5t-16.5 196.5q19 118 90 224.5t181 181.5zM543 904q0 14 -25 6q-22 -6 -30 -20q-9 -13 4 -13q6 0 17 4q34 14 34 23z
M702 -520q31 37 18 44q-15 7 -49 -30q-2 -1 -3 -3q-32 -35 -22 -44q2 -1 5 -1q9 0 24.5 10t26.5 24z" />
    <glyph glyph-name="g" unicode="g" horiz-adv-x="1119" 
d="M529 1016q52 41 96 64.5t58 18.5q26 -10 6 -26q-9 -7 -26 -17q-37 -21 -37 -25t29 -2q45 3 140 -14q26 -4 39 -7t28 -11t21 -14.5t16 -26.5t16 -38.5l18 -56.5q63 -196 85 -411q12 -110 48 -237q20 -69 22.5 -227t-15.5 -238q-24 -106 -101.5 -213.5t-158.5 -145.5
q-32 -15 -55.5 -32.5t-23.5 -25.5q0 -13 -30.5 -17.5t-68.5 1.5t-59 19q-22 14 -22 18.5t22 5.5q18 1 -10 11q-18 6 -46 13q-38 9 -89 34.5t-85 53.5q-34 27 -68 46.5t-47 19.5q-36 0 -73 47t-25 77q5 14 3 24t-10 10t-25 29t-33 69l-38 99l64 67q65 70 120.5 66.5
t74.5 -77.5q8 -30 19 -49.5t19 -17t36.5 -20.5t61.5 -59q46 -49 78.5 -66.5t77.5 -17.5q49 0 73.5 17t63.5 78q41 62 51 110.5t10 173.5q0 139 -21.5 264.5t-50.5 157.5q-8 9 -24 4.5t-35 -20.5q-32 -30 -65 -38t-113 -5q-36 2 -92 38t-98 83t-42 75.5t18 30t45 -25.5
q17 -18 20 -15.5t-6 25.5q-6 17 -3.5 28.5t12.5 11.5t13 11t-2 26q-7 18 -11.5 22.5t-11 -1t-21.5 -26.5q-22 -29 -29 -20q-2 2 -2 6q0 29 83.5 118.5t185.5 169.5zM463 881q0 24 -29 4q-26 -19 -50 -56l-40 -63l59 54q60 54 60 61zM594 762q6 32 -3.5 37t-25.5 -22
q-14 -22 -32 -12q-7 4 -12.5 -1.5t-5.5 -17.5q0 -26 27 -26q29 0 45 25q5 8 7 17z" />
    <glyph glyph-name="h" unicode="h" horiz-adv-x="1099" 
d="M291 462q0 37 7 34q2 -1 4 -6q12 -28 0 -57q-7 -18 -10 6q-1 9 -1 23zM291 586q0 49 8 45q1 -1 3 -6q12 -28 0 -68q-7 -25 -10 2q-1 11 -1 27zM48 1188q16 73 31 80.5t53 -37.5q15 -17 33.5 -32.5t28.5 -18.5q21 -7 44.5 -229t24.5 -429l1 -176l118 67q50 28 97.5 48.5
t66.5 22.5q90 10 150 -4t110 -56q55 -47 124 -172.5t110.5 -249t24.5 -163.5q-7 -18 -11 -63t-2 -89q5 -109 -25 -106q-16 1 -38 39q-17 30 -21 20q-3 -7 -3 -39q-1 -34 -10 -45t-32 -5q-17 4 -30 20.5t-14 34.5q-4 55 -35 85q-25 25 -40 1q-17 -26 -31 26q-10 38 -25 134
q-10 70 -52 159t-64 89q-14 0 -111 -79q-55 -46 -83.5 -90.5t-44 -108.5t-24.5 -177q-6 -80 -15 -117t-24.5 -48.5t-45.5 -3.5q-17 4 -31 0t-18 -14q-11 -34 -40 -15q-32 21 -41 71q-2 11 -2 23q-1 54 -10 54q-4 0 -13 -14q-8 -10 -12 -14.5t-6.5 -2.5t-3.5 9.5t-1 23.5
q0 21 -9 41t-21 27q-18 10 -22 61.5t2 182.5q11 204 26 185q1 -1 3 -5q6 -18 11 64q5 90 5 241q0 257 -15 422.5t-41 184.5q-32 25 3 187zM196 457q0 76 -6 133t-14 62q-12 8 -16 -77.5t1 -178t17 -104.5q6 -6 11 24q7 47 7 141z" />
    <glyph glyph-name="i" unicode="i" horiz-adv-x="757" 
d="M400 416q-6 10 -3 16.5t13 6.5t17 -6.5t7 -16.5q0 -22 -10 -22t-24 22zM251 1197q135 98 172 69q11 -9 11 -28q0 -17 9.5 -23t26.5 0q27 11 25 -17q-2 -39 -46 -92q-10 -13 -22 -23q-50 -46 -95 -102l-45 -57l48 40q70 61 66 25q0 -8 -5 -20q-12 -31 29 -22q39 9 141 -41
t127 -90q23 -39 -5 -84q-18 -28 -17 -39t22 -19q31 -12 33 -34q2 -17 -20 -20q-3 -1 -6 -1q-11 0 -36.5 -16.5t-49.5 -38.5q-56 -53 -122 -71q-48 -13 -47 12q0 5 2 11q6 14 21 25.5t30 12.5q22 1 20 7q-1 3 -7 5q-11 5 -34 1.5t-45 -11.5q-45 -17 -57.5 -67.5t13.5 -105.5
q32 -68 43.5 -144.5t-1.5 -126.5q-13 -48 -7 -126t27 -134q25 -66 24 -164t-26 -127q-16 -17 -22.5 -32.5t-0.5 -21.5q6 -7 -14.5 -32.5t-49 -49t-42.5 -23.5q-6 -1 -14 18.5t-13.5 48t-18.5 48t-26 19.5q-18 0 -29 47.5t-22 160.5q-25 281 -11.5 487.5t59.5 240.5
q22 16 24 26t-15 20q-13 8 -29 2t-30 -25q-40 -54 -28 27q2 14 -18.5 27.5t-72.5 99.5q-32 52 -40 92t-2 113q8 107 57 184t161 159zM336 834q6 15 2.5 33t-14.5 29q-23 22 -27 16q-1 -10 -11 -62q-5 -27 3.5 -41t23 -7.5t23.5 32.5z" />
    <glyph glyph-name="j" unicode="j" horiz-adv-x="949" 
d="M559 766l8 14l12.5 20.5t11 11.5t10 6.5t13 -2t17.5 -6l26 -13.5q11 -5 17 -8q19 -10 30.5 -17t22.5 -20.5t17 -27t13 -42t12.5 -58.5t13.5 -84q16 -104 51 -258.5t51 -192.5q39 -89 33.5 -181t-56.5 -236q-55 -156 -130 -242t-180 -116q-65 -19 -133 0t-127.5 67
t-111.5 122t-87 161t-52 188.5t-8 200.5q13 160 62 239q36 60 66 23q13 -15 30 -22.5t29 -2.5q30 11 53.5 -20.5t10.5 -65.5q-7 -18 -2.5 -24t21.5 1q10 4 16.5 -1.5t10.5 -28t6 -60t4 -106.5q3 -157 31.5 -257.5t69.5 -100.5q35 0 85 43t80 99q38 69 43 208t-25 259
q-31 124 -66 299q-24 120 -24 156t25 75zM417 1282q29 11 54 11t68 -11q33 -9 44 -45t-5.5 -74t-52.5 -51q-38 -14 -99 19q-49 27 -48 50q0 9 9 14q10 6 14 20t-0.5 26t0.5 24.5t16 16.5z" />
    <glyph glyph-name="k" unicode="k" horiz-adv-x="1393" 
d="M110 1109q22 64 37.5 74t46.5 -20q15 -15 28.5 -15t31.5 16q24 20 66.5 -24.5t72 -115t21.5 -116.5q-17 -99 -24.5 -178t-5 -124t15.5 -45q11 0 15 -6t-2 -16t-4.5 -16.5t9.5 -6.5q7 0 56 48.5t111 117.5l85.5 91.5t55.5 48t46.5 23t54.5 3.5q50 1 73.5 -7.5t31.5 -29.5
q13 -38 45 -74q17 -21 18 -32.5t-13 -20.5t-14 -16t15 -17q61 -38 -192 -260q-59 -51 -97.5 -94t-33.5 -51q11 -17 157 -102.5t278 -153.5q86 -43 177 -115t91 -96q0 -7 -15 -19t-35 -22l-50 -24l51 -2q68 -2 37 -48q-16 -24 -59 -62t-76 -46t-73.5 10.5t-110.5 71.5
q-45 35 -213.5 124t-323 161t-165.5 66q-7 -5 -11.5 -26t-3.5 -46l2 -60l17 56l16 56l23 -56q9 -24 10.5 -54.5t-6.5 -50.5q-8 -22 -7 -39.5t11 -23.5q8 -6 14.5 -42t6.5 -81q0 -84 -30 -142.5t-73 -58.5q-11 0 -22 -9t-16 -20q-10 -28 -50 -6q-43 25 -66 75
q-9 20 -20.5 34.5t-18.5 14.5t-12 10t-5 23.5t-7.5 23.5t-17.5 10q-11 0 -15 15.5t1 40.5q4 24 1.5 43.5t-9.5 23.5q-14 7 -12 73.5t11.5 144.5t26 150t32.5 91q25 28 35 152t-10 156q-6 11 -10 34t-3 43q4 51 0 107q-2 40 -6 40t-17 -29q-14 -32 -19 -1q-3 20 -5 68
q-3 112 -12 219q-8 95 8 96q2 0 3 -1q8 -5 22 14.5t24 51.5z" />
    <glyph glyph-name="l" unicode="l" horiz-adv-x="419" 
d="M318 259q-1 63 5 59q2 -2 4 -8q10 -40 1 -90q-5 -27 -8 -1q-2 14 -2 40zM319 718q0 97 5 89q2 -2 4 -17q9 -72 0 -145q-5 -36 -7 -1q-2 24 -2 74zM58 1239q13 21 32 14t31 -37q9 -23 15.5 -24.5t18.5 17.5q11 19 33 19.5t39.5 -15t17.5 -37.5q0 -13 6 -23.5t14 -10.5
q18 0 26.5 -33.5t4.5 -81.5t-20 -86q-31 -76 -9 -98q10 -10 15.5 -52.5t3.5 -94.5q-2 -89 -9 -83q-1 1 -3 10q-3 20 -12.5 35t-17.5 15q-9 0 -14.5 -91t-4.5 -233q1 -134 7.5 -229.5t14.5 -95.5q9 0 15 11.5t6 28.5q1 20 6 20q6 0 25 -35q24 -45 35 -33q3 3 6 11q4 9 8 -12
q15 -71 14 -209q0 -34 -2 -57q-3 -40 18 -133q13 -57 10 -80t-27 -40q-38 -28 -11 -29q37 -1 26 -33q-13 -35 -71 -75q-73 -50 -89 -50q-7 0 -21 22.5t-27.5 54.5t-36.5 63t-42 44q-27 16 -39.5 56.5t-5 78t32.5 46.5q21 8 25 45t-2 142q-11 175 -23 625q-4 186 -14.5 336.5
t-20.5 176.5q-16 44 -11 124t27 116zM261 -149q11 39 0 67q-7 17 -10 -8q-2 -12 -2 -31q0 -42 7 -39q2 2 5 11zM328 -149q11 39 0 67q-7 17 -10 -8q-1 -12 -1 -31q0 -42 6 -39q2 2 5 11z" />
    <glyph glyph-name="m" unicode="m" horiz-adv-x="1646" 
d="M1113 991q58 7 127 -8.5t83 -39.5q6 -9 26 -21.5t43 -21.5t52 -36.5t47 -57.5q35 -60 22 -59q-2 0 -5 1q-26 17 -24 -2q3 -25 54 -100q25 -36 44.5 -110.5t28 -148t4 -134.5t-23.5 -73q-18 -11 -19 -20.5t15 -25.5q20 -20 26.5 -63t-2 -78.5t-29.5 -35.5q-13 0 -23 -9
t-10 -22q0 -33 -68 -18q-78 17 -143 69q-18 15 -31 30q-18 21 -27 35.5t-16 31t-8.5 43.5t-2 57t1.5 87q5 151 -16.5 248t-60.5 97q-36 0 -91 -63.5t-141 -202.5q-26 -43 -43 -67.5t-35 -45t-30.5 -28.5t-30.5 -10.5t-35 0.5t-44 12q-7 2 -18 -4t-58 39t-89.5 100t-42.5 73
q0 42 -21 40q-25 -4 -51 -61l-4 -10q-26 -63 -56 -199.5t-33 -209.5q-3 -49 -34 -70.5t-82.5 -11t-111.5 51.5l-92 61l-4 304q-5 304 23 380q42 117 73 54q3 -5 5 -11q6 -16 10.5 -20t11 1t19.5 23q11 15 26 22.5t24 2t41.5 4t67.5 27.5q58 29 133.5 39.5t136.5 -1t80 -40.5
q28 -44 68 -42.5t77 48.5q53 67 143.5 130.5t142.5 69.5z" />
    <glyph glyph-name="n" unicode="n" horiz-adv-x="927" 
d="M862 17l18 63l7 -62q9 -73 -11 -84q-8 -5 -18 6q-6 5 -4.5 27.5t8.5 49.5zM580 834q40 6 67 -4t121 -66q31 -18 50.5 -37.5t34 -47t22.5 -72t12.5 -101.5t7.5 -146q4 -156 -0.5 -206.5t-23.5 -50.5q-13 0 -27.5 -13.5t-21.5 -31.5q-12 -29 -18 -28q-2 1 -2 6
q-2 16 -17 -15l-7 -16l-21 -52l-64 64q-42 42 -55 84.5t-23 166.5q-15 188 -26 199q-10 11 -32 -7t-46 -56.5t-40 -81.5q-53 -144 -82 -249.5t-21 -126.5q8 -20 -2 -35t-28 -14.5t-30 18.5q-13 19 -21.5 17.5t-22.5 -26.5q-55 -92 -173 51l-31 38t-18.5 27t-10.5 21.5
t0 19.5t6.5 22l14.5 28q18 36 26 106.5t8 203t8 204.5t28 111q50 101 81 53q4 -7 8 -18q14 -35 56 -22q25 8 34 0.5t9 -36.5v-49l51 45q57 50 116 83t103 40zM858 270q-14 23 -24 23t-10 -23q0 -9 6.5 -15.5t17 -6.5t13 6.5t-2.5 15.5z" />
    <glyph glyph-name="o" unicode="o" horiz-adv-x="1142" 
d="M344 981q31 33 68 52t68.5 22t56 -10.5t32.5 -42.5q21 -78 11.5 -135t-45.5 -79q-39 -24 -41 -15q0 4 6 22q9 21 0 20q-10 -1 -52 -31q-59 -42 -96 -92t-37 -86q1 -19 5 -20q6 -1 25 24q0 1 1 3q41 54 43 34t-42 -95q-56 -96 -56 -109.5t66 -81.5q38 -39 70.5 -53.5
t80.5 -14.5q77 0 113 20.5t40 66.5q2 29 -11.5 38t-60.5 9q-69 0 -85.5 35t9.5 124q24 80 104.5 137t179.5 64q23 2 37 2.5t30.5 -1.5t26 -5.5t23 -13t22 -19.5t23.5 -31t27.5 -41l33.5 -54q152 -251 54 -443q-22 -44 -87.5 -103t-136 -101t-107.5 -42q-20 0 -34.5 -5.5
t-14.5 -12.5t-19 -19.5t-46 -22.5q-42 -16 -55.5 -13t-20.5 31q-8 28 -41 39q-32 11 -40 -10q-2 -4 -2 -9q0 -14 -41 -16t-93.5 8t-82.5 26q-32 17 -108.5 123.5t-76.5 133.5q0 13 54 -45l12 -12l66 -73l-55 110q-23 45 -39.5 104t-16.5 97q-1 69 -9 69q-5 0 -15 -18
q-9 -17 -11.5 -49t4.5 -63q11 -54 2 -55q-4 -1 -15 10q-14 14 -15 71t10.5 108.5t27.5 51.5q8 0 24.5 36.5t31.5 86.5q58 194 220 364zM817 2q6 10 3.5 16t-12.5 6q-23 0 -36 -22q-6 -10 -3.5 -16t12.5 -6q22 0 36 22z" />
    <glyph glyph-name="p" unicode="p" horiz-adv-x="1075" 
d="M515 964q118 13 218 3.5t142 -37.5q20 -12 46 -53.5t42 -85.5q38 -107 61 -156q25 -52 20.5 -121t-35.5 -130q-39 -74 -131 -140.5t-260 -140.5l-201 -90l4 -284q4 -124 0.5 -191t-11 -90.5t-29.5 -43.5q-69 -65 -121 -58t-124 90l-86 101l20 183q21 185 15.5 380.5
t-34.5 335.5q-16 75 -19.5 107t2 49.5t23.5 35.5q15 15 30.5 37.5t20.5 37.5q6 15 17 26t21.5 11t38 23.5t56.5 56.5q67 78 119.5 105.5t154.5 38.5zM688 615q-18 14 -51.5 11.5t-76 -22t-80 -44.5t-63 -55.5t-25.5 -55.5q0 -34 9 -38q14 -6 97 35l49 25q92 46 128.5 83
t12.5 61z" />
    <glyph glyph-name="q" unicode="q" horiz-adv-x="1359" 
d="M1230 143q-27 10 8 13h5q32 2 31 -7q0 -2 -2 -4q-5 -5 -17.5 -6t-24.5 4zM400 928q129 83 140 43q1 -3 1 -7q0 -9 -7.5 -16t-18 -7t-13.5 -4.5t2 -9.5q6 -6 27 -1.5t45 16.5q33 18 48.5 18.5t26.5 -15.5q7 -12 22.5 -16t30.5 2q19 7 41 -10.5t32.5 -44.5t-0.5 -44
q-5 -8 1.5 -18t19.5 -15q19 -7 24 -33.5t-1 -90.5q-11 -112 -34.5 -172t-1.5 -83q30 -30 144.5 -48.5t248.5 -15.5q144 3 150 -7q3 -6 -17 -19q-18 -13 -61.5 -30.5t-86.5 -30.5q-29 -8 -51.5 -17.5t-34 -17.5t-8.5 -13q4 -7 -1 -13t-17 -7q-20 -1 15 -21l23 -11l67 -31
l-78 -1q-56 0 -57 -10q0 -5 10 -11q13 -8 17.5 -21t-1.5 -24q-8 -11 2 -18t33 -8q47 -2 -19 -21q-6 -2 -14 -4q-46 -12 -62.5 -25t-10.5 -31q12 -33 26.5 -120.5t37.5 -86.5q13 0 23 37q5 20 9 -9q3 -20 4 -56q1 -52 -7 -81t-31 -63t-84 -106l-58.5 -68t-49 -47.5t-42.5 -32
t-40 -12.5t-41.5 2.5t-47.5 21t-57 35l-70 51.5q-112 85 -175 208t-73 273q-3 42 -4 60t-8.5 43.5t-13 36t-25 35t-37 41.5l-56.5 55l-55.5 53.5t-36.5 39.5t-23.5 30.5t-9 26.5t-1.5 29l6 35q6 35 29.5 78t50.5 70t43 54.5t11 39.5q-5 13 1.5 25t22 17.5t25 17.5t9.5 25
q0 12 13 29t31.5 28.5t32 29.5t13.5 32q0 13 24.5 39t57.5 48zM329 542q33 33 55 65.5t19 43.5q-7 22 -53 -25.5t-76 -109.5q-16 -31 -10 -31q8 1 65 57zM708 -92q-18 178 -41 169q-11 -5 -21 -55q-29 -143 -5 -234q17 -64 52 -46q1 1 3 2q26 17 12 164z" />
    <glyph glyph-name="r" unicode="r" horiz-adv-x="1121" 
d="M368 1201q60 26 120 28t198 -18q90 -13 128.5 -32.5t98.5 -84.5q90 -97 135 -240q17 -51 25 -77.5t13 -55t5 -40.5t-6.5 -28.5t-15 -26l-25.5 -27.5q-41 -40 -72.5 -50.5t-45.5 12.5q-5 9 -16 11.5t-23 -1.5q-16 -6 -52.5 36.5t-67 99t-30.5 84.5q0 41 -80 74
q-58 24 -81 21t-84 -42q-35 -23 -70.5 -62t-50.5 -72q-17 -34 -34.5 -61t-27.5 -33q-23 -15 -8 -448q13 -355 3 -406q-5 -28 -22 -28q-15 0 -29.5 8t-21.5 20q-17 28 -29 -24q-12 -49 -36 -53q-18 -3 -26 25q-2 5 -3 10q-3 17 -14.5 39.5t-24.5 38.5q-18 20 -27 107.5
t-16 286.5q-11 358 -21 492q-11 138 6.5 225.5t57.5 95.5q17 3 53 28.5t69.5 58.5t76.5 65t71 44z" />
    <glyph glyph-name="s" unicode="s" horiz-adv-x="1014" 
d="M553 1077q70 16 74 19q18 10 41 -16t17 -49q-5 -17 -0.5 -33.5t15.5 -22.5q25 -16 -23 -50.5t-22 -50.5q18 -11 -47 -52q-20 -13 -46 -26q-118 -63 -170 -102l-51 -39l129 -37q143 -42 262.5 -86.5t153.5 -70.5q27 -19 52.5 -88.5t38.5 -149t4 -127.5
q-21 -109 -64 -172.5t-122 -101.5q-106 -50 -223 -59t-229 24q-77 22 -109 35.5t-51.5 30.5t-45.5 55q-28 41 -23 95q3 36 21 35q4 0 9 -3q8 -5 17.5 0.5t14.5 19.5q8 19 48.5 25t149.5 4q158 -3 220 28t62 114q0 27 -5 43t-17 30t-41.5 24.5t-67.5 20t-106 22.5
q-118 23 -190.5 45.5t-118.5 53.5t-63 69t-17 94q0 43 55.5 113.5t134.5 138.5t172 124t161 73z" />
    <glyph glyph-name="t" unicode="t" horiz-adv-x="988" 
d="M472 1189q36 68 81 64.5t75 -77.5q22 -51 22.5 -110.5t-18.5 -227.5l-29 -259l68 13q68 14 160 21l92 6l21 -103q20 -97 11.5 -138t-48.5 -41q-17 0 -34 -7t-23 -16t-19.5 -13t-25.5 1q-12 4 -42 1t-61 -11q-72 -22 -86 1q-6 9 -20.5 3.5t-31.5 -23.5q-16 -17 -22 -33.5
t2 -21.5t12.5 -61.5t2.5 -132.5q-3 -181 24 -196q19 -11 32 -101t11 -176t-21 -86q-11 0 -28 10.5t-28 23.5q-27 34 -80 20q-33 -8 -40 -4q-16 9 -17 105q-1 49 3 290l5 322l-54 -15q-158 -45 -172 -23q-2 3 -2 7q0 10 -13.5 17.5t-31.5 7.5q-28 0 -61 34t-48.5 75.5
t-0.5 60.5q10 11 60 30t112 35q127 33 150 44q46 21 59 65q13 41 15 197q1 48 1 65q6 295 38 357z" />
    <glyph glyph-name="u" unicode="u" horiz-adv-x="920" 
d="M637 1068q39 11 61.5 16.5t43.5 7t30.5 -1.5t19.5 -13.5t15.5 -23.5t12.5 -38q40 -132 58 -307t9 -329.5t-42 -231.5q-19 -42 -52 -87.5t-72.5 -84.5t-83 -73.5t-85.5 -58t-79 -36t-65 -9t-41 24.5q-6 10 -27.5 16.5t-47.5 6.5q-60 0 -88 22.5t-70 104.5
q-49 97 -78.5 307t-25.5 404t44 248q11 15 42 28.5t65 18.5q58 8 78 -12q29 -29 35 -167q4 -74 4 -255q1 -339 25 -364q16 -17 42 -14t56 17t61.5 40.5t58.5 57t46.5 67t26.5 69.5q10 57 -6.5 246t-43.5 322q-8 39 4 52.5t69 29.5z" />
    <glyph glyph-name="v" unicode="v" horiz-adv-x="1259" 
d="M1017 885q23 51 45.5 54t34.5 -43q5 -19 24 -32.5t46 -16.5q18 -2 27.5 -5t17 -9t10.5 -20.5t4.5 -32t2.5 -51.5q1 -48 -9.5 -97.5t-27.5 -78t-33 -20.5q-20 10 -38 4t-18 -23q0 -10 -22 -44.5t-53 -72.5q-75 -93 -104 -149t-160 -228q-99 -129 -158 -169t-122 -19
q-40 13 -151 165.5t-207 319.5t-96 215q0 27 22 51t49.5 31t51.5 -5q22 -14 65 -14q23 0 52.5 -40t75.5 -134q36 -72 69.5 -122.5t46 -50.5t65.5 45.5t117.5 111t118.5 111t66 45.5q13 0 37.5 18t46.5 44q31 35 40 63.5t2 70.5q-13 72 12 72q10 0 24.5 16.5t25.5 39.5z" />
    <glyph glyph-name="w" unicode="w" horiz-adv-x="1361" 
d="M1120 996q32 33 73 28t66 -43q11 -19 26 -32.5t24 -13.5q68 0 -79 -372q-18 -45 -57 -268q-35 -200 -96 -320t-144 -152q-17 -6 -65.5 17.5t-114.5 69.5l-143 100l-32 -79q-13 -32 -31 -55.5t-31 -23.5q-12 0 -21 -7t-9 -15q0 -17 -27 -21.5t-59.5 5t-48.5 27.5
q-11 13 -25.5 19.5t-22.5 1.5t-18 3.5t-16 25.5q-13 40 -55 144t-113 382l-71 279l50 41q20 16 43.5 28t35.5 12q34 0 90.5 -82.5t88.5 -181.5q16 -49 32.5 -84t23 -35t20.5 13t27 32t34 32t38 13t29 6.5t12 16t18 16t44 6.5q37 0 60 -20t56 -82q22 -43 44.5 -71t32 -24.5
t25 32t28.5 65.5q30 89 52 127q15 25 34.5 142.5t14.5 151.5q-2 15 47.5 67t66.5 52q16 0 43 27z" />
    <glyph glyph-name="x" unicode="x" horiz-adv-x="1080" 
d="M143 146q15 24 24 20.5t9 -34.5q0 -14 -7 -20t-16 0q-22 13 -10 34zM819 712q19 6 38.5 4t28.5 -10q21 -19 57 -19q18 0 48.5 -55t48 -115.5t5.5 -73.5q-16 -15 -166 -117q-63 -42 -103.5 -78.5t-35.5 -45.5q11 -23 32 -16q8 3 24.5 -5t31.5 -22t43.5 -30.5t53.5 -25.5
q27 -10 43.5 -27.5t15.5 -35.5q-3 -41 27 -109q17 -38 25 -61t9 -37.5t-5 -20t-20 -5.5t-23 -7.5t-9 -19.5q0 -15 -6 -15t-21 15q-27 27 -62 27q-14 0 -66.5 40.5t-111.5 97.5l-144 137l-113 -117q-74 -76 -106 -94.5t-75 -9.5q-27 6 -59.5 25.5t-49.5 40.5q-20 24 -32 54.5
t-10 52.5t17 22q23 0 104 80.5t81 103.5q0 13 -35 45.5t-84 66.5t-95 78t-63 72q-26 46 -27 63t23 41q49 49 104.5 49.5t133.5 -48.5q41 -25 75.5 -52.5t41.5 -39.5q8 -13 27 -29.5t38 -26.5q27 -14 45.5 -11t43.5 26q17 15 30 34.5t13 29.5q0 24 84 92.5t130 81.5z" />
    <glyph glyph-name="y" unicode="y" horiz-adv-x="1133" 
d="M840 925q75 41 114 18.5t83 -132.5q22 -56 41 -135.5t23 -135.5q9 -118 -25.5 -299t-84.5 -283q-34 -67 -128.5 -191.5t-121.5 -136.5q-18 -8 -18 -35q0 -23 -68.5 -86t-94.5 -63q-22 0 -83 -43q-86 -61 -137.5 -59t-131.5 70q-39 34 -66.5 65.5t-27.5 42.5t20.5 28.5
t51 32t54.5 34t28 33.5q7 22 2 22q-4 0 -21 -17q-31 -28 -76 -27q-33 0 -32 20q0 2 1 6q4 13 26 27t46.5 21.5t47.5 8.5t29 -10q6 -9 32.5 -12.5t58.5 1.5q45 6 127.5 70t148 139.5t65.5 110.5q0 19 9.5 56.5t23.5 70.5q26 64 14 66q-1 0 -3 -1q-9 -6 -15.5 -3t-6.5 13
t-22 17t-52 7q-74 0 -186 80t-263 169q-163 97 -187.5 163t85.5 108q55 21 68 22q36 4 119 -42l285 -174q108 -67 108 -113q0 -19 10.5 -45.5t23.5 -44.5q22 -29 32 -30.5t24 20.5q32 48 28 178t-42 235q-13 38 -17 58t3.5 39t24.5 32t53 34zM633 -473q0 20 -29 6
q-23 -11 -43 -35q-20 -25 -16 -26t37 17q20 11 35.5 22.5t15.5 15.5z" />
    <glyph glyph-name="z" unicode="z" horiz-adv-x="1043" 
d="M135 897q35 27 69 32.5t121 -4.5q135 -14 310 -28q95 -7 135 -17t40 -27q0 -30 43 -112l43 -81l-60 -85q-60 -84 -212 -260q-63 -73 -105.5 -127t-39.5 -58q8 -9 96 -19.5t128 -22.5q17 -5 28 -1t11 16q0 32 41.5 55t71.5 8q34 -18 73 -29q17 -5 28.5 -21.5t11.5 -35
t6.5 -36t16 -23t16 -28.5t6.5 -51q0 -41 -24.5 -68t-89 -47.5t-165.5 -33.5t-265 -23q-125 -8 -176 -2t-112 37q-38 20 -76 53.5t-52 61.5t-19 39.5t-2.5 26t11.5 24t32 31.5q58 53 58 64t79 95q32 34 55.5 64.5t23.5 39.5q0 20 67.5 165.5t67.5 170.5q0 10 -23.5 17.5
t-57.5 7.5q-73 0 -152.5 45.5t-96.5 96.5q-8 26 0.5 46t38.5 44z" />
    <glyph glyph-name="braceleft" unicode="{" horiz-adv-x="704" 
d="M463 1229q74 46 110.5 41.5t71.5 -64.5q33 -56 28.5 -95.5t-43.5 -39.5q-37 0 -57 -28.5t-29 -94t-9 -184.5q0 -115 -3.5 -161.5t-14 -73t-38.5 -56.5l-57 -61l71 -60q32 -27 55.5 -64t29.5 -71q9 -50 -3.5 -81t-69.5 -99q-52 -62 -80.5 -104t-41.5 -86.5t-7 -77
t36 -77.5t74.5 -88t120.5 -108q48 -41 57.5 -64.5t-1.5 -75.5q-16 -73 -33 -54l-2 4q-18 29 -115 15q-68 -10 -96 0t-88 69q-69 66 -64 66q3 0 50 -31q59 -39 72 -29q1 1 1 4q0 16 30 -8q8 -6 17 -15q20 -20 40.5 -28t32.5 0q14 10 11.5 15.5t-22.5 9.5q-16 3 -31.5 17
t-20.5 31q-6 18 -29 54.5t-51 72t-47.5 66t-19.5 39.5q0 8 -10 24t-24 30q-27 27 -33 20q-1 -1 -1 -2q0 -14 -37 18q-3 3 -7 6q-17 16 -34.5 57.5t-23.5 81.5q-9 63 -1 103.5t45 111.5q58 114 58 118.5t-102 56.5l-42 21.5t-27.5 17.5t-18 16.5t-8 19.5t-3 24.5t2.5 33.5
q4 47 22 75t64 59q108 73 134 101q36 39 38 105q2 33 -6 134q-13 167 0 179q1 2 3 0q8 -7 25 7.5t35 43.5q17 28 51 61.5t65 51.5z" />
    <glyph glyph-name="bar" unicode="|" horiz-adv-x="506" 
d="M123 1184q33 21 57.5 18.5t63.5 -32.5q23 -17 31 -37q19 -45 53 -326l38 -323q10 -79 19.5 -256t14.5 -346q9 -326 1 -378q-5 -36 -26 -45q-4 -1 -9 -3q-18 -6 -41 -2.5t-37 15.5q-20 16 -29.5 11.5t-20.5 -34.5q-13 -36 -21 -37.5t-36 25.5q-15 14 -33.5 21.5t-27.5 2
t-15.5 4t-6.5 28.5t-7 32.5t-17 13.5q-24 0 -10 727q15 726 25 831q8 70 27 86q3 2 7 4z" />
    <glyph glyph-name="braceright" unicode="}" horiz-adv-x="905" 
d="M209 1207q0 24 86 9q144 -26 218.5 -80t127.5 -171l24.5 -56t12.5 -42t2 -34t-12.5 -30t-24 -32.5t-39.5 -38.5q-32 -31 -55 -61t-23 -40q0 -12 37.5 -42.5t81.5 -56t61 -25.5q9 0 37 -20.5t59 -49.5q39 -37 56 -69.5t17 -68.5q0 -30 -5 -46t-27 -31.5t-55.5 -26
t-101.5 -27.5q-53 -13 -72 -26.5t-12 -32.5q14 -33 40 -178q25 -142 -1.5 -299t-85.5 -212q-42 -39 -51 -29q-1 2 -1 4q0 10 8 20t20 14t16 11.5t-2 14.5q-9 10 -126 -43t-142 -79q-11 -11 -131 -16q-110 -4 -111 18q0 2 1 5q4 11 17 19t28 8q36 0 52 16q11 11 -5 32.5
t-41.5 34.5t-39.5 5q-11 -7 -15 -3t0 18q5 12 42 28.5t86 27.5t96 30.5t66 36.5q68 60 75 184t-49 263q-11 25 -18.5 73t-7.5 89q0 58 10 84t38 41q28 16 28 27q1 15 -52 64l-24 22q-59 54 -73.5 80t-2.5 59q18 52 22 115q2 26 20.5 70.5t42.5 81.5q59 89 59 98q0 12 -73 47
t-99 35q-12 0 -28.5 17.5t-25.5 40.5q-23 60 -20.5 80t32.5 20q13 0 23 7t10 16zM479 -320q12 22 18 59.5t2 69.5q-5 54 -8 55q-2 1 -4 -8q-3 -11 -15 -71q-8 -43 -20 -80.5t-21 -49.5q-23 -28 -2 -28q9 0 23.5 15.5t26.5 37.5zM383 -516q0 15 -3.5 21.5t-12 6.5t-22 -7.5
t-34.5 -21.5l-18 -13.5t-10 -8.5t-3 -5.5t7 -2.5t13.5 -0.5t24.5 1.5q23 1 40.5 10t17.5 20z" />
    <glyph glyph-name="asciitilde" unicode="~" horiz-adv-x="1498" 
d="M370 592q86 31 148 34.5t114 -24t92 -84.5t80 -154q34 -82 55.5 -126.5t48 -76.5t53 -46.5t70.5 -27.5q37 -10 62 -10.5t44.5 9t33 33.5t22.5 60t17 91q21 155 42 169q10 7 28 -10q26 -26 43 -23.5t17 32.5q0 14 -7.5 24t-18.5 10q-6 0 -10.5 1.5t-5.5 4.5t2 6
q4 5 23.5 2.5t43.5 -11.5q26 -10 49 -36t36 -56t16 -61t-11 -52q-10 -16 -22 -63t-18 -98q-13 -100 -53.5 -168.5t-97.5 -86.5q-20 -6 -50.5 -23t-52.5 -34q-26 -21 -75.5 -32.5t-88.5 -8t-39 22.5q0 10 -6.5 13t-15.5 -2q-19 -11 -89.5 23t-114.5 75q-15 15 -39.5 63
t-43 100t-39 98.5t-30.5 58.5q-25 29 -70 90q-19 26 -45 44t-44 18q-37 0 -85.5 -58t-61.5 -119q-19 -87 -46.5 -123.5t-67.5 -29.5q-22 4 -40.5 1.5t-24.5 -11.5q-25 -39 -47 3q-10 18 -16 51q-12 58 10 175.5t52 157.5q35 45 121 103t153 82z" />
    <glyph glyph-name="uni00A0" unicode="&#xa0;" horiz-adv-x="500" 
 />
    <glyph glyph-name="exclamdown" unicode="&#xa1;" horiz-adv-x="1141" 
d="M362 692q21 5 239.5 3t288.5 -7q26 -2 78 -65t52 -94q0 -17 -18.5 -50.5t-44.5 -62.5q-102 -111 -198.5 -354.5t-114.5 -432.5q-14 -146 -63.5 -201t-153.5 -41q-257 36 -346.5 115.5t-20.5 212.5q35 66 86 244.5t98 398.5q56 258 73 298q13 28 36 34q3 1 9 2zM447 1245
q77 56 402 -2q91 -17 133 -35t75 -55q22 -25 38 -52t16 -39q0 -36 -42 -64t-105.5 -41t-142.5 -9.5t-148 25.5q-159 52 -228 135q-61 72 -13 124z" />
    <glyph glyph-name="cent" unicode="&#xa2;" horiz-adv-x="919" 
d="M457 1125q18 32 53 38t70.5 -11t66.5 -54t41 -83q24 -107 -145 -606q-29 -85 -46 -150t-12 -70t33.5 4.5t63.5 28.5q79 41 164 54.5t106 -12.5q21 -27 35 -67q10 -30 -30 -85.5t-105.5 -107t-122.5 -69.5q-96 -31 -157 -67q-19 -11 -28 -19.5t-16.5 -19t-9.5 -31.5
t-2 -44.5t2 -71.5q3 -83 -2.5 -116t-21.5 -33q-12 0 -20.5 -7.5t-8.5 -17.5q0 -25 -72.5 -11.5t-106.5 16.5q-47 3 -63.5 34.5t-14.5 110.5q3 58 15 90.5t40 54.5q20 16 30 36t3 30q-7 11 -3 24t18 22q27 18 -14 20h-15q-51 0 -79.5 38t-28.5 105q0 24 -6.5 44t-15.5 26
q-34 21 -16 111t85 231q56 118 87.5 171.5t60 77.5t71.5 34q20 4 30 9t18.5 13t13.5 27.5t8.5 42.5t8.5 69q6 61 17.5 117t20.5 74zM369 358q-8 5 -17.5 19t-14.5 28q-8 21 -12.5 21t-13.5 -21q-13 -34 -19 -123q-3 -49 3 -69.5t23 -20.5q14 0 29 23t23 52t10 56t-11 35z
" />
    <glyph glyph-name="sterling" unicode="&#xa3;" horiz-adv-x="1168" 
d="M835 874.5q0 18.5 6.5 31.5t15.5 13t15.5 -13t6.5 -31.5t-6.5 -32t-15.5 -13.5t-15.5 13.5t-6.5 32zM492.5 1246.5q20.5 21.5 41.5 37t31 15.5t46 -27t78 -66q78 -72 98 -70q3 1 3 4q0 12 6 15.5t16 -1.5q10 -6 16.5 -32t6.5 -58q0 -43 -10 -62.5t-36 -27.5
q-32 -11 -33.5 -19t23.5 -36q16 -19 19.5 -33.5t-6.5 -21.5q-9 -6 -23.5 4.5t-24.5 30.5q-30 55 -77.5 89t-82.5 25q-53 -13 -102.5 -84t-49.5 -133q0 -77 33.5 -201.5t69.5 -178.5q23 -35 42 -43.5t54 0.5q99 25 150 9.5t98 -85.5q56 -82 63 -98t-27.5 -32t-92.5 -25.5
t-115 -7.5l-118 4v-155q0 -155 -15 -228l-14 -73l87 18q82 17 197 12.5t122 -25.5q3 -8 15 -14t25.5 -6t20.5 -8.5t3 -19.5q-4 -12 12 -44.5t43 -67.5t42 -66t9.5 -40.5t-58 -16t-121 -6.5t-134 -6.5t-89.5 -15.5t-103 -23t-167 -24q-122 -14 -173.5 -13.5t-70.5 15.5
q-14 11 -34 15t-33 -1q-20 -7 -39.5 8.5t-24.5 40t6 47.5q8 12 11.5 40.5t0.5 53.5t0.5 47.5t11.5 27.5q32 20 105.5 170.5t84.5 217.5l16 94l-76 2q-44 1 -66.5 2t-44.5 3.5t-30.5 5.5t-16 10.5t-9.5 15t-3 21.5q-3 22 -11 36.5t-16 14.5q-31 0 -19 25q12 27 59 54
q40 23 41 28q0 3 -23 -1l-8 -2q-20 -4 -38.5 -1.5t-22.5 9.5q-11 18 26 30q49 16 88 -1q1 0 2 -1q40 -19 73.5 -14.5t59.5 6.5q14 1 11.5 31.5t-21.5 99.5q-16 56 -26 152.5t-11 188.5q-1 139 8 188t42 96q22 30 51 55.5t50 31.5q20 7 49 27t49.5 41.5z" />
    <glyph glyph-name="guillemotleft" unicode="&#xab;" horiz-adv-x="1181" 
d="M119 394q10 18 20.5 31.5t15.5 13.5q10 0 -12 -42q-1 -2 -2 -3q-10 -19 -20.5 -32t-15.5 -13q-10 0 12 42q1 1 2 3zM792 640q103 108 188.5 92t133.5 -153q17 -50 8.5 -74.5t-63.5 -85.5q-73 -82 -123 -176t-50 -152q0 -46 43 -83t120 -56q124 -30 98 -134
q-13 -50 -54 -73t-146 -38q-73 -10 -98.5 -2.5t-66.5 50.5l-129 137q-37 37 -50 61.5t-17 60.5t-4 125q1 152 49 267.5t161 233.5zM334 716q11 17 21.5 30t19 18.5t11.5 1.5q6 -6 -5.5 -24t-33.5 -39l-52 -50zM412 727q31 49 61 83.5t41 34.5q79 0 -81 -237
q-91 -135 -137 -221.5t-34 -98.5q7 -8 18 18q4 8 7 18q6 20 16.5 33.5t19.5 13.5t15.5 9.5t6.5 23t13 30.5t31.5 27.5t32 26.5t13.5 29q0 12 10 25t23.5 18t24 17.5t10.5 23.5q0 18 27 44.5t57 42t37 4.5q7 -13 -26.5 -89.5t-79.5 -152.5q-73 -120 -123 -214.5t-50 -112.5
q0 -11 26.5 -45.5t65.5 -73.5q85 -84 84.5 -133.5t-86.5 -68.5q-75 -16 -136.5 8t-86.5 78q-11 22 -25 38t-23 16q-17 0 -49.5 45.5t-58.5 101.5t-26 84q0 21 10 52.5t25 55.5q18 30 22 29q3 -1 -1 -13q-12 -41 3 -39q19 3 53 61l8 14q52 98 80.5 142.5t62.5 83.5
q45 49 119 168z" />
    <glyph glyph-name="plusminus" unicode="&#xb1;" horiz-adv-x="1389" 
d="M1023 -240q73 29 121.5 18.5t113.5 -69.5q48 -43 68 -79t27 -88q4 -29 5 -44t-0.5 -28t-11 -22t-20.5 -16.5t-35 -20.5q-50 -27 -109 -34q-87 -12 -570 -20h-1h-1h-1h-1h-1h-1h-1h-1h-1h-1h-1h-1l-1 -1h-1h-1h-1h-1h-1h-1h-1h-1h-1h-1h-1h-1h-1h-1h-1h-1h-1h-1h-1h-1h-1
h-1h-1h-1h-1h-1h-1h-1h-1h-1h-1h-1q-237 -4 -326 1t-112 23q-38 32 -68.5 107t-30.5 137q0 60 30 82q44 32 220 36q87 2 269 0q179 -2 314.5 3t159.5 15zM689 931q22 22 69 25t75 -16q11 -6 24 -40.5t22 -76.5l7.5 -36t8 -25.5t9 -18.5t14.5 -10.5t18.5 -5.5t27.5 2t35.5 5
l48.5 9q50 10 78.5 2t72.5 -45q55 -47 78 -109.5t7.5 -118t-65.5 -83.5q-20 -11 -70.5 -24t-99.5 -20q-121 -17 -130 -26t-23 -189q-22 -265 -100 -266q-19 0 -42 14q-20 13 -48.5 44t-47.5 61q-28 46 -34 82t3 105l15 113l-102 -15q-95 -14 -143 12.5t-97 120.5
q-28 52 -35 74t-3.5 38.5t23.5 46.5q22 32 54 48t93 24q157 21 186 32q35 13 41 45q3 15 3 77q0 50 8 92t19 53z" />
    <glyph glyph-name="acute" unicode="&#xb4;" horiz-adv-x="522" 
d="M239 1206q63 46 70 47q12 1 57 -43t85.5 -94t40.5 -65q0 -17 -23 -74.5t-55 -121.5q-48 -95 -76 -128t-70 -43q-28 -7 -53 -21t-33 -28q-11 -20 -24 -22t-42 13q-107 56 -81 197q17 92 84 217.5t120 165.5z" />
    <glyph glyph-name="guillemotright" unicode="&#xbb;" horiz-adv-x="1006" 
d="M78 754q52 21 59 22q21 4 91.5 -46.5t117.5 -103.5q149 -169 154.5 -334t-133.5 -277q-32 -26 -58.5 -31t-72.5 5q-64 15 -91 43t-13 66q24 68 38 162t5 132q-5 23 -28.5 66t-51.5 80q-60 81 -64.5 138t47.5 78zM494 965q6 6 35 11t65 5q55 0 88 -20.5t100 -95.5
q194 -216 194 -505q0 -119 -18.5 -185.5t-64.5 -112.5q-28 -28 -56 -33.5t-102 1.5q-30 3 -44 67t-19 218q-5 164 -33 262t-94 182q-46 60 -61 120.5t10 85.5z" />
    <glyph glyph-name="questiondown" unicode="&#xbf;" horiz-adv-x="1170" 
d="M482 744q67 81 174 -41q60 -68 88 -170.5t40 -289.5q7 -82 5 -126.5t-9.5 -59t-29.5 -26.5q-38 -20 -89.5 -8.5t-95.5 49.5q-19 15 -42.5 14.5t-51.5 -19t-54 -47t-50.5 -69.5t-42.5 -87q-30 -82 -39 -126t0 -73t41 -58q44 -41 118 -56t231 -15q99 0 140.5 9t66.5 34
q54 56 99.5 56.5t96.5 -54.5l62 -65l-42 -86q-30 -61 -79 -92t-134.5 -41t-233.5 -3q-205 10 -315.5 53.5t-212.5 154.5q-63 69 -78 104t-15 113q0 68 19.5 129t75.5 169q70 133 119 202.5t93.5 99.5t100.5 30h37t24 3.5t16 6.5t7.5 14t3.5 21v33q0 31 -10 85t-25 96
q-20 61 -22 89t13 47zM374 1258q28 11 110 13q88 2 153 -72q56 -65 52 -133q-4 -64 -66 -87q-24 -9 -33.5 -13t-26 -4.5t-22 1.5t-25 14t-32 23l-43.5 39q-53 45 -74 77.5t-21 67.5q0 25 8.5 47.5t19.5 26.5z" />
    <glyph glyph-name="Aacute" unicode="&#xc1;" horiz-adv-x="1170" 
d="M352 755q72 29 139.5 19t110.5 -55q21 -23 73.5 -122t104.5 -214l251 -539q76 -159 96 -219t8 -94q-8 -22 -26.5 -44.5t-34.5 -29.5q-93 -41 -155.5 3t-125.5 196q-30 73 -49 95.5t-44 16.5q-17 -5 -33 -14t-21 -17t-47 -14t-96 -6h-5h-39t-31 -2.5t-25.5 -3t-18.5 -8.5
t-15 -11.5t-10.5 -19.5t-8.5 -25t-5.5 -35.5t-6.5 -44t-6 -56.5v-6q-7 -62 -16 -97.5t-26.5 -58.5t-42 -30.5t-65.5 -7.5q-48 0 -84 27t-53 70.5t-14.5 102t27.5 118.5q13 31 40 146.5t52 245.5q56 294 89.5 443t59 214.5t53.5 76.5zM563 159q-20 41 -38.5 70t-23.5 29
q-13 0 -39 -94.5t-17 -108.5q3 -5 29 -6.5t58 2.5l79 9zM589 1320q52 17 110.5 7.5t76.5 -37.5q19 -30 20.5 -71.5t-13.5 -85t-41.5 -84.5t-65 -74.5t-81.5 -51.5q-32 -13 -45.5 -18t-30.5 -1.5t-28.5 13t-37.5 33.5q-131 125 5 274q29 32 67 60t64 36z" />
    <glyph glyph-name="Adieresis" unicode="&#xc4;" horiz-adv-x="1384" 
d="M543 810q63 44 138 27t125 -87q42 -58 123.5 -225t140.5 -314q88 -220 143 -341t100 -192q31 -49 38.5 -78.5t-3.5 -59.5q-12 -32 -27 -40t-49 0q-24 6 -40 3.5t-16 -12.5t-10 -16t-25 -6q-19 0 -24 -11t3 -35q12 -40 -7 -44q-21 -4 -46 36q-3 5 -6 11q-25 47 -67 89
q-17 17 -33.5 48t-22.5 57l-11.5 49t-10 31t-10 20t-14.5 6t-19.5 0t-28.5 -8q-25 -7 -61 -7.5t-59 6.5q-47 13 -126 6t-160 -32q-43 -13 -62.5 -34.5t-33.5 -70.5q-24 -84 -24 -113t-22 -72q-15 -27 -29.5 -30t-52.5 13q-39 17 -56 12t-47 -41q-34 -42 -33 -33q0 2 2 6
q6 11 -1.5 24t-24.5 19.5t-33 18t-23 20.5q-17 27 0 98t53 116q17 22 29.5 47.5t12.5 38.5q0 14 11 21t28 4q25 -4 35 20t19 109q6 55 34 158t61 191l138 369q24 65 37.5 115.5t8.5 58.5t6.5 24t31.5 30zM747 193q-73 134 -103 128q-15 -3 -15 -45q0 -44 -18.5 -78
t-40.5 -31q-16 3 -24 -21t-3 -53t21 -38q22 -14 122 -11t114 18q5 5 -11 43.5t-42 87.5zM967 1274q45 11 93 -2.5t83 -42t54 -68.5t9 -79q-8 -33 -47.5 -63.5t-90 -46t-87.5 -5.5q-24 6 -49.5 31.5t-41.5 60.5q-24 51 -25.5 76t17.5 64q12 26 37 47.5t48 27.5zM189 1277
l77 17t83 -43q60 -37 80 -82.5t-3.5 -88.5t-85.5 -72q-64 -30 -102.5 -24.5t-80.5 51.5q-28 30 -37 61t-6 80q5 57 17.5 74.5t57.5 26.5z" />
    <glyph glyph-name="Aring" unicode="&#xc5;" horiz-adv-x="1298" 
d="M687 900q54 29 88 4q103 -77 125 -194q21 -119 63.5 -297t57.5 -211q20 -45 46 -158q22 -95 69.5 -201.5t99.5 -177.5q29 -41 31 -61t-19 -59q-34 -62 -67 -68.5t-84 40.5q-58 53 -69 24q-14 -39 -51 -20q-38 19 -57 70q-8 24 -9 47q0 41 -17 60.5t-58.5 25.5t-124.5 0
q-58 -3 -92.5 -5.5t-70.5 -6.5t-54 -7.5t-38 -10t-28.5 -12.5t-19 -17.5t-16 -22.5t-12.5 -29q-34 -81 -35 -130q-1 -20 -16.5 -53.5t-37.5 -60.5l-53 -65l-58 65q-34 39 -51.5 46.5t-35.5 -10.5q-32 -32 -47.5 -25t-15.5 55q0 95 97 196q16 17 27.5 44t12.5 49
q6 169 15 202q9 30 40 49l22 13q29 16 51 39.5t25 41.5q8 43 118 275q46 97 78.5 180t32.5 104q0 63 47 156t91 116zM555 257q3 12 4.5 23t1 17.5t-2.5 6.5q-12 0 -24 -36.5t-3 -45.5q7 -7 17 16q4 9 7 19zM708.5 246q-12.5 24 -26.5 41t-20 17q-13 0 -63 -118t-50 -149
q0 -27 126 -27q40 0 62.5 1.5t36.5 5t16 10t-1 16.5q-5 13 -1.5 25t14.5 16q11 3 14 21.5t-4 45.5t-19 40.5t-25 8.5q-12 -5 -29.5 8.5t-30 37.5zM507 131q10 17 14.5 32t0.5 18q-14 14 -29 -11q-12 -19 -11 -45q1 -21 6 -21q4 1 19 27zM462 27q12 12 16 24t-1.5 17
t-13.5 -3.5t-14 -24.5q-9 -24 -6 -26.5t19 13.5zM533 1262q56 40 158 34.5t156 -50.5q57 -48 72.5 -96.5t-18.5 -76.5q-25 -21 -106 -28t-161 2t-101 31q-42 42 -42 98t42 86z" />
    <glyph glyph-name="AE" unicode="&#xc6;" horiz-adv-x="2202" 
d="M1607 1296q217 16 240 20q21 3 62.5 -20.5t73 -54.5t28.5 -48q-4 -22 24.5 -50t66.5 -39q1 -1 -2 -9t-9 -22l-13 -29q-18 -37 -44 -49.5t-97 -18.5q-48 -4 -84 -1.5t-41.5 10.5t-30 6t-55 -12.5t-67 -14t-60.5 2.5q-22 5 -43 2t-26.5 -12.5t-31 -14.5t-54.5 -2
q-51 5 -62.5 -5.5t-16.5 -66.5q-3 -32 -13.5 -60.5t-20.5 -35.5q-20 -16 17 -17q20 0 27.5 -8t7 -29.5t-7.5 -75.5l-16 -113l208 6q113 3 162.5 -2t55.5 -21q4 -11 17 -19.5t27 -8.5q15 0 21 -8.5t0 -23.5q-5 -12 0.5 -34t18.5 -39t22.5 -43.5t10.5 -46.5q0 -12 -1.5 -19.5
t-9.5 -14.5t-19.5 -11.5t-35.5 -10t-52 -10.5t-75 -12q-80 -12 -146 -29.5t-79 -29.5q-11 -11 -28 -20t-26 -9q-10 0 -16.5 -13.5t-6.5 -32t-7 -31.5t-16 -13q-10 0 -16.5 -45.5t-6.5 -112.5v-158h295q146 0 206 -3.5t94 -13.5t73 -37q79 -54 50 -66q-18 -7 8 -11
q9 -1 24 -2q53 -2 60 -23q6 -18 -31 -33q-13 -5 -24.5 -27.5t-13.5 -47.5q-4 -37 -16 -49.5t-42 -11.5q-20 1 -35.5 -3t-15.5 -11q0 -6 -78 -7.5t-188 3.5q-102 4 -149.5 5t-91 -4t-66 -14t-61.5 -30l-42 -22l-31.5 -15t-24.5 -10t-18 -2t-14.5 2.5t-10.5 10.5t-11 15.5
t-11 22.5q-12 24 -33 42.5t-39 22.5q-19 3 -30 7t-21.5 15t-15.5 24t-10 42.5t-7.5 62t-5.5 91.5q-7 109 -14.5 176t-18 108.5t-24.5 56.5t-35 11q-43 -7 -188.5 -27t-176.5 -61q-53 -71 -122 -198t-78 -170q-7 -34 -40.5 -74t-69.5 -59t-48 0q-6 10 -2 23t16 20t15.5 20.5
t-4.5 24.5q-10 15 -17.5 15.5t-15.5 -14.5q-16 -26 -99 -11l-34 6t-22.5 9t-15 12t-7 20.5t-3.5 30v45.5q0 68 12 98.5t52 63.5q27 23 50.5 57t29.5 61q7 27 25 48.5t37 26.5q30 8 29 20q0 3 -5 6q-9 6 16.5 59t72.5 124q47 70 146 256l193 379q168 346 207 406q32 51 61 56
q9 1 27 0q69 -5 87 -52q11 -31 38 -47.5t54.5 -11.5t40.5 30q24 45 120 71.5t284 40.5zM1003 489q7 139 -9 146q-11 5 -39 -39q-20 -32 -61 -107l-27.5 -53t-15 -36t-5.5 -25t6.5 -15t17 -10t29.5 -7q21 -4 35.5 -4.5t26.5 4.5t19 14.5t12 28t7.5 42.5t3.5 61zM820 556
q0 38 -27 10q-26 -26 -59 -93q-50 -102 -48 -116q2 -8 21 -8q9 0 16 10.5t7 25.5t13 42.5t31.5 51t32 46.5t13.5 31zM426 -168q65 104 44 99q-11 -3 -49 -45q-19 -22 -30 -41.5t-6 -24.5t0.5 -19t-15.5 -28q-23 -29 -15 -34q6 0 26.5 27t44.5 66z" />
    <glyph glyph-name="Eacute" unicode="&#xc9;" horiz-adv-x="1157" 
d="M384 743q144 67 254 54.5t152 -101.5q38 -81 9 -139t-117 -77q-60 -12 -134 -44.5t-124.5 -67.5t-50.5 -55q0 -23 16.5 -26.5t68.5 7.5q92 19 204 11t155 -36q35 -23 52.5 -53.5t16.5 -61.5t-17 -61t-43.5 -53.5t-69 -37.5t-88.5 -14q-26 0 -79 -14.5t-100 -34.5
l-48.5 -20.5t-31.5 -17t-21 -16t-10 -20t-5 -26.5v-36v-88l84 13q85 14 186 36q66 14 181.5 22t170.5 2q34 -4 76 -49.5t52 -89.5q11 -45 -15 -87t-79 -67.5t-117 -25.5q-30 0 -128 -21t-206 -51l-192.5 -50t-125.5 -27.5t-69.5 -6.5t-20.5 13q0 23 -42 70
q-34 40 -51.5 217.5t-20.5 516.5q-1 91 -6.5 185t-13.5 135q-19 109 21 173t128 65q36 1 94 16.5t105 38.5zM357 1292q8 11 36.5 19t60.5 8q76 0 122.5 -68t31.5 -158q-25 -155 -79.5 -227t-131.5 -51q-41 11 -78 77.5t-37 128.5q0 51 26.5 146.5t48.5 124.5z" />
    <glyph glyph-name="Iacute" unicode="&#xcd;" horiz-adv-x="455" 
d="M132 686q55 52 119 38.5t102 -84.5q16 -29 44 -484.5t28 -675.5q0 -57 -22 -94.5t-55.5 -48.5t-76.5 5.5t-82 60.5q-36 41 -46 73q-16 49 -23 253q-1 39 -4 120q-11 375 -21 584q-7 91 -4.5 142t10.5 70.5t31 40.5zM170 1264q51 27 97 31t76 -13t42.5 -55t1.5 -89
t-47.5 -110t-80 -98.5t-73.5 -39.5q-36 0 -76 32t-63 77t-15 79q15 59 52 109t86 77z" />
    <glyph glyph-name="Ntilde" unicode="&#xd1;" horiz-adv-x="1347" 
d="M237 765q13 33 32 45.5t56 12.5q70 0 142 -68t155 -210q94 -162 196 -306l103 -143l27 64q27 65 69 234q13 54 21.5 84.5t19 57.5t18 39t21 21t26.5 10.5t35 1.5q81 0 114.5 -55t29.5 -184q-1 -63 -9 -123.5t-16.5 -84t-22.5 -109t-25 -182.5q-17 -159 -32 -244
t-32.5 -121t-42.5 -36q-17 0 -35.5 -7t-27.5 -16q-30 -30 -88 11t-130 139.5t-140 233.5q-23 44 -81.5 133t-110.5 158.5t-57 64.5q-6 -5 -37.5 -232.5t-53.5 -417.5q-18 -160 -82.5 -198.5t-167.5 50.5l-27 23t-20 20.5t-15.5 18.5t-9.5 20t-6 22.5t-2 29t-1 36.5t1 47
q3 146 51 541q26 221 46 321t44 134q43 61 43 83.5t22 80.5zM632 1296q49 18 121 2t157 -64q57 -33 88 -39.5t70 6.5q56 20 133.5 -1.5t103.5 -63.5q20 -33 7.5 -92t-46.5 -90q-66 -59 -97.5 -74t-91.5 -16q-86 -1 -218 69q-79 42 -122.5 53.5t-96.5 3.5q-59 -10 -76.5 -2
t-33.5 51q-12 29 -7 69.5t19.5 78t39 68.5t50.5 41z" />
    <glyph glyph-name="Oacute" unicode="&#xd3;" horiz-adv-x="1010" 
d="M357 820q91 93 150 93q47 0 93.5 -34.5t46.5 -69.5q0 -12 12 -25t28 -19q49 -17 114.5 -107t109.5 -199q68 -170 69.5 -356t-63 -350t-182.5 -271l-40.5 -36.5t-33 -23t-29.5 -15t-36.5 -4.5t-48.5 -1t-69 5q-90 5 -142 18.5t-91 40.5q-98 70 -154.5 202t-60 293.5
t43.5 342.5q37 132 120.5 283.5t162.5 232.5zM651 423q-19 42 -45.5 79t-45.5 48q-29 15 -48 6t-55 -56q-90 -117 -124.5 -227.5t-34.5 -278.5q1 -128 9 -176t33 -76q37 -41 98 -44.5t112 32.5q48 33 83.5 118.5t50 186.5t7 208t-39.5 180zM800 1302q60 8 106.5 -20.5
t66.5 -84.5q14 -39 -11.5 -99t-73.5 -107t-92 -52q-59 -6 -115.5 42.5t-56.5 107.5q0 37 29 86t71 85.5t76 41.5z" />
    <glyph glyph-name="Odieresis" unicode="&#xd6;" horiz-adv-x="1277" 
d="M418 964q71 17 120 7t137 -61q125 -72 250 -208t211 -292t104 -282q21 -144 -23 -295.5t-139.5 -274t-219.5 -184.5q-116 -57 -202.5 -58.5t-192.5 50.5q-169 84 -277 234.5t-140.5 343t8.5 418.5q28 143 87.5 276t133.5 221t143 105zM607 633l-47.5 29.5t-34.5 15.5
t-27.5 5.5t-23 -9t-24.5 -20l-30 -35.5q-61 -73 -94 -199.5t-32.5 -257.5t33.5 -255t95 -192q83 -92 146 -109t143 31t146.5 147t80.5 190q16 105 -24.5 235t-123 245t-183.5 179zM708 1296q48 21 52.5 22t63.5 -26q51 -23 72.5 -78.5t4.5 -108t-66 -67.5q-27 -9 -60.5 3
t-61 36.5t-50 56t-27.5 62.5t8 55q6 11 24.5 24t39.5 21zM151 1295q48 27 88 21t86 -47q57 -52 65 -121q7 -59 -31 -74q-9 -3 -20 -3q-19 0 -32.5 -7t-13.5 -17q0 -17 -60 26l-30 23q-73 59 -87.5 114.5t35.5 84.5z" />
    <glyph glyph-name="Oslash" unicode="&#xd8;" horiz-adv-x="1580" 
d="M584 325q0 10 6 17t16 7q23 0 23 -10.5t-23 -23.5q-10 -6 -16 -3t-6 13zM1339 1278q34 7 79.5 -12.5t45.5 -41.5q0 -5 11.5 -12t28.5 -11q41 -11 45 -91q3 -46 -13 -83t-62 -93q-33 -39 -53.5 -74.5t-16.5 -45.5q37 -87 69 -217.5t22 -153.5q-16 -37 -10 -82.5t28 -59.5
q10 -6 11.5 -36t-3 -64t-14.5 -64t-21 -37q-8 -6 -18 -33t-16 -59q-50 -281 -140 -435t-250 -230q-64 -31 -197 -29t-175 35q-28 20 -125 49q-55 16 -82.5 16.5t-46.5 -14.5q-30 -22 -33 -12q0 14 -59 -26q-5 -3 -9 -6q-44 -31 -68.5 -35t-73.5 14q-81 29 -127 70t-34 73
q6 15 17.5 25.5t22.5 11.5q17 1 1 19q-5 5 -13 11q-19 15 -22.5 25.5t3.5 27t34 55.5q53 77 34 111q-27 47 -38.5 137.5t-16.5 277.5q-6 227 23 376.5t110 309.5q51 102 105.5 163.5t133 104.5t207.5 84q168 53 251.5 54.5t181.5 -46.5l100 -48l64 46q27 20 58.5 36t50.5 19
zM787 1161q0 23 -6 21.5t-51 -21.5q-14 -6 -20 -9.5t-9.5 -6t1 -3.5t11.5 -1.5t23 -0.5q20 -1 35.5 5.5t15.5 15.5zM883 1168q17 7 -7 10q-8 1 -22 1q-38 0 -35 -7q1 -2 7 -4q28 -11 57 0zM832 1118q0 31 -51 8l-40 -21q-50 -29 -26 -32q3 -1 8 -1q39 -1 74 13.5t35 32.5z
M870 983q-27 27 -51 45.5t-30 17.5q-39 -6 -94 -32t-94.5 -57t-39.5 -49q0 -9 -26 -46.5t-62 -81.5q-81 -98 -143.5 -266.5t-61.5 -286.5q2 -105 29 -230t50 -126q9 0 22 11.5t22 28.5q46 83 155 237.5t139 179.5q36 30 94.5 132t104 210.5t47.5 156.5q3 54 -9.5 85.5
t-51.5 70.5zM1201 538q-12 32 -33 35q-17 -6 -20 -28q0 -11 -24 -45.5t-58 -71.5q-81 -91 -134 -170l-201 -293l-103.5 -156.5t-43.5 -75.5q0 -16 40 -35t92.5 -30t83.5 -5q141 25 235 139.5t145 322.5q27 114 33.5 239.5t-12.5 173.5zM967 -631q0 9 -16.5 10t-36 -5
t-25.5 -16q-7 -12 12 -12q9 0 21 3q45 11 45 20z" />
    <glyph glyph-name="Uacute" unicode="&#xda;" horiz-adv-x="1026" 
d="M673 698q5 19 40.5 22.5t78 -9t66.5 -35.5q42 -39 81 -176t54 -296q14 -149 -25.5 -336t-100.5 -264q-56 -70 -124.5 -124.5t-136 -83.5t-131.5 -36t-111 19q-95 48 -171.5 192.5t-119.5 353t-43 439.5q0 183 44 250t141 30q33 -12 52 -33.5t33 -69t21 -117t12 -188.5
q8 -200 38 -343t67 -166q18 -11 61.5 10.5t81.5 58.5q49 49 77.5 189t19.5 287q-5 76 -15 142t-19 82q-23 40 -0.5 110zM447 1206q51 70 79 89t76 19q44 0 68 -13.5t47 -52.5q28 -47 28.5 -74t-26.5 -110q-53 -168 -125 -213.5t-156 34.5q-72 69 -70 142.5t79 178.5z" />
    <glyph glyph-name="Udieresis" unicode="&#xdc;" horiz-adv-x="1147" 
d="M777 987q65 27 117.5 -4t88.5 -118q45 -107 89 -339t45 -369q1 -161 -46.5 -324.5t-133 -293.5t-189.5 -196q-57 -36 -101 -40.5t-96.5 20.5t-139.5 90q-205 157 -302 459t-75 720q4 76 7 122t9 86t12 60.5t17 37.5t23.5 25t33.5 16q34 13 55.5 7.5t52.5 -35.5
q65 -61 81.5 -144.5t-6.5 -239.5q-16 -107 -16 -171t16 -138q32 -143 74.5 -263.5t86.5 -190.5t78 -70q36 0 84.5 79t85.5 201q30 96 35.5 166t-4.5 226q-7 99 -20.5 196.5t-26.5 133.5q-30 86 -29 141t33 68q13 5 23.5 17.5t10.5 24.5t8 24t19 16zM583 1298q96 19 154 -25
t58 -137q0 -54 -12 -76t-54 -43q-46 -24 -66.5 -21.5t-72.5 37.5q-51 34 -79 77t-29 81t25 68t76 39zM179 1317q37 22 79.5 20t80 -19t66 -51.5t36.5 -76.5q10 -55 -9 -98.5t-55 -43.5q-13 0 -23 -6.5t-10 -15.5q0 -37 -43 -7q-27 18 -77 66q-71 67 -84 134t39 98z" />
    <glyph glyph-name="germandbls" unicode="&#xdf;" horiz-adv-x="1323" 
d="M471 1203q136 68 265.5 32t284.5 -185q174 -167 171.5 -338t-180.5 -366l-56 -61l126 -126q149 -149 191.5 -265t-7.5 -236q-62 -147 -170.5 -213.5t-286.5 -66.5q-140 0 -216.5 38t-76.5 107q0 54 41 79t130 25q85 0 165.5 46t94.5 102q16 65 -32.5 136.5t-143.5 123.5
q-201 108 -228 223q-9 38 10.5 67.5t101.5 99.5q52 46 88.5 84t36.5 47.5t13 32.5t31 46q54 68 47.5 150.5t-69.5 135.5q-69 59 -117.5 55.5t-125.5 -73.5q-133 -119 -194 -305t-61 -470q0 -197 -16 -500l-16 -304l-86 2q-79 2 -103.5 22.5t-35.5 97.5q-24 157 -15.5 610
t38.5 593q38 186 144.5 333t256.5 221z" />
    <glyph glyph-name="aacute" unicode="&#xe1;" horiz-adv-x="1081" 
d="M342 375q199 145 269 -56q6 -17 23.5 -33t33.5 -20q19 -4 57.5 -62.5t83.5 -151.5q41 -85 91.5 -166.5t80.5 -112.5q63 -64 69.5 -109t-39.5 -101q-37 -44 -60.5 -47.5t-50.5 29.5q-11 14 -29.5 20t-31.5 1q-34 -14 -143 101l-108 115l-43 -47q-55 -61 -149 -118.5
t-137 -57.5q-24 0 -48 9.5t-36 24.5q-11 13 -28.5 23.5t-29.5 10.5q-28 0 -49.5 36.5t-30.5 91.5t-5.5 124t21.5 129q28 95 103.5 190.5t185.5 176.5zM392 29q14 21 22.5 39t4.5 21q-5 5 -20.5 -13.5t-29 -44t-13.5 -37t27 22.5q4 6 9 12zM757 939q61 14 64.5 16.5
t39.5 -11.5q21 -7 30.5 -51.5t4 -99t-23.5 -90.5q-27 -53 -86 -113.5t-83 -60.5q-11 0 -26.5 9.5t-26.5 23.5t-29 19.5t-33 -0.5q-32 -13 -64.5 27t-32.5 93q0 29 47 82.5t111 99.5t108 56z" />
    <glyph glyph-name="adieresis" unicode="&#xe4;" horiz-adv-x="1294" 
d="M474 674q63 27 129.5 30.5t128.5 -16.5t118.5 -58.5t103 -97.5t76.5 -131q23 -55 21.5 -80t-29.5 -83q-22 -44 -25 -93.5t10.5 -88.5t42 -65t65.5 -26q69 0 109 -42.5t40 -115.5q0 -57 -12 -78.5t-58 -45.5q-70 -36 -138.5 -21.5t-168.5 86.5l-106 77l-87 -69
q-35 -27 -87 -57t-88 -42q-59 -20 -98 -17t-141 37q-115 39 -169.5 91t-79.5 145q-11 44 57.5 196.5t149.5 266.5q32 44 55 89t23 62q0 38 41 76t117 71zM610 272q0 74 -75 -29l-14 -18q-22 -33 -43 -56t-29 -23q-10 0 -33 -35t-38.5 -72.5t-8.5 -44.5q11 -11 66 19t90 67
q32 33 58.5 93t26.5 99zM850 898q6 6 38 10.5t71 4.5q65 0 90 -15t67 -79l62 -93l-44 -59q-40 -53 -92.5 -50t-131.5 63q-43 32 -59 60t-16 70q0 31 4.5 56.5t10.5 31.5zM256 1014q10 25 47 30.5t84 -7.5t92.5 -35t76.5 -52.5t31 -59.5q0 -52 -43.5 -83t-100.5 -20
q-104 20 -159.5 87.5t-27.5 139.5z" />
    <glyph glyph-name="aring" unicode="&#xe5;" horiz-adv-x="1307" 
d="M260 1042q57 44 116.5 22t153.5 -122q108 -113 137.5 -175.5t2.5 -115.5q-17 -32 -9.5 -52t53.5 -62q32 -29 72.5 -98.5t76.5 -157.5q68 -164 125.5 -232t135.5 -77q71 -8 102.5 -36t43.5 -95q16 -86 -6.5 -127t-96.5 -59q-83 -21 -159 13t-191 145q-45 44 -82 75.5
t-43 31.5t-26.5 -17.5t-42.5 -41.5q-60 -65 -126.5 -93t-157.5 -27q-93 0 -148 26t-109 94q-59 75 -51 172.5t86 238.5q82 149 131.5 211t131.5 117l88 60l-109 111q-91 93 -117 165t18 106z" />
    <glyph glyph-name="ae" unicode="&#xe6;" horiz-adv-x="1749" 
d="M481 738q111 15 223 -55t194 -206q8 -13 15.5 -17t22 2t33.5 21t54 46q103 91 199.5 128t152.5 7q36 -19 81 -73.5t76.5 -115t31.5 -95.5q0 -23 -17 -69t-40 -86q-36 -62 -70.5 -90t-112.5 -57q-74 -28 -106 -32.5t-52 12.5q-33 27 -57 2q-26 -26 -30 -128.5t19 -133.5
q32 -42 94.5 -45.5t110.5 34.5q22 17 50.5 30t46.5 13q17 0 37 7t29 16q24 24 112 -5q55 -19 78 -42.5t44 -84.5q11 -32 16 -54t2.5 -43.5t-12 -36.5t-31.5 -32.5t-50.5 -33.5t-73.5 -38q-132 -64 -220 -73.5t-204 26.5q-100 31 -179 98t-128 163l-36 69l-63 -81
q-61 -80 -133.5 -116t-176.5 -36q-95 -1 -183.5 46.5t-143 126t-54.5 162.5q0 144 119.5 231t322.5 90q115 2 126 13q14 13 -3.5 115.5t-36.5 121.5q-23 22 -176 -46q-80 -36 -111 -46t-50.5 -7.5t-48.5 21.5q-35 24 -43 43.5t1 63.5q19 100 118.5 176t232.5 94zM1393 146
q20 20 1 19q-20 0 -89 -24q-68 -23 -97 -32q-12 -3 -16.5 -12.5t0.5 -18.5q11 -17 90 9.5t111 58.5z" />
    <glyph glyph-name="eacute" unicode="&#xe9;" horiz-adv-x="1065" 
d="M374 555q51 13 109.5 10.5t118 -23.5t107 -50t77.5 -67.5t30 -75.5t-62.5 -110.5t-150.5 -144t-155 -97.5q-59 -24 -82.5 -44t-23.5 -47q0 -77 108.5 -90.5t360.5 33.5q74 14 109.5 13.5t57 -15t42.5 -51.5q18 -34 14.5 -57t-34.5 -74q-28 -45 -71 -75t-129 -64
q-179 -72 -321 -56t-266 122q-101 87 -145.5 194t-36.5 244q12 192 106.5 336.5t236.5 188.5zM604 1211q18 30 86 13.5t119 -64.5q56 -51 67.5 -98t-17 -103.5t-106.5 -140.5q-48 -51 -99 -62q-41 -8 -41 21q0 10 -11.5 16.5t-28.5 6.5q-16 0 -36.5 14t-32.5 32
q-18 30 -12.5 65.5t43.5 132.5q60 151 69 167z" />
    <glyph glyph-name="iacute" unicode="&#xed;" horiz-adv-x="590" 
d="M156 356q46 13 63.5 12t62.5 -18q53 -20 78.5 -66.5t33 -141.5t-3.5 -249q-13 -210 -25 -250q-10 -33 -40 -51q-5 -4 -16 -9q-31 -18 -44.5 -22t-21.5 1t-19 25q-10 17 -25 28.5t-28 11.5t-33.5 17.5t-36.5 42.5q-26 40 -30.5 89.5t5.5 188.5q11 156 21 235.5t23.5 114.5
t35.5 41zM271 1220q83 61 126 70.5t109 -20.5q31 -14 44 -31.5t8 -47t-27.5 -70.5t-67.5 -107l-71.5 -110t-30.5 -56.5t-17.5 -22t-40.5 -26.5q-38 -19 -53.5 -19t-31.5 21q-10 13 -37 35t-52 38q-44 29 -70 69t-29 77.5t17 68.5t61 41q26 6 73.5 32.5t89.5 57.5z" />
    <glyph glyph-name="ntilde" unicode="&#xf1;" horiz-adv-x="1234" 
d="M544 367q93 66 183 39.5t190 -150.5q66 -82 100 -195t49 -301q12 -135 5 -160q-6 -22 -33 -36q-5 -3 -16 -7q-36 -17 -62 -15t-73 24q-46 23 -71.5 55t-43.5 92t-38 180q-7 44 -15.5 81.5t-16 58t-11.5 18.5q-36 -13 -135.5 -155.5t-163.5 -268.5q-40 -80 -78 -144
t-52 -76q-37 -30 -66.5 -25.5t-39.5 41.5q-5 19 -22 33t-37 17q-51 8 -63.5 89t16.5 218q38 181 66 332q16 91 38 129t65 52q27 8 47.5 -0.5t42.5 -37.5l41 -53l63 59q63 58 131 106zM359 1240q29 13 77 22.5t83 10.5q58 0 91.5 -19.5t103.5 -95.5q72 -78 100 -94.5t71 -6.5
q25 7 62 24.5t62 35.5q62 45 110.5 42.5t71.5 -52.5q19 -43 8 -90.5t-73 -184.5q-25 -55 -99 -100t-140 -45q-50 0 -134 53t-140 121q-63 75 -121.5 71.5t-146.5 -87.5q-29 -29 -45.5 -43.5t-33 -26.5t-24 -14.5t-18 1t-17 11t-17.5 22.5q-12 17 -32.5 33.5t-36.5 22.5
q-40 14 -40 91q0 47 20 80.5t83 91.5q42 39 93.5 76t81.5 50z" />
    <glyph glyph-name="oacute" unicode="&#xf3;" horiz-adv-x="919" 
d="M240 509q30 56 110.5 43.5t175.5 -88.5q108 -86 159.5 -146.5t102.5 -160.5q57 -112 83.5 -222t13.5 -182q-9 -49 -67 -119t-139 -132t-151 -89q-118 -45 -210 -27.5t-176 101.5q-39 39 -67.5 84.5t-35.5 79.5q-21 106 7.5 255t95.5 282q35 70 58 135t21 88q-2 22 4 51.5
t15 46.5zM533 64q-9 24 -22.5 41.5t-22.5 17.5q-18 0 -52.5 -53t-64.5 -124t-36 -116q-8 -58 -3 -74.5t31 -16.5q17 0 51.5 17t66.5 42q119 90 52 266zM521 1191l37 20.5t25.5 10.5t20.5 4.5t17.5 -5.5t19.5 -10.5l25 -20.5q65 -54 59 -128.5t-83 -157.5q-42 -45 -42 -61
q0 -7 -16 -14.5t-40 -11.5t-40 -1t-16 12t-16.5 28t-40.5 38q-51 40 -57 94t33 108.5t114 94.5z" />
    <glyph glyph-name="odieresis" unicode="&#xf6;" horiz-adv-x="1052" 
d="M282 524l92 168l126 -16q126 -15 212 -77t187 -210q76 -110 93.5 -156t17.5 -130q-1 -139 -35.5 -244t-97.5 -158q-27 -23 -42 -32.5t-43 -15t-58.5 -4.5t-96.5 6q-112 8 -166 25t-149 75q-96 59 -125.5 91.5t-52.5 103.5q-23 73 -22 114t28 143q16 61 54.5 154t77.5 163
zM634 344q-28 27 -46 27q-12 0 -50 -67.5t-70.5 -145t-32.5 -103.5q0 -33 29 -55.5t67 -22.5t75 21q36 23 45.5 53.5t9.5 123.5q0 61 -8 109.5t-19 59.5zM755 965q34 14 90.5 13t76.5 -15q34 -24 67 -82.5t33 -94.5q0 -53 -36 -76t-91.5 -7.5t-109.5 64.5q-30 28 -46 71.5
t-12 80t28 46.5zM56 1044q23 23 63 25.5t81.5 -14t79.5 -43t62 -64t25 -74.5q0 -34 -19.5 -56.5t-51.5 -29t-68.5 -1t-75 27t-66.5 55.5q-93 111 -30 174z" />
    <glyph glyph-name="oslash" unicode="&#xf8;" horiz-adv-x="1237" 
d="M982 875q54 10 77 9.5t40.5 -11t47.5 -41.5q65 -71 59 -156t-82 -163q-34 -35 -54.5 -69t-16.5 -49q11 -35 58 -165q19 -53 34.5 -131t17.5 -132q3 -89 -9 -127.5t-64 -106.5q-74 -97 -159.5 -146t-228.5 -75q-108 -20 -145.5 -16t-120.5 45q-35 17 -53.5 25t-34 13.5
t-23.5 3t-13.5 -8t-12.5 -17.5q-20 -38 -69 -50t-101.5 5.5t-81.5 57.5q-22 30 -16 100.5t34 109.5q14 20 20.5 41.5t0.5 30.5q-15 25 -16.5 67.5t9.5 94.5t33.5 113t53 121t69.5 120.5t83 111.5q81 94 158.5 140.5t106.5 18.5q83 -83 243 102q43 51 89.5 90.5t66.5 43.5z
M786 44q3 32 -0.5 55.5t-10.5 23.5q-13 0 -80 -65.5t-129 -136.5t-62 -85q0 -27 65 -8q114 32 161.5 80t55.5 136z" />
    <glyph glyph-name="uacute" unicode="&#xfa;" horiz-adv-x="1017" 
d="M679.5 546q7.5 12 32.5 20t52 8q40 0 64.5 -18t59.5 -72q115 -183 97 -417.5t-163 -424.5q-78 -103 -155.5 -149.5t-169.5 -46.5q-52 0 -79 8t-55 30t-85 82q-100 103 -156 246.5t-83 366.5q-31 254 38 310q43 35 117 -21q22 -16 35 -31t25 -37.5t24 -67t24.5 -98.5
t33.5 -154q17 -83 31 -135.5t30.5 -86.5t33 -44t39 1.5t47 41t59.5 81.5l36 54.5t23.5 45t15.5 41.5t6.5 51t3.5 66.5v95.5q0 93 5.5 167.5t13 86.5zM542 1151q49 41 119.5 53t88.5 -18q13 -20 23 -105q6 -52 -5 -86t-51 -90q-27 -37 -47 -71.5t-20 -44.5q0 -32 -47.5 -68.5
t-76.5 -25.5q-14 5 -24 19t-10 30t-10.5 24t-27.5 5q-39 -7 -61 56q-14 39 -8 70.5t38 94.5q22 42 57 88t62 69z" />
    <glyph glyph-name="udieresis" unicode="&#xfc;" horiz-adv-x="1016" 
d="M690 795q15 18 26 23t30.5 3t70.5 -13q41 -8 67.5 -31.5t53.5 -75.5q32 -61 40 -128.5t7 -268.5q0 -153 -4 -218t-15.5 -108.5t-42.5 -108.5q-25 -54 -67 -112t-77 -86q-56 -46 -86.5 -55t-98.5 0q-41 6 -103.5 28t-106.5 45q-97 53 -158 108.5t-102.5 137.5t-60.5 186
t-26 259q-4 68 -5.5 109.5t-1.5 77t1.5 53t5.5 31t9.5 18.5t14.5 9q17 7 43 4.5t48 -12.5q65 -29 95.5 -114.5t30.5 -236.5q0 -159 25 -255t79 -147q63 -60 119.5 -33t111.5 144q30 65 41 108t14 107t2 219q-2 137 3.5 228.5t16.5 104.5zM444 1217q9 24 47.5 31.5t84.5 -2.5
t74 -34q68 -57 82.5 -90.5t-6.5 -82.5q-21 -47 -39.5 -54t-63.5 15q-40 21 -101 45q-48 18 -72 71.5t-6 100.5zM77 1220q21 25 56 28.5t72 -11.5t72.5 -48t57.5 -75q21 -41 19.5 -58.5t-27.5 -47.5q-26 -31 -60 -33t-57 26q-11 13 -79 48q-55 29 -71.5 79.5t17.5 91.5z" />
    <glyph glyph-name="quoteright" unicode="&#x2019;" horiz-adv-x="903" 
d="M211 1274q22 5 49 4.5t40 -7.5q33 -15 190.5 -54.5t186.5 -39.5q13 0 35.5 -15t42.5 -37l49 -52l-87 -97q-37 -41 -72.5 -75.5t-50.5 -43.5q-80 -50 -133 -101t-71 -94q-26 -65 -79 -65q-22 0 -44.5 -11.5t-31.5 -28.5q-17 -30 -23 -18q-1 2 -1 6q0 12 -14 23.5t-34 18.5
q-30 9 -37 26.5t-2 64.5q4 32 3 54.5t-6 22.5q-12 0 -43 19q-19 12 -18 43t23 121q35 144 54 233q11 51 27 73t47 30zM496.5 1087q-8.5 9 -79.5 28q-21 5 -30 7.5t-20.5 1.5t-15 -4t-10 -15.5t-9.5 -24.5l-10 -40l-35 -133q-5 -17 -2.5 -28t11.5 -11q17 0 113 105t87.5 114z
" />
    <glyph glyph-name="quotedblleft" unicode="&#x201c;" horiz-adv-x="1258" 
d="M872 1032l19.5 41.5t16 30.5t13.5 23t13 15.5t13.5 10t15 4.5t18 1.5t22.5 -1.5q20 -2 30.5 -3.5t23 -8.5t19 -14t18 -26t20.5 -38l26 -57q21 -45 17 -75q-5 -45 -80 -205l-41 -86l-55 -115.5t-40.5 -79t-31.5 -54t-25.5 -30t-25.5 -17t-28 -6.5q-29 -5 -51.5 -2.5
t-25.5 11.5q-8 20 -25 10q-7 -4 -22.5 16t-31.5 52q-32 67 -17 77q2 1 4 1q10 0 13 5.5t-2 14.5q-19 32 200 505zM222 1177q20 46 39.5 68.5t33.5 17.5q31 -12 73 -12q29 0 52.5 -32t47.5 -103q4 -11 20 -49q7 -17 -6.5 -68.5t-43.5 -122.5q-65 -155 -96 -260
q-15 -54 -30 -76.5t-30 -15.5q-13 5 -30.5 -3.5t-29.5 -25.5q-24 -32 -53 -24t-29 47q0 12 -9 24t-22 18q-13 5 -27 35t-20 65q-11 66 21.5 170.5t138.5 346.5z" />
    <glyph glyph-name="Euro" unicode="&#x20ac;" horiz-adv-x="1286" 
d="M767 1222q89 25 93 29v-8q-2 -8 -6 -20q-5 -14 5 -35t30.5 -40t30 -41.5t3.5 -37.5q-9 -24 -108 -79.5t-171 -77.5q-32 -10 -67 -85.5t-22 -101.5q3 -7 10 -7q14 0 27 6.5t19 16.5t19 13.5t25 -1.5q13 -5 24.5 6t16.5 32l12 50l46 -50q19 -20 32.5 -47.5t13.5 -46.5
t17.5 -41t44.5 -37q41 -23 39 -32q-1 -2 -6 -2q-11 -1 -19.5 -14.5t-8.5 -31.5q0 -30 -10 -37q-16 -12 -128 -16q-20 0 -74 -2q-75 -1 -157 -21t-136 -48t-54 -53q0 -20 -14 -57q-9 -21 13 -27q30 -8 208 -3q97 3 170.5 0.5t79.5 -8.5q15 -14 18 -61q2 -21 11 -34t21 -13
q11 0 24 -25t19 -58q5 -25 5.5 -42t-3.5 -32t-16 -24.5t-29 -18t-46 -13.5t-63 -9.5t-85 -7.5q-75 -6 -139 -16.5t-80 -19.5q-34 -19 18 -47q65 -34 161 -39q30 -1 56 2q75 10 165.5 47t138.5 77q31 26 37 18q1 -1 1 -3q0 -12 35 4q5 2 10 5q20 12 47.5 6.5t52 -18.5
t38.5 -33t8 -37q-5 -13 1.5 -26t19.5 -18q14 -5 24 -23t10 -38.5t7 -42t17 -31.5q33 -33 -85 -100q-66 -38 -169 -78q-284 -111 -504.5 -31t-353.5 343q-59 116 -75 127q-28 21 -31.5 64.5t21.5 70.5q14 15 23 32.5t7 25.5q-4 20 9 53q9 24 27.5 160t15.5 153q-2 12 -17 51
t16 40q12 0 34 21t42 52q45 71 89 64q27 -4 28 1q0 4 -13 13q-30 20 13.5 93t151.5 184q91 94 142 127t147 60zM533 787q21 39 12 42q-13 0 -56 -50t-36 -57q11 -11 36 9.5t44 55.5zM149 284q12 10 17 39.5t1 60.5q-5 48 -10 44q-1 -2 -2 -12q-3 -45 -18 -101
q-10 -40 -3 -41q4 0 15 10z" />
  </font>
</defs>
</svg>
